<svg width="32" height="32" viewBox="0 0 32 32" fill="none" xmlns="http://www.w3.org/2000/svg">
<path d="M24.0001 26.6666C24.0001 24.5449 23.1572 22.5101 21.6569 21.0098C20.1566 19.5095 18.1218 18.6666 16.0001 18.6666M16.0001 18.6666C13.8783 18.6666 11.8435 19.5095 10.3432 21.0098C8.84294 22.5101 8.00008 24.5449 8.00008 26.6666M16.0001 18.6666C18.9456 18.6666 21.3334 16.2788 21.3334 13.3333C21.3334 10.3878 18.9456 7.99996 16.0001 7.99996C13.0546 7.99996 10.6667 10.3878 10.6667 13.3333C10.6667 16.2788 13.0546 18.6666 16.0001 18.6666ZM29.3334 16C29.3334 23.3638 23.3639 29.3333 16.0001 29.3333C8.63628 29.3333 2.66675 23.3638 2.66675 16C2.66675 8.63616 8.63628 2.66663 16.0001 2.66663C23.3639 2.66663 29.3334 8.63616 29.3334 16Z" stroke="#101319" stroke-width="2" stroke-linecap="round" stroke-linejoin="round"/>
</svg>
