<svg width="113" height="96" viewBox="0 0 113 96" fill="none" xmlns="http://www.w3.org/2000/svg">
<g clip-path="url(#clip0_0_864)">
<g opacity="0.2">
<path d="M12.7154 39.7396C11.4155 40.5965 6.808 43.8578 4.95984 50.1698C4.66395 51.1807 3.21879 56.4366 5.4946 62.2042C7.13472 66.3598 10.109 68.7188 16.0584 73.4365C19.0482 75.8075 22.842 78.7741 28.628 81.3258C29.985 81.9241 33.8543 83.5596 39.1583 84.6688C41.7798 85.217 44.9533 85.8608 49.187 85.7718C49.187 85.7718 56.6479 85.615 61.0666 82.9948C61.0697 82.9932 61.0909 82.9805 61.1202 82.9647C61.2384 82.9019 61.4946 82.7875 61.8029 82.8114C62.2636 82.8476 62.5853 83.2648 62.8608 83.6359C68.1942 90.8201 77.8045 93.0685 86.6249 94.5703C87.6359 94.7426 88.6858 94.9098 89.674 94.6362C90.6622 94.3627 91.5703 93.5158 91.5668 92.4906C91.5645 91.8256 91.1943 91.2215 90.7959 90.6891C87.1986 85.8797 80.6401 83.924 77.2423 78.9717C76.9796 78.5888 76.7284 78.1353 76.8355 77.6834C76.965 77.1378 77.5483 76.8469 78.0734 76.6516C81.2199 75.48 85.0222 74.8208 86.6808 71.9012C88.576 68.5662 86.4674 64.4295 84.2112 61.3273C77.6846 52.3516 70.9959 45.7996 66.5213 43.1023C61.7728 40.2401 57.4439 38.6886 55.3044 37.9338C53.0494 37.1382 49.8813 36.0375 45.609 35.3606C44.4308 35.1737 40.283 34.5623 34.2442 34.9252C29.5689 35.2061 21.9728 36.1781 12.7158 39.7392L12.7154 39.7396Z" fill="#000072"/>
</g>
<path d="M44.4828 13.1445C44.2836 14.7688 44.0794 15.8849 44.0794 15.8849L28.228 12.0222C28.228 12.0222 32.1509 7.77528 35.9909 4.49582C38.5676 2.29475 41.1058 0.529421 42.395 0.777152C45.4918 1.37009 45.0009 8.95306 44.4828 13.1448V13.1445Z" fill="white"/>
<g opacity="0.3">
<path d="M44.4828 13.1444C44.2836 14.7687 44.0794 15.8849 44.0794 15.8849L28.228 12.0221C28.228 12.0221 32.1509 7.77525 35.9909 4.49579C35.8954 5.68282 36.0865 6.96732 36.9803 7.96326C38.1643 9.28321 41.9881 11.1117 44.4824 13.1444H44.4828Z" fill="#000072"/>
</g>
<path d="M44.0807 16.5869C44.0391 16.5869 43.9963 16.583 43.9536 16.5753C43.5722 16.5056 43.3198 16.14 43.3892 15.7585C44.4209 10.1112 44.7538 1.94337 42.2634 1.46602C41.8743 1.39205 40.1717 1.54615 34.5887 6.67994C31.5046 9.51594 28.7711 12.4691 28.7441 12.4987C28.4813 12.7838 28.0371 12.8012 27.752 12.538C27.4673 12.2749 27.4496 11.8311 27.7127 11.546C27.7401 11.5159 30.5071 8.52656 33.6325 5.65203C39.496 0.258953 41.5194 -0.105902 42.5277 0.0871204C44.7311 0.509381 45.7197 3.31418 45.5509 8.66179C45.4346 12.3462 44.7977 15.8633 44.7708 16.0113C44.7087 16.3499 44.4136 16.5869 44.0807 16.5869Z" fill="#000072"/>
<path d="M51.1766 36.0267C50.5983 39.9496 49.4629 42.6234 49.4629 42.6234L15.7791 51.1815C15.7791 51.1815 10.8734 49.126 6.65892 45.9128C3.55553 43.5499 0.828176 40.5583 0.703347 37.2946C0.583526 34.1073 4.54684 29.8927 4.54684 29.8927C4.54684 29.8927 4.56457 29.0263 4.69903 27.6786C5.0504 24.2045 6.18927 17.5301 9.84283 14.2406C13.4594 10.9835 20.9472 8.32238 28.6323 8.6044C33.3342 8.77623 38.1104 10.0492 42.1192 12.963C51.5781 19.8367 52.1221 29.6065 51.1762 36.0267H51.1766Z" fill="white"/>
<g opacity="0.3">
<path d="M51.1769 36.0267C50.5986 39.9495 49.4632 42.6233 49.4632 42.6233L15.7794 51.1814C15.7794 51.1814 10.8737 49.126 6.65918 45.9128C9.25863 46.5362 13.2027 46.5913 17.6969 43.6131C25.9148 38.1696 38.056 32.0325 51.1765 36.0267H51.1769Z" fill="#000072"/>
</g>
<path d="M29.1562 12.7769C29.1562 22.0381 21.6491 29.5433 12.3898 29.5433C9.61851 29.5433 7.00288 28.871 4.69971 27.6789C5.05108 24.2049 6.18995 17.5304 9.84351 14.2409C13.4601 10.9838 20.9479 8.32274 28.633 8.60476C28.9747 9.93935 29.1562 11.3371 29.1562 12.7769Z" fill="#FF6F03"/>
<g opacity="0.6">
<path d="M28.8892 9.78715C21.2422 9.65885 14.3809 12.0934 10.8953 15.2322C7.4602 18.3256 6.28357 24.6198 5.85938 28.2237C5.46409 28.0569 5.07882 27.8754 4.69971 27.6793C5.05108 24.2053 6.18995 17.5308 9.84351 14.2413C13.4601 10.9842 20.9479 8.32311 28.633 8.60513C28.7316 8.99387 28.8175 9.38724 28.8888 9.78754L28.8892 9.78715Z" fill="white"/>
</g>
<path d="M15.725 51.9204L15.5085 51.8299C14.8882 51.5698 0.309428 45.3711 0.00313459 37.3212C-0.113218 34.2564 3.04334 30.52 3.85395 29.6126C3.9233 27.8311 4.52086 18.0875 9.37339 13.7197C12.5746 10.8382 18.2312 8.66873 24.1356 8.05807C31.1518 7.33299 37.6845 8.87293 42.5324 12.3959C50.6451 18.2914 52.271 26.2854 52.2067 31.9536C52.1373 38.0532 50.1921 42.7035 50.1096 42.8984L49.9736 43.2186L15.725 51.92V51.9204ZM27.442 9.29866C20.4597 9.29866 13.7463 11.6727 10.3131 14.7634C5.52797 19.0708 5.25173 29.8007 5.24942 29.9085L5.24364 30.1782L5.05909 30.3751C4.01269 31.4893 1.31615 34.8998 1.4063 37.268C1.6602 43.9449 14.0564 49.6558 15.8395 50.4429L48.9415 42.0327C49.3695 40.8973 50.7553 36.8454 50.8035 31.8912C50.8782 24.1494 47.8176 17.9723 41.7072 13.5321C37.5474 10.5092 32.4263 9.29866 27.4424 9.29866H27.442Z" fill="#000072"/>
<path d="M68.1165 71.8337C58.7486 72.0279 55.0835 74.8072 43.7637 74.7683C33.0708 74.731 23.076 69.9239 18.3888 62.2292C16.2574 58.729 15.2241 54.6331 15.7211 50.1158C15.7211 50.1158 20.6496 43.5045 30.2656 39.5947C34.8912 37.7142 40.6006 36.4574 47.3691 36.8639C59.199 37.5732 70.397 44.51 75.0796 49.7482C77.7357 50.9792 79.7117 52.5064 81.0205 54.2085C82.3212 55.8995 82.9623 57.7635 82.9592 59.6814C82.9527 63.0259 84.5789 71.4916 68.1169 71.8337H68.1165Z" fill="white"/>
<g opacity="0.3">
<path d="M68.1164 70.5195C58.7485 70.6994 55.0834 73.2715 43.7636 73.2353C33.0707 73.201 23.0759 68.7523 18.3887 61.6312L24.3943 59.8852C24.3943 59.8852 25.6318 65.1311 31.3019 66.7454C37.7433 68.58 42.7511 63.6998 42.7511 63.6998C42.7511 63.6998 52.3387 70.2028 57.0641 61.209C57.4089 60.5525 63.4288 61.5969 63.4288 61.5969L67.5508 59.3816C67.5508 59.3816 75.1843 62.3675 78.5192 60.3618C80.691 59.0564 81.0751 56.279 81.02 54.2089C82.3207 55.7739 82.9618 57.4988 82.9587 59.2737C82.9522 62.369 84.5784 70.2032 68.1164 70.5195Z" fill="#000072"/>
</g>
<path d="M44.0051 75.4707C43.9242 75.4707 43.8441 75.4707 43.762 75.4703C34.3682 75.4376 25.5493 71.821 20.1717 65.7969C16.1629 61.3061 14.3829 55.8575 15.0244 50.0399L15.0452 49.8503L15.1592 49.6974C15.3654 49.4208 20.3158 42.883 30.0019 38.9444C35.4416 36.7325 41.2986 35.7975 47.4109 36.1639C54.2993 36.5773 60.3558 39.0126 64.2236 40.9833C68.7898 43.3095 72.8922 46.2889 75.5052 49.1738C80.773 51.6527 83.6684 55.381 83.6607 59.6833C83.6603 59.926 83.6691 60.2081 83.6788 60.5067C83.7462 62.6303 83.8479 65.8396 81.3525 68.4695C78.9175 71.0358 74.4692 72.4039 68.1306 72.5353C63.8764 72.6235 60.842 73.2481 57.6292 73.9088C53.8967 74.6767 50.0378 75.4707 44.0051 75.4707ZM16.3991 50.3905C15.8639 55.7273 17.5283 60.7274 21.2192 64.8618C26.336 70.5935 34.7651 74.0348 43.767 74.0664C49.7923 74.0922 53.6335 73.2978 57.3464 72.5338C60.6236 71.8595 63.7192 71.2227 68.1017 71.1314C74.0511 71.0077 78.167 69.7871 80.3342 67.5028C82.4262 65.2979 82.3392 62.5544 82.2756 60.551C82.2656 60.2404 82.2563 59.9468 82.2567 59.6802C82.2633 55.9219 79.6091 52.6209 74.7839 50.3859L74.6522 50.325L74.5555 50.2167C69.5122 44.5729 58.2553 38.2208 47.327 37.5651C41.4261 37.211 35.7749 38.1126 30.5309 40.2447C22.0071 43.7106 17.1862 49.4081 16.3991 50.3905Z" fill="#000072"/>
<path d="M46.546 61.2776C47.7272 61.0869 51.3477 60.5155 52.9485 64.1359C54.9053 68.5616 52.0546 85.3364 43.2496 84.1432C35.4466 83.0857 39.4608 73.5913 40.2198 71.2242C41.218 68.1108 41.4176 65.8377 42.7514 64.465" fill="white"/>
<path d="M73.8223 57.8926C73.8223 57.8926 71.5064 59.4206 72.4838 62.6565C73.8107 67.049 81.4611 72.4386 88.2092 71.7185C92.2368 71.2889 94.2218 66.438 91.7079 63.5041C90.3282 61.8936 87.3454 60.7282 85.246 59.6567C83.028 58.5252 81.2242 56.7834 79.1575 56.5372" fill="white"/>
<g opacity="0.3">
<path d="M88.2098 71.7189C81.461 72.4378 73.8113 67.0494 72.4848 62.6569C72.1724 61.622 72.1966 60.7617 72.3731 60.0701C72.575 65.0502 81.8736 70.9568 88.0592 69.5225C90.5554 68.9434 92.113 66.055 91.2774 63.0583C91.433 63.2039 91.5787 63.3515 91.7081 63.5037C94.2216 66.4383 92.2359 71.2893 88.2098 71.7185V71.7189Z" fill="#000072"/>
</g>
<path d="M74.0021 58.1645C73.9458 58.2424 73.8634 58.3441 73.7979 58.4377C73.7312 58.5356 73.6619 58.6288 73.6025 58.7301C73.4773 58.9258 73.3741 59.1312 73.2785 59.3342C73.099 59.7472 72.9784 60.1687 72.9279 60.6052C72.8158 61.4748 73.0262 62.4137 73.4361 63.254C73.8503 64.1059 74.4463 64.8995 75.1182 65.6227C75.792 66.3474 76.5507 67.0039 77.3559 67.5968C78.9713 68.7758 80.7694 69.7282 82.6677 70.34C83.6162 70.6436 84.589 70.8663 85.5688 70.9749C86.0585 71.0304 86.5493 71.0577 87.0382 71.0543C87.2829 71.0543 87.5267 71.0435 87.7699 71.0269C87.8912 71.0196 88.0122 71.0057 88.1335 70.9957L88.466 70.9476C89.3464 70.7892 90.1605 70.3523 90.7904 69.7135C91.4126 69.0713 91.8603 68.2398 92.0237 67.3572C92.1069 66.9172 92.1281 66.4668 92.0738 66.0284C92.0175 65.5903 91.8907 65.165 91.697 64.772C91.5039 64.3779 91.2419 64.0199 90.9222 63.7052C90.5989 63.3858 90.2148 63.0945 89.8091 62.8229C88.9912 62.2816 88.0838 61.8189 87.16 61.3681L85.7556 60.6927L85.0452 60.3421C84.8075 60.2219 84.5601 60.0917 84.327 59.958C83.8555 59.6918 83.4047 59.4059 82.972 59.11L81.7129 58.2138C80.885 57.6344 80.059 57.1039 79.1189 56.8611L79.1135 56.8596C78.9378 56.8141 78.8323 56.6354 78.8777 56.4597C78.9159 56.3114 79.0495 56.2131 79.196 56.2135C79.7608 56.2143 80.3225 56.3337 80.8465 56.5148C81.3739 56.6916 81.8698 56.9255 82.3444 57.1744C82.8198 57.4229 83.2725 57.6906 83.7175 57.9526C84.1591 58.2204 84.5883 58.4889 85.0209 58.7367C85.239 58.8615 85.4517 58.974 85.6782 59.0876L86.3671 59.4255L87.7756 60.0986C88.7207 60.5571 89.6739 61.0356 90.5939 61.6401C91.052 61.9456 91.5039 62.2812 91.9223 62.6919C92.345 63.1049 92.7091 63.5961 92.9753 64.1351C93.2434 64.6737 93.4184 65.2578 93.495 65.8508C93.5702 66.4445 93.5436 67.0451 93.4349 67.6265C93.2192 68.7912 92.6447 69.8723 91.8237 70.7237C90.9973 71.5709 89.8973 72.165 88.728 72.3765L88.2888 72.4409C88.1509 72.4532 88.0133 72.4686 87.8754 72.4775C87.5999 72.4971 87.3241 72.5098 87.0486 72.5106C86.4977 72.5164 85.949 72.4817 85.4054 72.4201C84.3178 72.2968 83.2537 72.0498 82.223 71.7169C81.1932 71.381 80.1965 70.9583 79.241 70.4583C78.2848 69.9609 77.3697 69.3853 76.5087 68.7345C75.648 68.0838 74.835 67.3641 74.1019 66.5562C73.3714 65.7479 72.7091 64.856 72.224 63.8292C71.9813 63.3168 71.7971 62.7597 71.6885 62.1918C71.5841 61.6197 71.5521 61.019 71.6438 60.4234C71.7359 59.8297 71.9624 59.2502 72.308 58.7656C72.4768 58.5209 72.6779 58.3017 72.8963 58.1075C73.0077 58.0123 73.1213 57.9207 73.2446 57.8409C73.3698 57.7577 73.4858 57.6906 73.6434 57.6201C73.8079 57.5462 74.0013 57.6201 74.0753 57.7846C74.1246 57.8948 74.108 58.0174 74.0425 58.1087L74.0025 58.1641L74.0021 58.1645Z" fill="#000072"/>
<path d="M102.929 93.8048C99.5996 94.8619 95.6182 95.4152 91.5042 95.2307C84.4799 94.9159 77.0707 92.4428 71.8637 86.646C62.6371 76.3684 65.2967 62.0011 57.063 61.7726L61.8847 52.0167C66.8571 52.8551 70.8604 56.4755 73.6344 65.7722C77.2105 77.7585 80.8972 81.4733 92.6932 80.4142C93.6941 80.3221 94.7552 80.1976 95.8782 80.0412C103.691 78.9501 110.017 76.4027 111.862 82.0589V82.0608C111.958 82.3517 112.04 82.6645 112.111 82.9993C113.16 87.9736 108.775 91.945 102.929 93.8044L102.929 93.8048Z" fill="white"/>
<path d="M111.582 87.4285C110.208 90.2988 106.907 92.5411 102.929 93.8048C99.5997 94.862 95.6182 95.4152 91.5043 95.2307C89.6788 92.1138 89.1915 88.2187 90.2806 84.7685C90.5935 83.7695 91.0389 82.8167 91.5925 81.9283C91.9215 81.3989 92.2906 80.8935 92.6936 80.4138C93.6946 80.3217 94.7556 80.1973 95.8787 80.0408C100.075 79.4552 103.842 78.4481 106.716 78.5205C109.193 78.5807 111.008 79.4413 111.863 82.0589V82.0608C111.959 82.3517 112.041 82.6646 112.111 82.9994C112.446 84.5898 112.226 86.0781 111.582 87.4281V87.4285Z" fill="#FF6F03"/>
<g opacity="0.6">
<path d="M111.582 87.4285C111.793 86.5119 111.803 85.5452 111.582 84.5381C111.508 84.2033 111.424 83.8901 111.323 83.5996V83.5977C109.399 77.9415 102.806 80.4889 94.6652 81.58C93.5861 81.7245 92.5632 81.8389 91.5923 81.9291C91.9352 81.3997 92.3205 80.8942 92.7396 80.4145C93.7826 80.3225 94.8879 80.198 96.0592 80.0416C100.129 79.496 103.809 78.5876 106.716 78.5213C109.193 78.5814 111.008 79.4421 111.863 82.0597V82.0616C111.959 82.3525 112.041 82.6653 112.112 83.0001C112.446 84.5905 112.226 86.0788 111.582 87.4288L111.582 87.4285Z" fill="white"/>
</g>
<g opacity="0.3">
<path d="M102.691 92.7418C97.8553 94.4539 93.6967 94.2729 91.3083 94.1457C87.8571 93.962 85.3632 93.2912 84.6558 93.0928C81.6719 92.2552 79.5213 91.1329 78.6216 90.6359C77.5367 90.036 74.5254 88.2745 71.5179 85.0032C71.5179 85.0032 65.9623 78.9601 64.0606 70.3412C64.0513 70.2992 64.0143 70.13 63.9581 69.9016C63.7901 69.2216 63.4245 67.9401 62.7006 66.4703C62.0441 65.1376 61.3336 64.1382 60.8489 63.516C60.5261 63.165 59.9928 62.67 59.2161 62.2712C58.2649 61.7831 57.3907 61.6656 56.876 61.6359C57.0809 61.2799 57.5475 60.5852 58.4136 60.0983C59.6245 59.4175 60.9911 59.4941 61.9238 59.8636C63.6375 60.5429 64.3854 62.4045 64.6485 63.0706C66.7282 68.3327 68.403 77.9827 75.9471 85.012C85.1497 93.5863 110.036 94.1581 111.862 80.6423C111.91 80.7879 111.955 80.9389 111.996 81.0957C111.996 81.0957 112.061 81.3388 112.112 81.5819C112.171 81.8663 112.298 85.8619 108.908 89.2824C106.987 91.2211 104.964 91.937 102.69 92.7422L102.691 92.7418Z" fill="#000072"/>
</g>
<path d="M61.9436 51.6708C62.7311 51.7463 63.5174 51.9062 64.2826 52.1524C65.047 52.3997 65.7863 52.7407 66.4813 53.1556C67.1764 53.5713 67.8248 54.0653 68.4143 54.6166C69.0064 55.1656 69.5462 55.7659 70.0305 56.4035C71.0068 57.6741 71.7831 59.0684 72.4423 60.497C72.774 61.2113 73.0757 61.9368 73.3516 62.67C73.632 63.4016 73.8832 64.1421 74.121 64.8853C74.3579 65.637 74.5702 66.3563 74.8071 67.0825C75.0414 67.8065 75.286 68.525 75.5472 69.2354C76.0674 70.6563 76.6568 72.0445 77.358 73.3525C78.0631 74.6551 78.8995 75.8737 79.9394 76.8623C80.9742 77.8552 82.2171 78.5934 83.5837 79.0557C84.9491 79.5246 86.4197 79.7334 87.9057 79.8104C89.3944 79.8825 90.9039 79.8228 92.4126 79.696C93.9202 79.567 95.4367 79.3778 96.9365 79.1443C98.4406 78.9093 99.9444 78.6223 101.468 78.3572C102.993 78.0983 104.537 77.8405 106.153 77.8039C106.959 77.7897 107.79 77.8367 108.626 78.042C109.043 78.143 109.458 78.2932 109.856 78.492C110.253 78.6935 110.63 78.9513 110.961 79.256C111.629 79.869 112.087 80.6496 112.387 81.4371C112.539 81.8324 112.656 82.2331 112.75 82.6334C112.846 83.0321 112.91 83.4567 112.95 83.8755C113.009 84.7188 112.942 85.5815 112.715 86.3994C112.493 87.2185 112.136 87.9933 111.683 88.6906C111.234 89.393 110.694 90.0221 110.105 90.5858C109.515 91.1502 108.879 91.6553 108.21 92.1022C106.872 92.9969 105.424 93.6873 103.932 94.2239C102.436 94.7579 100.911 95.1444 99.3641 95.4306C97.8184 95.7142 96.2554 95.8899 94.6881 95.9619C91.5538 96.1076 88.3973 95.8456 85.329 95.1413C82.2641 94.4343 79.2859 93.2635 76.599 91.5837C75.2571 90.7442 73.9907 89.7787 72.8299 88.6976C71.6691 87.6161 70.6146 86.4229 69.6826 85.1453C67.8152 82.5856 66.4467 79.7149 65.3841 76.7884C64.3076 73.8633 63.5471 70.854 62.5627 68.0049C62.0565 66.5944 61.5036 65.1974 60.6383 64.0816C60.2087 63.5241 59.6905 63.0595 59.0841 62.7274C58.4792 62.3899 57.7822 62.2096 57.0552 62.1244L57.0483 62.1237C56.8553 62.1009 56.7173 61.9264 56.7397 61.7334C56.7601 61.5592 56.9046 61.4294 57.0749 61.4228C57.8805 61.3901 58.7269 61.4987 59.5086 61.8359C60.2915 62.1645 60.99 62.6969 61.5406 63.3219C62.0965 63.946 62.5384 64.6414 62.9056 65.3553C63.0925 65.7117 63.2585 66.0735 63.4196 66.4364C63.5756 66.8009 63.7193 67.1681 63.8572 67.5352C64.4093 69.0043 64.8408 70.4883 65.2986 71.952C65.752 73.4172 66.2159 74.8678 66.7441 76.2887C67.7936 79.1285 69.1185 81.8536 70.8943 84.2584C71.7804 85.4597 72.7652 86.5847 73.8543 87.598C74.9427 88.6128 76.1313 89.5209 77.3946 90.3126C79.9228 91.8981 82.7453 93.0069 85.6653 93.6907C88.5888 94.37 91.6155 94.6308 94.6218 94.499C96.1255 94.4343 97.6246 94.2694 99.1033 94.0024C100.58 93.7339 102.045 93.3656 103.446 92.8686C104.846 92.3692 106.194 91.7274 107.414 90.9152C108.024 90.5099 108.597 90.0557 109.119 89.5583C109.641 89.0613 110.109 88.5157 110.489 87.9228C111.267 86.7458 111.651 85.3649 111.545 83.986C111.486 83.3068 111.323 82.589 111.075 81.9456C110.827 81.3011 110.475 80.7282 110.004 80.299C109.535 79.8686 108.945 79.5828 108.285 79.4236C107.625 79.263 106.908 79.2183 106.18 79.2345C104.719 79.2711 103.218 79.52 101.717 79.7819C100.213 80.0489 98.6972 80.3433 97.1646 80.5883C95.6277 80.833 94.0924 81.0287 92.5375 81.167C90.9844 81.3015 89.4152 81.3704 87.8321 81.2988C86.2521 81.2225 84.647 81.0006 83.099 80.4723C81.5525 79.9534 80.0892 79.0877 78.9045 77.95C77.7117 76.8165 76.7917 75.4638 76.0346 74.0687C75.2768 72.669 74.6835 71.2104 74.1529 69.7436C73.8886 69.0093 73.6424 68.2715 73.4082 67.531C73.1732 66.7943 72.9547 66.0377 72.734 65.3222C72.5082 64.6002 72.2697 63.8828 72.0043 63.1774C71.7434 62.47 71.4587 61.7738 71.1474 61.0919C70.5314 59.7253 69.7966 58.4216 68.9309 57.2295C68.0579 56.0448 67.0446 54.9722 65.8453 54.1431C65.2469 53.7285 64.6089 53.3687 63.9351 53.0732C63.2604 52.7808 62.5539 52.5488 61.8265 52.3643L61.823 52.3635C61.6346 52.3157 61.5206 52.1242 61.5683 51.9358C61.6115 51.7652 61.7729 51.6557 61.9428 51.6719L61.9436 51.6708Z" fill="#000072"/>
<path d="M29.156 40.0671C24.0272 42.6496 18.7508 46.2242 14.1291 51.8526C14.1291 51.8526 9.96389 48.0473 5.72703 51.7463C4.23949 53.0451 3.43465 56.1916 7.39411 60.2204C12.3387 65.2517 18.0913 67.3229 24.3947 60.3421" fill="white"/>
<g opacity="0.3">
<path d="M24.4826 60.1649C23.8627 60.8295 21.2182 63.511 17.0546 63.7144C11.9886 63.9621 8.82778 60.2477 7.93703 59.3955C5.18347 56.761 4.73347 54.5287 5.21776 53.0026C5.64542 54.0047 6.35432 55.3609 7.52209 56.6265C10.864 60.2489 15.4584 61.2483 15.4584 61.2483C19.8813 62.156 23.3653 60.6908 24.483 60.1649H24.4826Z" fill="#000072"/>
</g>
<path d="M29.4719 40.6943C26.6424 42.1206 23.9351 43.7769 21.4432 45.7144C18.9497 47.6485 16.6781 49.8615 14.672 52.2976V52.2984C14.4192 52.5985 13.9715 52.6371 13.6714 52.3847L13.6699 52.3835L13.6556 52.3712C13.6113 52.3335 13.5308 52.2687 13.4622 52.2179C13.3909 52.1639 13.3169 52.1104 13.2414 52.0591C13.0912 51.9555 12.9355 51.8569 12.7764 51.7652C12.4586 51.5806 12.128 51.42 11.7905 51.2863C11.1155 51.0189 10.4066 50.8702 9.70846 50.8806C9.00958 50.8837 8.32571 51.0536 7.68963 51.356C7.3737 51.5128 7.06471 51.6904 6.77383 51.9054C6.62473 52.006 6.48449 52.1227 6.34386 52.2394L6.23791 52.3261L6.15546 52.4082C6.10307 52.4652 6.03988 52.5099 5.9948 52.5746C5.78406 52.8054 5.63457 53.0909 5.50666 53.3826C5.4585 53.5363 5.393 53.6835 5.36873 53.846C5.35332 53.9262 5.32982 54.004 5.31942 54.0853L5.2963 54.3319C5.24236 54.9922 5.37644 55.6892 5.64382 56.3549C5.91081 57.023 6.29801 57.6614 6.738 58.2709C7.20495 58.8696 7.70234 59.4387 8.26214 59.9912C9.37405 61.0915 10.5788 62.0921 11.9018 62.8441C13.2172 63.5997 14.6654 64.0932 16.1356 64.0974C17.6062 64.1175 19.0552 63.6474 20.3829 62.9042C21.0479 62.5317 21.6893 62.0979 22.3131 61.6267C22.9326 61.1485 23.5298 60.6315 24.1331 60.106L24.1393 60.1006C24.2861 59.9727 24.5088 59.9881 24.6367 60.1349C24.7477 60.262 24.7507 60.4462 24.654 60.5764C24.164 61.2375 23.6269 61.8705 23.0278 62.4519C22.4264 63.0302 21.7718 63.5669 21.0533 64.025C20.339 64.4896 19.5526 64.8626 18.7231 65.1307C17.8917 65.3916 17.0133 65.5341 16.1325 65.5383C15.2526 65.5426 14.3722 65.4154 13.5381 65.1681C12.7024 64.9231 11.908 64.5752 11.1613 64.1618C9.66878 63.3276 8.36424 62.2523 7.17528 61.0958C6.8767 60.8118 6.58967 60.4978 6.30187 60.1869C6.23059 60.1083 6.15585 60.0339 6.08804 59.9515L5.88693 59.7018L5.48663 59.2006C4.98307 58.5021 4.52614 57.7531 4.19519 56.9201C3.86578 56.0907 3.67275 55.1625 3.74981 54.2113L3.78564 53.8557C3.80182 53.7374 3.83303 53.6199 3.85691 53.5024C3.89814 53.2654 3.98868 53.0381 4.06727 52.8089C4.25799 52.3624 4.4957 51.9274 4.82858 51.5575C4.90294 51.4593 5.00118 51.3784 5.08748 51.289L5.22156 51.1599L5.34985 51.0547C5.52014 50.9137 5.69082 50.7735 5.87575 50.6475C6.23367 50.3824 6.63089 50.162 7.04044 49.9675C7.45307 49.776 7.89074 49.6323 8.33766 49.5283C8.78612 49.4262 9.24729 49.383 9.70461 49.383C10.6223 49.3838 11.5193 49.5918 12.3376 49.9305C12.7487 50.0981 13.1393 50.3046 13.5138 50.5338C13.7014 50.6483 13.8837 50.7708 14.0625 50.901C14.1522 50.9653 14.2401 51.0328 14.3279 51.1025C14.4192 51.1749 14.4951 51.2373 14.6018 51.3337L13.5859 51.4065V51.4057C15.6571 48.8906 18.0069 46.6013 20.5813 44.6045C23.1538 42.6037 25.9435 40.8989 28.8397 39.4391C29.186 39.2646 29.6079 39.4036 29.7824 39.75C29.9569 40.0964 29.8171 40.5186 29.4711 40.6932L29.4719 40.6943Z" fill="#000072"/>
<path d="M11.6953 55.5494C11.6953 55.5494 12.8665 53.5016 14.1291 51.853L11.6953 55.5494Z" fill="white"/>
<path d="M11.3907 55.3752C11.7166 54.6971 12.0572 54.0364 12.4171 53.3772C12.7769 52.7191 13.1564 52.0684 13.5717 51.4261C13.7829 51.0994 14.219 51.0062 14.5457 51.2173C14.8724 51.4284 14.9656 51.8646 14.7545 52.1913C14.7349 52.2217 14.7102 52.2537 14.6867 52.2799C14.2078 52.8123 13.7459 53.3756 13.299 53.9531C12.8528 54.5303 12.4151 55.1251 12.0002 55.7235L11.9971 55.7277C11.8865 55.8876 11.6673 55.9273 11.5074 55.8163C11.3633 55.7165 11.3167 55.5278 11.3907 55.3748V55.3752Z" fill="#000072"/>
<path d="M8.32836 18.6443C8.32836 18.6443 5.07973 6.40988 7.28504 3.99613C10.2362 0.76599 21.039 10.4707 21.039 10.4707" fill="#FF6F03"/>
<g opacity="0.6">
<path d="M21.0389 10.4707C20.4764 10.8328 19.7459 10.7997 19.2208 10.3855C15.8632 7.7356 9.92761 3.63513 7.85676 5.9017C6.20625 7.7094 7.61211 15.025 8.4235 18.5849L8.32949 18.645C8.32949 18.645 5.08047 6.41026 7.28501 3.99536C10.2358 0.765987 21.0389 10.4707 21.0389 10.4707Z" fill="white"/>
</g>
<path d="M7.9893 18.7344C7.71229 18.1291 7.495 17.5139 7.29619 16.8901C7.09624 16.2671 6.9298 15.6356 6.78031 14.9995C6.48943 13.7262 6.23939 12.4402 6.06794 11.136C5.98356 10.4834 5.90767 9.82801 5.85796 9.16649C5.81327 8.50421 5.78746 7.83691 5.80094 7.1596C5.81828 6.4819 5.85835 5.79573 6.02672 5.08104C6.07719 4.90035 6.11148 4.72389 6.18815 4.53858C6.22282 4.44688 6.25557 4.35596 6.29333 4.26426L6.43857 3.98648C6.48172 3.89478 6.55069 3.80232 6.62004 3.71178C6.68977 3.62316 6.75527 3.52646 6.83618 3.45287C6.9872 3.29298 7.16751 3.15621 7.35591 3.04101C7.73695 2.80792 8.16114 2.69735 8.55835 2.65189C8.95865 2.60797 9.34123 2.62993 9.70493 2.68155C10.4319 2.79059 11.0973 3.00518 11.7338 3.256C13.0052 3.76186 14.1591 4.4307 15.2752 5.13806C16.3852 5.85506 17.4439 6.63447 18.4603 7.46088C19.4709 8.29577 20.4321 9.1819 21.274 10.209C21.3984 10.3608 21.3761 10.5843 21.2243 10.7087C21.1033 10.8078 20.9365 10.8139 20.8109 10.7353L20.8047 10.7315C18.6129 9.35489 16.6198 7.74252 14.4719 6.3929C13.4074 5.71135 12.3098 5.08143 11.1852 4.60407C10.6238 4.3706 10.0505 4.17834 9.49727 4.0932C8.94594 4.00651 8.42235 4.0435 8.07676 4.25155C8.03477 4.27967 7.98892 4.30279 7.95155 4.33708C7.91032 4.36597 7.87295 4.40103 7.83712 4.43802C7.79435 4.47077 7.77702 4.51584 7.74581 4.55322C7.7173 4.59097 7.68494 4.62565 7.66221 4.68305L7.58284 4.83524L7.51773 5.01516C7.46803 5.12882 7.44376 5.27252 7.40677 5.40313C7.2831 5.95022 7.24187 6.56396 7.24071 7.17809C7.24264 8.4129 7.37595 9.67775 7.54161 10.9372C7.71846 12.1971 7.91764 13.4608 8.1411 14.7233C8.35377 15.9874 8.56221 17.2588 8.66777 18.5537V18.5568C8.68395 18.7529 8.53793 18.9247 8.34222 18.9405C8.18888 18.9529 8.05018 18.8658 7.9893 18.734V18.7344Z" fill="#000072"/>
<path d="M48.6406 76.7338C49.3925 74.9123 48.8237 72.9493 47.3702 72.3494C45.9167 71.7494 44.1289 72.7396 43.377 74.5611C42.6251 76.3826 43.1939 78.3456 44.6474 78.9455C46.1009 79.5455 47.8887 78.5553 48.6406 76.7338Z" fill="#FF67A0"/>
<path d="M43.0446 79.3333C43.3211 78.6636 43.112 77.9419 42.5776 77.7213C42.0432 77.5007 41.3859 77.8648 41.1094 78.5345C40.833 79.2042 41.0421 79.926 41.5765 80.1465C42.1109 80.3671 42.7682 80.003 43.0446 79.3333Z" fill="#FF67A0"/>
<path d="M45.0484 81.3578C45.35 80.6271 45.1219 79.8397 44.5389 79.5991C43.9559 79.3584 43.2388 79.7557 42.9372 80.4864C42.6356 81.2171 42.8637 82.0045 43.4467 82.2451C44.0296 82.4857 44.7467 82.0885 45.0484 81.3578Z" fill="#FF67A0"/>
<path d="M47.3727 80.6812C47.6045 80.1195 47.4291 79.5141 46.9809 79.3291C46.5326 79.1441 45.9813 79.4494 45.7494 80.0112C45.5176 80.5729 45.693 81.1783 46.1412 81.3633C46.5894 81.5483 47.1408 81.2429 47.3727 80.6812Z" fill="#FF67A0"/>
<path d="M87.2191 66.6928C87.6919 65.1931 86.5517 63.497 84.6723 62.9045C82.793 62.3119 80.8861 63.0472 80.4133 64.5469C79.9404 66.0466 81.0807 67.7427 82.96 68.3353C84.8394 68.9278 86.7462 68.1925 87.2191 66.6928Z" fill="#FF67A0"/>
<path d="M90.1095 65.108C90.2834 64.5566 89.8642 63.9331 89.1732 63.7152C88.4822 63.4973 87.7811 63.7677 87.6073 64.319C87.4334 64.8704 87.8526 65.494 88.5436 65.7119C89.2346 65.9297 89.9357 65.6594 90.1095 65.108Z" fill="#FF67A0"/>
<path d="M90.5193 67.89C90.7089 67.2885 90.2515 66.6082 89.4976 66.3705C88.7437 66.1328 87.9788 66.4277 87.7892 67.0292C87.5995 67.6307 88.057 68.311 88.8109 68.5487C89.5647 68.7864 90.3296 68.4915 90.5193 67.89Z" fill="#FF67A0"/>
<path d="M88.1124 69.3889C88.2582 68.9264 87.9066 68.4034 87.327 68.2207C86.7474 68.0379 86.1594 68.2647 86.0135 68.7272C85.8677 69.1897 86.2194 69.7127 86.7989 69.8955C87.3785 70.0782 87.9666 69.8514 88.1124 69.3889Z" fill="#FF67A0"/>
<g opacity="0.3">
<path d="M51.2481 78.4435C49.5652 82.0065 46.9268 84.6418 43.2502 84.1429C36.8203 83.2714 38.4153 76.6716 39.5997 73.05C38.9081 76.7348 39.2483 80.8989 44.4341 81.6016C47.267 81.9853 49.5278 80.6427 51.2481 78.4431V78.4435Z" fill="#000072"/>
</g>
<path d="M46.4904 60.9308C47.6389 60.6365 48.9203 60.5147 50.1775 60.8553C50.7993 61.031 51.4135 61.3161 51.9351 61.7314C52.1986 61.9345 52.4398 62.1664 52.6556 62.4168C52.8763 62.6642 53.0644 62.9346 53.2335 63.2132C53.3132 63.3546 53.3984 63.4941 53.4666 63.6397L53.5741 63.8566L53.6739 64.0912C53.7964 64.4037 53.8858 64.7138 53.9597 65.0228C54.1004 65.6412 54.1728 66.253 54.2159 66.8614C54.2988 68.0777 54.2541 69.2805 54.1404 70.4737C54.0241 71.6665 53.8153 72.8462 53.5425 74.0117C53.267 75.1763 52.9191 76.3268 52.4741 77.4472C52.0299 78.5668 51.4955 79.6606 50.8248 80.6877C50.1555 81.7125 49.3449 82.68 48.329 83.4528C47.3168 84.2199 46.0685 84.7624 44.7652 84.876C44.1191 84.9396 43.4591 84.8999 42.8399 84.797C42.2185 84.6946 41.5928 84.5247 40.991 84.2546C40.3911 83.9845 39.8136 83.6069 39.3382 83.1142C38.8616 82.6233 38.4948 82.0304 38.2502 81.4105C38.0048 80.7894 37.8741 80.1456 37.8144 79.5118C37.7566 78.8773 37.7663 78.2505 37.8171 77.6356C37.9173 76.4042 38.1893 75.2207 38.526 74.0733C38.694 73.4992 38.8801 72.9337 39.0743 72.3758C39.2677 71.8152 39.4723 71.2731 39.6491 70.743C39.8298 70.2013 39.9947 69.6519 40.1665 69.099C40.3337 68.545 40.5002 67.9848 40.689 67.4212C40.8747 66.8571 41.0873 66.2885 41.367 65.7329C41.6464 65.1808 42.0143 64.6391 42.4997 64.2195C42.6469 64.0924 42.8696 64.1086 42.9968 64.2557C43.1089 64.3856 43.1096 64.5736 43.0072 64.7038L43.0033 64.7088C42.3453 65.546 42.0706 66.6279 41.8039 67.7386C41.5477 68.8548 41.3004 70.011 40.9652 71.1522C40.8011 71.737 40.5984 72.2876 40.4216 72.832C40.242 73.3779 40.0729 73.9227 39.923 74.4701C39.7732 75.0172 39.6402 75.5659 39.5351 76.1156C39.4268 76.6647 39.3401 77.2141 39.2935 77.7604C39.1991 78.8496 39.2619 79.9414 39.6152 80.8776C39.794 81.3431 40.0494 81.7611 40.3807 82.1117C40.7121 82.4615 41.1216 82.7428 41.582 82.9535C42.0428 83.1635 42.5498 83.3079 43.0769 83.3977C43.6063 83.4879 44.1191 83.5191 44.6338 83.4725C45.6617 83.3923 46.633 82.962 47.4736 82.3251C48.3135 81.6802 49.0251 80.8364 49.6223 79.9095C50.2183 78.979 50.7053 77.9638 51.1106 76.9139C51.9159 74.81 52.4263 72.5723 52.6706 70.3207C52.7943 69.1961 52.8501 68.0619 52.79 66.9507C52.7588 66.3967 52.6995 65.8465 52.5885 65.3264C52.535 65.0671 52.4699 64.814 52.387 64.5809L52.3216 64.411L52.241 64.2334C52.1906 64.1124 52.1266 64.0015 52.068 63.8866C51.5807 62.9816 50.8178 62.2801 49.8377 61.9279C49.353 61.7414 48.8225 61.6467 48.2785 61.6008C47.7322 61.5584 47.1774 61.5773 46.6022 61.6239C46.4084 61.6397 46.2385 61.4953 46.2227 61.3015C46.2088 61.1281 46.3228 60.9736 46.4862 60.932L46.4904 60.9308Z" fill="#000072"/>
<path d="M4.61444 52.7835C4.84021 52.3959 5.15344 52.1373 5.48709 51.9447C5.82305 51.7548 6.19137 51.6369 6.57241 51.6014C6.95229 51.5656 7.34681 51.6199 7.69818 51.7737C8.05109 51.9254 8.34852 52.1716 8.57815 52.4525C8.67523 52.5712 8.6579 52.7461 8.53923 52.8432C8.42904 52.9337 8.26993 52.9248 8.16975 52.8274L8.16051 52.8185C7.95477 52.6186 7.71898 52.4675 7.46393 52.3897C7.20965 52.3107 6.93803 52.3034 6.67643 52.3573C6.41483 52.4109 6.16209 52.5245 5.94826 52.679C5.73559 52.8316 5.56106 53.0335 5.48131 53.2215C5.37613 53.4692 5.09026 53.5848 4.84291 53.4796C4.59518 53.3745 4.4796 53.0886 4.58478 52.8412C4.59248 52.8231 4.60134 52.8054 4.61097 52.7885L4.61406 52.7831L4.61444 52.7835Z" fill="#000072"/>
<path d="M7.14673 50.3022C7.50503 50.1936 7.88877 50.1304 8.27635 50.1454C8.66278 50.1578 9.05075 50.2499 9.39519 50.4163C9.74117 50.582 10.0386 50.8154 10.2917 51.0743C10.5514 51.3305 10.7456 51.628 10.9328 51.9219C11.0149 52.051 10.9771 52.2225 10.8477 52.3049C10.7275 52.3816 10.5707 52.3538 10.4828 52.2452L10.4693 52.2282C10.2744 51.9844 10.0771 51.742 9.84172 51.5567C9.61171 51.3668 9.36167 51.213 9.09776 51.1198C8.83384 51.0258 8.55837 50.9927 8.28406 51.0131C8.00936 51.032 7.73735 51.1055 7.47306 51.2177C7.22532 51.3225 6.93984 51.2069 6.83504 50.9591C6.73025 50.7118 6.84583 50.4259 7.09356 50.3211C7.10936 50.3146 7.12515 50.3088 7.14133 50.3038L7.14673 50.3022Z" fill="#000072"/>
<g opacity="0.3">
<path d="M0.442116 38.1168C0.437107 38.0686 0.435181 38.0193 0.426705 37.9719C0.417843 37.9242 0.395112 37.8779 0.377775 37.8325C0.342715 37.74 0.30804 37.6479 0.27298 37.5555C0.193228 37.5774 0.113476 37.5994 0.0337246 37.6213C0.0965243 37.7859 0.158553 37.9504 0.220968 38.1149C0.254487 38.2031 0.291858 38.2898 0.32923 38.3765C0.346182 38.4166 0.36352 38.4566 0.380472 38.4967C0.402432 38.5483 0.431328 38.5849 0.472552 38.6223C0.558083 38.7001 0.705643 38.6481 0.705258 38.526C0.705258 38.4643 0.696397 38.4158 0.670969 38.3591C0.653246 38.3195 0.634753 38.2802 0.616645 38.2409C0.579273 38.1592 0.542287 38.0771 0.501063 37.997C0.420925 37.8398 0.340403 37.683 0.260651 37.5258C0.230215 37.4661 0.146225 37.4487 0.0911305 37.4815C0.0302571 37.5169 0.0163872 37.5913 0.0468239 37.651C0.0911305 37.7392 0.135822 37.8275 0.180129 37.9157C0.203245 37.9612 0.222509 38.012 0.254487 38.0521C0.283382 38.0883 0.31536 38.1222 0.346182 38.1569C0.377004 38.1915 0.447509 38.1657 0.442501 38.1168H0.442116Z" fill="#6B184E"/>
</g>
<path d="M68.6944 0.604129C63.6797 0.719326 59.6458 4.89994 59.7032 9.91583C59.7302 12.2583 60.6321 14.3881 62.0958 15.9974C62.7481 16.7148 62.854 17.775 62.3682 18.6142L60.7708 21.3735L64.9002 18.942C65.3988 18.6485 65.994 18.5625 66.553 18.7105C67.2912 18.9058 68.0652 19.0118 68.8635 19.0156C73.8948 19.0403 78.0554 14.9548 78.1163 9.92392C78.1795 4.70961 73.9118 0.483924 68.694 0.603744L68.6944 0.604129Z" fill="white"/>
<path d="M60.7711 21.9753C60.6162 21.9753 60.4629 21.9156 60.3469 21.8008C60.1527 21.6081 60.1131 21.3088 60.2502 21.0722L61.8476 18.3129C62.2059 17.6938 62.1269 16.9259 61.6507 16.4023C60.0345 14.625 59.1291 12.3238 59.1017 9.92277C59.0405 4.57554 63.3374 0.125238 68.6808 0.00233517C71.3677 -0.0566118 73.8997 0.946643 75.8084 2.83526C77.7174 4.72387 78.7507 7.24395 78.718 9.93124C78.6532 15.2819 74.2573 19.617 68.9089 19.6174C68.8927 19.6174 68.8769 19.6174 68.8607 19.6174C68.0278 19.6132 67.1998 19.5038 66.3992 19.2923C66.0012 19.1871 65.5659 19.2483 65.2056 19.4606L61.0763 21.8921C60.9811 21.948 60.8755 21.9753 60.7711 21.9753ZM68.7082 1.20555C64.0209 1.31304 60.2514 5.21741 60.3049 9.9089C60.3292 12.0152 61.1233 14.0336 62.5411 15.5925C63.3713 16.5056 63.5116 17.8409 62.889 18.9155L62.439 19.6929L64.595 18.4235C65.2303 18.0494 66.0001 17.9419 66.707 18.1287C67.409 18.314 68.1356 18.41 68.8665 18.4138C73.5773 18.4296 77.4574 14.6247 77.5148 9.9166C77.5433 7.55872 76.6367 5.34763 74.9619 3.69095C73.2871 2.03427 71.0745 1.15007 68.7082 1.20555Z" fill="#000072"/>
<g opacity="0.3">
<path d="M78.1036 9.3464C78.0986 9.24546 78.0921 9.1449 78.084 9.04473C78.0798 8.99349 78.0755 8.94225 78.0705 8.89101C78.0605 8.78968 78.0482 8.68874 78.0351 8.58857C78.0293 8.54503 78.0247 8.50149 78.0181 8.45796C77.9985 8.32465 77.9757 8.19212 77.9507 8.06074C77.9395 8.00334 77.9268 7.9467 77.9145 7.89006C77.8979 7.81224 77.881 7.73441 77.8625 7.65736C77.8463 7.58916 77.8289 7.52174 77.8108 7.45393C77.7943 7.39113 77.7765 7.32833 77.7588 7.26592C77.7376 7.19272 77.7168 7.11913 77.6941 7.0467C77.6806 7.00316 77.6652 6.9604 77.6509 6.91725C77.5951 6.7485 77.535 6.58167 77.4695 6.41716C77.4602 6.39366 77.4514 6.37016 77.4421 6.34704C77.4051 6.25612 77.3662 6.16596 77.3262 6.07658C77.3142 6.04961 77.3019 6.02225 77.2896 5.99567C77.2468 5.90205 77.2033 5.8092 77.1574 5.7175C77.1539 5.71018 77.1501 5.70325 77.1466 5.69631C76.9382 5.28022 76.6993 4.88184 76.4327 4.50427C76.8885 5.61502 77.1351 6.83403 77.1193 8.11314C77.0669 12.4116 74.0213 16.0174 69.9975 16.9617C65.7313 17.923 63.2432 17.1336 61.7256 15.648C61.7179 15.6395 60.4658 14.3765 60.4581 14.3681C60.2042 14.0887 60.6091 13.6118 60.3906 13.3028C60.3906 13.3028 60.3906 13.3028 60.3906 13.3032C60.4253 13.3875 60.4619 13.4712 60.4993 13.5544C60.4985 13.5536 60.4981 13.5528 60.4974 13.5521C60.8992 14.4532 61.4405 15.2781 62.0959 15.9982C62.7481 16.7155 62.8541 17.7758 62.3683 18.615L60.7709 21.3743L64.9003 18.9428C65.3988 18.6492 65.9941 18.5633 66.5531 18.7113C67.2913 18.9066 68.0653 19.0126 68.8636 19.0164C69.0085 19.0172 69.1522 19.0137 69.2951 19.0075C69.428 19.0018 69.5602 18.9925 69.6919 18.981C69.7116 18.9794 69.7316 18.9786 69.7517 18.9767C69.8722 18.9655 69.9921 18.9505 70.1115 18.9347C70.1416 18.9309 70.172 18.9278 70.202 18.9236C70.3142 18.9074 70.4255 18.8881 70.5365 18.8681C70.5731 18.8615 70.6097 18.8561 70.6463 18.8488C70.7518 18.8284 70.8566 18.8045 70.961 18.7806C71.0019 18.7714 71.0427 18.7629 71.0832 18.7529C71.1833 18.7282 71.2827 18.7009 71.3818 18.6727C71.4253 18.6604 71.4692 18.6492 71.5124 18.6361C71.6079 18.6076 71.7027 18.5764 71.7971 18.5448C71.8425 18.5298 71.8884 18.5152 71.9335 18.4994C72.0248 18.4674 72.1153 18.4327 72.2055 18.3977C72.2525 18.3795 72.2995 18.3618 72.3457 18.3429C72.4332 18.3075 72.5195 18.2697 72.6054 18.2316C72.6532 18.2104 72.7013 18.1896 72.7487 18.1676C72.8323 18.1291 72.9144 18.0883 72.9968 18.0471C73.0454 18.0228 73.0939 17.9989 73.1421 17.9735C73.2218 17.9319 73.3004 17.8883 73.379 17.8444C73.4276 17.817 73.4765 17.7901 73.5247 17.762C73.6009 17.7176 73.6761 17.6714 73.7508 17.6248C73.7997 17.5944 73.8483 17.5639 73.8964 17.5327C73.9689 17.4857 74.0405 17.4372 74.1114 17.3882C74.16 17.3547 74.2085 17.3212 74.2567 17.2865C74.3256 17.2372 74.3934 17.1864 74.4609 17.1351C74.509 17.0985 74.5568 17.0615 74.6042 17.0242C74.6697 16.9725 74.734 16.9197 74.798 16.8662C74.8454 16.8265 74.8928 16.7864 74.9394 16.7456C75.001 16.6917 75.0623 16.6373 75.1224 16.5819C75.169 16.5391 75.2152 16.4959 75.2611 16.452C75.3193 16.3962 75.3771 16.3399 75.4341 16.2825C75.4795 16.2367 75.5242 16.1904 75.5689 16.1438C75.6236 16.0864 75.678 16.0282 75.7311 15.9693C75.7754 15.9203 75.819 15.871 75.8621 15.8213C75.9134 15.762 75.9646 15.7027 76.0143 15.6422C76.0571 15.5905 76.0987 15.5378 76.1403 15.4854C76.1881 15.4249 76.2354 15.364 76.2821 15.302C76.3233 15.2473 76.363 15.1914 76.403 15.1359C76.4473 15.0739 76.4913 15.0119 76.534 14.9491C76.5733 14.8913 76.6111 14.8327 76.6488 14.7741C76.6897 14.7113 76.7301 14.6482 76.7694 14.5842C76.8068 14.5233 76.8423 14.4617 76.8781 14.4C76.9155 14.3361 76.9524 14.2721 76.9883 14.207C77.0233 14.1435 77.0565 14.0787 77.09 14.0144C77.1235 13.9497 77.1574 13.8849 77.1894 13.8194C77.2217 13.7528 77.2526 13.6854 77.2834 13.6179C77.3134 13.5524 77.3439 13.4873 77.3724 13.4211C77.4021 13.3517 77.4302 13.2816 77.4583 13.2115C77.4849 13.1456 77.5119 13.0797 77.5369 13.0131C77.5639 12.941 77.5885 12.8678 77.614 12.795C77.6371 12.7283 77.661 12.6625 77.6825 12.5954C77.7064 12.5203 77.728 12.4444 77.75 12.3685C77.7692 12.3018 77.79 12.236 77.8078 12.1685C77.8286 12.0903 77.8467 12.0106 77.8655 11.9316C77.8813 11.8657 77.8983 11.8002 77.9125 11.7339C77.9303 11.6515 77.9449 11.5675 77.9603 11.4843C77.9723 11.4199 77.9857 11.3564 77.9965 11.2913C78.0108 11.203 78.022 11.114 78.0339 11.025C78.042 10.9638 78.052 10.9029 78.059 10.8417C78.0701 10.7419 78.0778 10.6409 78.0855 10.5404C78.0898 10.4887 78.0955 10.4375 78.099 10.3855C78.1086 10.2325 78.1144 10.0784 78.1164 9.92316C78.1183 9.7756 78.1156 9.62919 78.1102 9.48317C78.1087 9.43694 78.106 9.39109 78.1036 9.34525V9.3464Z" fill="#000072"/>
</g>
<path d="M66.761 13.9708C66.3319 13.9708 65.8896 13.9288 65.5459 13.643C65.0566 13.2361 65.0211 12.5415 65.2049 11.9894C64.5715 12.1809 63.8961 12.2267 63.151 12.0106C62.9915 11.9643 62.8998 11.7975 62.9461 11.6376C62.9923 11.4777 63.1603 11.3864 63.319 11.4327C64.1192 11.665 64.8366 11.5313 65.5285 11.2269C65.2881 11.126 65.1148 10.9965 64.9992 10.8328C64.9896 10.8189 64.9803 10.805 64.9714 10.7912C64.7923 10.7904 64.6135 10.7769 64.4359 10.7499C63.7031 10.6386 63.198 10.2614 63.0844 9.74091C62.9911 9.31557 63.1876 8.91103 63.3695 8.60589C63.5151 8.36124 63.675 8.12507 63.8472 7.89853C63.6295 6.6826 64.2032 5.37806 65.2381 4.88954C65.6938 4.67455 66.2009 4.61599 66.6405 4.57823C67.119 4.5374 67.6264 4.51235 68.1114 4.69382C68.3507 4.7832 68.561 4.91458 68.7518 5.06407C69.1867 4.75508 69.6487 4.49078 70.0902 4.2496C70.7001 3.91633 71.3512 3.64394 71.9865 3.90477C72.3853 4.06813 72.6503 4.40602 72.863 4.67725C72.959 4.79977 73.0587 4.92652 73.157 5.05829C73.6301 5.15884 74.0535 5.38808 74.3617 5.72943C75.1754 6.63213 74.9824 7.97828 74.4584 8.84746C74.4477 8.86518 74.4369 8.88291 74.4261 8.90024C74.5263 9.02469 74.5694 9.17071 74.5428 9.32366C74.5008 9.56869 74.2974 9.70277 74.2107 9.75979C74.0343 9.87614 73.8528 9.98094 73.6675 10.0753L73.7707 10.1817C74.2338 10.659 74.3737 11.0928 74.1876 11.4708C74.0786 11.6916 73.874 11.8237 73.7519 11.9027C71.6999 13.2292 69.2245 13.9635 66.7807 13.9705H66.7614L66.761 13.9708ZM66.0421 11.6503C65.9504 11.7975 65.8687 11.9439 65.8063 12.098C65.6588 12.4617 65.6542 12.9506 65.9308 13.1806C66.1319 13.3479 66.4567 13.376 66.7788 13.3694C67.4931 13.3675 68.2101 13.3005 68.9174 13.1718C68.5244 13.045 68.1692 12.8166 67.8988 12.4648C67.6325 12.1184 67.505 11.7289 67.4653 11.3352C67.107 11.4169 66.7691 11.4488 66.449 11.4319C66.3145 11.5089 66.1793 11.5821 66.0417 11.6507L66.0421 11.6503ZM68.1654 11.7185C68.2158 11.8518 68.2848 11.9794 68.3757 12.098C68.9571 12.8547 70.1884 12.8254 71.0438 12.3596C71.7276 11.9867 72.2543 11.3964 72.5032 10.7288C72.4049 10.7973 72.3075 10.8644 72.2119 10.9303C71.5273 11.4014 70.7509 11.9354 69.8301 12.0657C69.2846 12.1423 68.6554 12.0318 68.1658 11.7189L68.1654 11.7185ZM73.2028 10.4614C73.1789 10.5797 73.1485 10.6968 73.1108 10.8124C72.9771 11.2223 72.7586 11.6095 72.4731 11.9524C72.7994 11.7817 73.1169 11.5968 73.4248 11.398C73.5195 11.3367 73.6147 11.2712 73.6474 11.205C73.7075 11.0832 73.5977 10.8686 73.3385 10.6012L73.2024 10.461L73.2028 10.4614ZM68.3048 11.0678C68.6689 11.4026 69.2495 11.5398 69.7458 11.4693C70.3025 11.3907 70.8253 11.1179 71.3081 10.8108C71.0345 10.8586 70.7652 10.8967 70.5051 10.9303C69.8398 11.0154 69.1062 11.084 68.3526 11.0485C68.3368 11.0551 68.3206 11.0616 68.3048 11.0678ZM65.8302 10.6995C65.861 10.7106 65.8915 10.7211 65.9227 10.7311C65.9354 10.7103 65.9481 10.6898 65.9608 10.669C65.9177 10.6798 65.8741 10.6902 65.8306 10.6995H65.8302ZM68.1211 10.4306C68.1634 10.434 68.2062 10.4371 68.2486 10.4398C68.4362 10.3585 68.6304 10.2645 68.8315 10.1582C68.8851 10.1297 68.9386 10.1011 68.9918 10.0719C68.9136 10.0803 68.835 10.0873 68.756 10.0923C68.6893 10.0969 68.6231 10.1 68.5572 10.1019C68.4173 10.1821 68.2775 10.2676 68.138 10.355C68.1322 10.3801 68.1268 10.4051 68.1214 10.4306H68.1211ZM70.7987 9.64613C70.4107 9.92353 70.0089 10.1828 69.5959 10.4217C69.8822 10.3993 70.1611 10.3678 70.4285 10.3335C71.1274 10.2441 71.8917 10.1169 72.6234 9.8642L71.975 9.19575C71.5889 9.35333 71.1975 9.50898 70.7983 9.64575L70.7987 9.64613ZM67.0288 10.2406C67.0716 10.2526 67.1147 10.2637 67.1575 10.2745C67.1675 10.268 67.1779 10.261 67.1883 10.2545C67.2403 10.2202 67.2927 10.1855 67.3455 10.1508C67.3474 10.1131 67.3505 10.0749 67.3548 10.0368C67.2496 10.1092 67.1402 10.1774 67.0288 10.2406ZM64.0749 8.61437C64.0094 8.71262 63.9466 8.8124 63.8861 8.91373C63.7532 9.13642 63.6241 9.39378 63.6719 9.61223C63.7409 9.927 64.1585 10.0988 64.5261 10.1547C64.6251 10.1697 64.7245 10.1797 64.8239 10.1851C64.83 10.0183 64.8651 9.86343 64.9013 9.74207C64.5488 9.41189 64.2675 9.03047 64.0749 8.61399V8.61437ZM65.6102 9.55405C65.8067 9.702 66.0229 9.83453 66.2552 9.94819C66.2675 9.94357 66.2791 9.93894 66.2914 9.93393C66.3234 9.83685 66.3519 9.73821 66.3785 9.63766C66.1535 9.52131 65.945 9.38453 65.757 9.2285C65.7046 9.33522 65.6557 9.44387 65.6102 9.55367V9.55405ZM69.2091 8.09001C68.9163 8.52306 68.6608 8.98115 68.4451 9.46082C68.4424 9.4666 68.4401 9.47199 68.4374 9.47777C69.228 9.04125 70.2 8.61976 71.2356 8.43329L70.1908 7.35568C70.1553 7.34874 70.1199 7.34219 70.0848 7.33603C69.7754 7.56642 69.483 7.81839 69.2095 8.08963L69.2091 8.09001ZM73.1516 9.01043C73.1863 9.13488 73.2132 9.2624 73.2317 9.39147C73.3323 9.29708 73.4294 9.19922 73.5215 9.0975C73.3986 9.06244 73.2753 9.03355 73.1516 9.01005V9.01043ZM67.0774 9.2859C67.1417 9.30863 67.2072 9.32944 67.2738 9.3487C67.6495 9.03663 67.9596 8.64943 68.1665 8.20829C68.3291 7.86077 68.3792 7.57798 68.3203 7.34373C68.3072 7.29134 68.284 7.23856 68.2536 7.18924C68.0459 7.18346 67.8383 7.17961 67.6302 7.17768C67.3879 7.68547 67.2796 8.24874 67.1648 8.84322C67.1363 8.99001 67.1082 9.13796 67.077 9.2859H67.0774ZM64.4987 8.04339C64.5095 8.07961 64.5218 8.11583 64.5345 8.15166C64.6625 8.50649 64.8686 8.83667 65.1379 9.1291C65.1922 9.01005 65.25 8.89292 65.3113 8.77734C65.3082 8.77349 65.3051 8.76964 65.302 8.76578C64.9872 8.36779 64.8559 7.94053 64.9283 7.56719C64.778 7.71976 64.6343 7.8785 64.4983 8.04378L64.4987 8.04339ZM66.056 8.69258C66.1947 8.81779 66.3484 8.92991 66.5156 9.02777C66.5353 8.92914 66.5545 8.82974 66.5738 8.72918C66.6351 8.41133 66.6971 8.08808 66.7826 7.76908C66.5098 8.05071 66.266 8.36124 66.056 8.69258ZM73.3878 8.44408C73.5623 8.48184 73.7364 8.52961 73.9098 8.58894C73.9206 8.5716 73.9314 8.55427 73.9418 8.53693C74.3679 7.83034 74.495 6.77777 73.9133 6.13282C73.8512 6.06424 73.7819 6.00144 73.706 5.94557C73.7472 6.0338 73.785 6.12396 73.8181 6.21604C74.0701 6.91454 74.0084 7.63539 73.6528 8.14434C73.5742 8.25684 73.4845 8.35585 73.3874 8.44446L73.3878 8.44408ZM66.5149 7.18654C65.9624 7.21775 65.6345 7.36069 65.5382 7.61227C65.4611 7.81416 65.5551 8.04763 65.6511 8.21176C65.9019 7.84074 66.192 7.49592 66.5145 7.18616L66.5149 7.18654ZM72.4485 7.79181C72.5394 7.88389 72.6249 7.98291 72.7047 8.08963C72.7239 8.11544 72.7428 8.14164 72.7609 8.16784C72.9224 8.0642 73.0576 7.9463 73.1601 7.79913C73.4039 7.45046 73.4386 6.93496 73.2529 6.41985C73.1504 6.1359 72.994 5.87045 72.8168 5.61578C72.5456 5.58688 72.2578 5.60961 71.9769 5.6886C71.5789 5.80033 71.184 6.013 70.7825 6.33239C71.335 6.19215 71.8817 6.26882 72.235 6.7246C72.4573 7.01124 72.5305 7.4023 72.4488 7.79181H72.4485ZM71.4433 7.78372L71.6983 8.04648C71.7137 8.02297 71.728 7.99909 71.7419 7.97481C71.6471 7.90508 71.5477 7.84151 71.4437 7.78372H71.4433ZM68.9074 7.21313C68.924 7.28248 68.9351 7.35337 68.9409 7.4258C68.991 7.35799 69.0419 7.29057 69.0939 7.22391C69.0311 7.22006 68.9691 7.21659 68.9074 7.21351V7.21313ZM70.9293 6.91916C71.2584 7.02087 71.5751 7.15456 71.8648 7.33218C71.8474 7.24588 71.8135 7.16381 71.7588 7.09331C71.5735 6.85405 71.2557 6.83517 70.9293 6.91955V6.91916ZM67.2003 5.15075C67.0307 5.15075 66.8585 5.16308 66.6902 5.17772C66.2848 5.2124 65.8587 5.26094 65.4935 5.43354C64.847 5.73868 64.4378 6.46955 64.4009 7.24665C65.2943 6.30735 66.4208 5.59035 67.6564 5.19005C67.5092 5.16154 67.3559 5.15114 67.2003 5.15114V5.15075ZM68.5264 6.59553C68.6188 6.59861 68.7109 6.60247 68.803 6.60632C69.0307 6.61595 69.2676 6.63021 69.5081 6.65332L68.9367 6.06424C68.867 5.99219 68.7949 5.91783 68.7202 5.84463C68.5175 6.01223 68.3268 6.19215 68.1561 6.38748C68.2929 6.42948 68.4181 6.50268 68.5264 6.59592V6.59553ZM67.95 5.72828C67.2738 5.93517 66.6316 6.24455 66.0464 6.63868C66.2313 6.60285 66.4378 6.5832 66.6659 6.57935C66.8643 6.57588 67.0639 6.57434 67.2634 6.57434C67.2688 6.57087 67.2742 6.56702 67.2796 6.56355C67.4692 6.25456 67.6973 5.97832 67.95 5.72828ZM69.2068 5.47978C69.2622 5.53564 69.3158 5.59112 69.3686 5.64544L69.96 6.25533C70.576 5.6624 71.1851 5.28637 71.8131 5.10991C71.9946 5.05906 72.1772 5.02631 72.3579 5.0109C72.1872 4.79399 71.9942 4.55936 71.7561 4.4615C71.3547 4.29698 70.8557 4.51621 70.3765 4.77781C69.99 4.98894 69.5874 5.21818 69.2064 5.47978H69.2068Z" fill="#000072"/>
</g>
<defs>
<clipPath id="clip0_0_864">
<rect width="112.97" height="96" fill="white"/>
</clipPath>
</defs>
</svg>
