<svg width="114" height="63" viewBox="0 0 114 63" fill="none" xmlns="http://www.w3.org/2000/svg">
<path d="M70.2903 2.47183C70.0715 2.64564 69.8875 2.86306 69.721 3.10231C69.3835 3.61998 68.9893 4.11142 68.5776 4.58103L64.9168 0.00012207L60.3655 3.61518C60.8191 4.00375 61.2553 4.37051 61.7571 4.68512C61.9796 4.82931 62.1977 5.01269 62.3895 5.25264C63.4529 6.58329 63.0468 8.58182 61.4068 9.34956C60.5453 9.74859 59.4794 9.66807 58.6897 9.08282C58.2317 8.73344 57.9223 8.3016 57.7573 7.82648C57.5618 7.26855 57.3007 6.76275 57.0396 6.25695L52.4463 9.9053L56.1071 14.4862C55.556 14.7813 55.0119 14.9995 54.4304 15.2118C53.9538 15.3764 53.5206 15.6848 53.1702 16.1414C52.605 16.9113 52.4849 17.9696 52.9025 18.8503C53.7118 20.4897 55.7165 20.8944 57.0512 19.8342C57.27 19.6604 57.454 19.443 57.6205 19.2037C57.921 18.7511 58.3103 18.2279 58.722 17.7583L62.3827 22.3392L66.9585 18.669C66.5049 18.2805 66.0688 17.9137 65.5669 17.5991C65.3444 17.4549 65.1263 17.2715 64.9346 17.0316C63.8712 15.7009 64.2772 13.7024 65.9172 12.9347C66.7788 12.5356 67.8447 12.6161 68.6343 13.2014C69.0924 13.5508 69.4017 13.9826 69.5668 14.4577C69.7623 15.0157 70.0234 15.5215 70.2845 16.0273L74.8577 12.3948L71.1969 7.81392C71.748 7.51881 72.2947 7.2629 72.8762 7.05061C73.3528 6.88604 73.786 6.57763 74.1364 6.12096C74.7016 5.35109 74.8218 4.29285 74.4216 3.43396C73.6297 1.81636 71.625 1.41165 70.2903 2.47183Z" fill="#616263"/>
<path d="M42.4795 14.4871C42.6539 14.7052 42.8719 14.8886 43.1119 15.0546C43.6312 15.391 44.1241 15.784 44.5951 16.1944L40 19.8443L43.626 24.3816C44.0157 23.9294 44.3836 23.4945 44.6992 22.9942C44.8439 22.7723 45.0278 22.5549 45.2685 22.3637C46.6033 21.3035 48.608 21.7082 49.378 23.3432C49.7782 24.2021 49.6974 25.2648 49.1103 26.0521C48.7598 26.5088 48.3267 26.8172 47.8501 26.9817C47.2904 27.1767 46.7831 27.437 46.2757 27.6973L49.9191 32.2565L54.4923 28.624C54.7883 29.1735 55.045 29.7184 55.2579 30.2982C55.423 30.7733 55.7323 31.2052 56.1904 31.5546C56.9626 32.118 58.0241 32.2377 58.9075 31.8213C60.552 31.0144 60.958 29.0158 59.8946 27.6851C59.7203 27.467 59.5022 27.2836 59.2622 27.1176C58.743 26.7812 58.2675 26.41 57.7965 25.9996L62.383 22.339L58.7222 17.7581C58.3324 18.2103 57.9955 18.6301 57.6708 19.1281C57.5262 19.35 57.3422 19.5674 57.1015 19.7586C55.7667 20.8188 53.7443 20.4813 52.9743 18.8463C52.5741 17.9874 52.6549 16.9248 53.242 16.1375C53.5924 15.6808 54.0256 15.3724 54.5022 15.2078C55.0618 15.0129 55.6 14.7463 56.1073 14.486L52.4465 9.905L47.838 13.5829C47.5421 13.0335 47.2854 12.4885 47.0725 11.9088C46.9074 11.4336 46.5981 11.0018 46.14 10.6524C45.3678 10.089 44.3063 9.96925 43.4448 10.3683C41.8222 11.1578 41.4161 13.1564 42.4795 14.4871Z" fill="#7BC143"/>
<path d="M3.08064 53.9308C2.07911 53.9308 1.31212 53.6476 0.779667 53.0813C0.259889 52.5149 0 51.7158 0 50.6838V43.5856C0 42.5535 0.259889 41.7544 0.779667 41.188C1.31212 40.6217 2.07911 40.3385 3.08064 40.3385C4.08216 40.3385 4.84281 40.6217 5.36259 41.188C5.89504 41.7544 6.16127 42.5535 6.16127 43.5856V44.9825H4.18358V43.4534C4.18358 42.6353 3.83495 42.2263 3.13768 42.2263C2.44042 42.2263 2.09179 42.6353 2.09179 43.4534V50.8348C2.09179 51.6403 2.44042 52.043 3.13768 52.043C3.83495 52.043 4.18358 51.6403 4.18358 50.8348V48.8148H6.16127V50.6838C6.16127 51.7158 5.89504 52.5149 5.36259 53.0813C4.84281 53.6476 4.08216 53.9308 3.08064 53.9308Z" fill="#616263"/>
<path d="M11.6145 53.9308C10.5876 53.9308 9.8016 53.6413 9.25647 53.0624C8.71133 52.4835 8.43877 51.6654 8.43877 50.6082V43.6611C8.43877 42.6039 8.71133 41.7858 9.25647 41.2069C9.8016 40.628 10.5876 40.3385 11.6145 40.3385C12.6414 40.3385 13.4274 40.628 13.9725 41.2069C14.5176 41.7858 14.7902 42.6039 14.7902 43.6611V50.6082C14.7902 51.6654 14.5176 52.4835 13.9725 53.0624C13.4274 53.6413 12.6414 53.9308 11.6145 53.9308ZM11.6145 52.043C12.3371 52.043 12.6984 51.6088 12.6984 50.7404V43.5289C12.6984 42.6605 12.3371 42.2263 11.6145 42.2263C10.8919 42.2263 10.5306 42.6605 10.5306 43.5289V50.7404C10.5306 51.6088 10.8919 52.043 11.6145 52.043Z" fill="#616263"/>
<path d="M20.3123 53.9308C19.2981 53.9308 18.5248 53.6476 17.9924 53.0813C17.4599 52.5024 17.1937 51.678 17.1937 50.6082V43.6611C17.1937 42.5913 17.4599 41.7732 17.9924 41.2069C18.5248 40.628 19.2981 40.3385 20.3123 40.3385C21.3265 40.3385 22.0999 40.628 22.6323 41.2069C23.1648 41.7732 23.431 42.5913 23.431 43.6611V44.7938H21.4533V43.5289C21.4533 42.6605 21.092 42.2263 20.3694 42.2263C19.6468 42.2263 19.2855 42.6605 19.2855 43.5289V50.7593C19.2855 51.6151 19.6468 52.043 20.3694 52.043C21.092 52.043 21.4533 51.6151 21.4533 50.7593V48.173H20.4074V46.2851H23.431V50.6082C23.431 51.678 23.1648 52.5024 22.6323 53.0813C22.0999 53.6476 21.3265 53.9308 20.3123 53.9308Z" fill="#616263"/>
<path d="M25.915 40.5273H28.5393L30.574 48.4373H30.612V40.5273H32.4756V53.742H30.3268L27.8166 44.0953H27.7786V53.742H25.915V40.5273Z" fill="#616263"/>
<path d="M35.1713 40.5273H37.2631V53.742H35.1713V40.5273Z" fill="#616263"/>
<path d="M41.6061 42.4151H39.4192V40.5273H45.8848V42.4151H43.6979V53.742H41.6061V42.4151Z" fill="#616263"/>
<path d="M48.0385 40.5273H50.1303V53.742H48.0385V40.5273Z" fill="#616263"/>
<path d="M52.2864 40.5273H54.3972L55.7664 50.7781H55.8044L57.1736 40.5273H59.0942L57.0785 53.742H54.3021L52.2864 40.5273Z" fill="#616263"/>
<path d="M61.24 40.5273H66.9448V42.4151H63.3318V45.9076H66.2032V47.7954H63.3318V51.8542H66.9448V53.742H61.24V40.5273Z" fill="#616263"/>
<path d="M69.2892 40.5273H72.4459C73.5235 40.5273 74.3095 40.779 74.8039 41.2824C75.2983 41.7732 75.5455 42.5347 75.5455 43.5667V44.0953C75.5455 44.7749 75.4314 45.3286 75.2032 45.7565C74.9877 46.1845 74.6518 46.4928 74.1954 46.6816V46.7193C75.2349 47.0717 75.7547 47.9905 75.7547 49.4756V50.6082C75.7547 51.6277 75.4822 52.408 74.937 52.9491C74.4046 53.4777 73.6186 53.742 72.579 53.742H69.2892V40.5273ZM72.1987 45.9076C72.617 45.9076 72.9276 45.8006 73.1305 45.5866C73.346 45.3727 73.4537 45.014 73.4537 44.5106V43.7743C73.4537 43.2961 73.365 42.95 73.1875 42.736C73.0227 42.5221 72.7565 42.4151 72.3888 42.4151H71.381V45.9076H72.1987ZM72.579 51.8542C72.9467 51.8542 73.2192 51.7598 73.3967 51.571C73.5742 51.3697 73.6629 51.0299 73.6629 50.5516V49.4C73.6629 48.7959 73.5552 48.3806 73.3396 48.1541C73.1368 47.915 72.7945 47.7954 72.3128 47.7954H71.381V51.8542H72.579Z" fill="#7BC143"/>
<path d="M81.142 53.9308C80.1151 53.9308 79.3291 53.6413 78.784 53.0624C78.2388 52.4835 77.9663 51.6654 77.9663 50.6082V43.6611C77.9663 42.6039 78.2388 41.7858 78.784 41.2069C79.3291 40.628 80.1151 40.3385 81.142 40.3385C82.1688 40.3385 82.9548 40.628 83.5 41.2069C84.0451 41.7858 84.3177 42.6039 84.3177 43.6611V50.6082C84.3177 51.6654 84.0451 52.4835 83.5 53.0624C82.9548 53.6413 82.1688 53.9308 81.142 53.9308ZM81.142 52.043C81.8646 52.043 82.2259 51.6088 82.2259 50.7404V43.5289C82.2259 42.6605 81.8646 42.2263 81.142 42.2263C80.4193 42.2263 80.058 42.6605 80.058 43.5289V50.7404C80.058 51.6088 80.4193 52.043 81.142 52.043Z" fill="#7BC143"/>
<path d="M88.4344 42.4151H86.2475V40.5273H92.7131V42.4151H90.5262V53.742H88.4344V42.4151Z" fill="#7BC143"/>
<path d="M94.8668 40.5273H96.9586V53.742H94.8668V40.5273Z" fill="#7BC143"/>
<path d="M102.614 53.9308C101.612 53.9308 100.845 53.6476 100.313 53.0813C99.793 52.5149 99.5331 51.7158 99.5331 50.6838V43.5856C99.5331 42.5535 99.793 41.7544 100.313 41.188C100.845 40.6217 101.612 40.3385 102.614 40.3385C103.615 40.3385 104.376 40.6217 104.896 41.188C105.428 41.7544 105.694 42.5535 105.694 43.5856V44.9825H103.717V43.4534C103.717 42.6353 103.368 42.2263 102.671 42.2263C101.973 42.2263 101.625 42.6353 101.625 43.4534V50.8348C101.625 51.6403 101.973 52.043 102.671 52.043C103.368 52.043 103.717 51.6403 103.717 50.8348V48.8148H105.694V50.6838C105.694 51.7158 105.428 52.5149 104.896 53.0813C104.376 53.6476 103.615 53.9308 102.614 53.9308Z" fill="#7BC143"/>
<path d="M110.843 53.9308C109.829 53.9308 109.062 53.6476 108.542 53.0813C108.023 52.5024 107.763 51.678 107.763 50.6082V49.8531H109.74V50.7593C109.74 51.6151 110.102 52.043 110.824 52.043C111.179 52.043 111.445 51.9423 111.623 51.7409C111.813 51.527 111.908 51.1872 111.908 50.7215C111.908 50.1678 111.781 49.6832 111.528 49.2679C111.274 48.84 110.805 48.3303 110.121 47.7388C109.259 46.9836 108.656 46.304 108.314 45.6999C107.972 45.0832 107.801 44.391 107.801 43.6233C107.801 42.5787 108.067 41.7732 108.599 41.2069C109.132 40.628 109.905 40.3385 110.919 40.3385C111.921 40.3385 112.675 40.628 113.182 41.2069C113.702 41.7732 113.962 42.5913 113.962 43.6611V44.2085H111.984V43.5289C111.984 43.0758 111.896 42.7486 111.718 42.5473C111.541 42.3333 111.281 42.2263 110.938 42.2263C110.241 42.2263 109.892 42.6479 109.892 43.4912C109.892 43.9694 110.019 44.4162 110.273 44.8315C110.539 45.2468 111.014 45.7503 111.699 46.3418C112.574 47.0969 113.176 47.7828 113.506 48.3995C113.835 49.0162 114 49.7398 114 50.5705C114 51.6528 113.727 52.4835 113.182 53.0624C112.65 53.6413 111.87 53.9308 110.843 53.9308Z" fill="#7BC143"/>
<path d="M0.182397 61.0001L1.98357 56.7081H2.01777L3.81324 61.0001H3.18055L1.83537 57.5745L2.22867 57.318L0.723889 61.0001H0.182397ZM1.23688 59.4383H2.77016L2.95256 59.9171H1.07728L1.23688 59.4383ZM4.9314 58.6404L4.9827 59.3243L4.9542 59.2331C5.015 59.0888 5.1024 58.9672 5.2164 58.8684C5.3342 58.7658 5.4558 58.6879 5.5812 58.6347C5.71039 58.5777 5.82249 58.5492 5.91749 58.5492L5.88899 59.0736C5.71039 59.0622 5.5527 59.0964 5.4159 59.1761C5.2829 59.2559 5.1765 59.3623 5.0967 59.4953C5.0207 59.6283 4.9827 59.7708 4.9827 59.9228V61.0001H4.45831V58.6404H4.9314ZM6.82934 57.603H7.35943V58.6518H8.00922V59.0679H7.35943V61.0001H6.82934V59.0679H6.39615V58.6518H6.82934V57.603ZM8.64975 58.6404H9.17984V61.0001H8.64975V58.6404ZM8.60985 57.7854C8.60985 57.7018 8.64215 57.6315 8.70675 57.5745C8.77515 57.5175 8.84925 57.489 8.92905 57.489C9.00885 57.489 9.07915 57.5175 9.13994 57.5745C9.20454 57.6315 9.23684 57.7018 9.23684 57.7854C9.23684 57.8728 9.20454 57.945 9.13994 58.002C9.07915 58.0552 9.00885 58.0818 8.92905 58.0818C8.84925 58.0818 8.77515 58.0533 8.70675 57.9963C8.64215 57.9393 8.60985 57.869 8.60985 57.7854ZM10.2908 61.0001V59.1135H9.8861V58.6404H10.2908V57.6429C10.2908 57.3009 10.3668 57.0387 10.5188 56.8563C10.6746 56.6739 10.9026 56.5827 11.2028 56.5827C11.2826 56.5827 11.37 56.5941 11.465 56.6169C11.5638 56.6397 11.6493 56.6777 11.7215 56.7309L11.4992 57.1128C11.465 57.0786 11.427 57.0558 11.3852 57.0444C11.3472 57.0292 11.3054 57.0216 11.2598 57.0216C11.1192 57.0216 11.0109 57.0691 10.9349 57.1641C10.8589 57.2591 10.8209 57.4206 10.8209 57.6486V58.6404H11.4935V59.1135H10.8209V61.0001H10.2908ZM11.9495 58.6404H12.4796V61.0001H11.9495V58.6404ZM11.9096 57.7854C11.9096 57.7018 11.9438 57.6334 12.0122 57.5802C12.0806 57.5232 12.1547 57.4947 12.2345 57.4947C12.3105 57.4947 12.3808 57.5232 12.4454 57.5802C12.51 57.6334 12.5423 57.7037 12.5423 57.7911C12.5423 57.8785 12.51 57.9507 12.4454 58.0077C12.3808 58.0609 12.3105 58.0875 12.2345 58.0875C12.1547 58.0875 12.0806 58.059 12.0122 58.002C11.9438 57.945 11.9096 57.8728 11.9096 57.7854ZM15.3186 60.7835C15.2122 60.8671 15.0849 60.9336 14.9367 60.983C14.7885 61.0324 14.6403 61.0571 14.4921 61.0571C14.2337 61.0571 14.0076 61.0058 13.8138 60.9032C13.62 60.8006 13.468 60.6581 13.3578 60.4757C13.2514 60.2895 13.1982 60.071 13.1982 59.8202C13.1982 59.5694 13.2552 59.3509 13.3692 59.1647C13.487 58.9786 13.639 58.8361 13.8252 58.7373C14.0152 58.6347 14.2185 58.5834 14.4351 58.5834C14.6251 58.5834 14.7942 58.61 14.9424 58.6632C15.0944 58.7164 15.2236 58.7886 15.33 58.8798L15.0678 59.2217C14.9994 59.1685 14.9158 59.1211 14.817 59.0793C14.7182 59.0375 14.6061 59.0166 14.4807 59.0166C14.3439 59.0166 14.2166 59.0527 14.0988 59.1249C13.9848 59.1932 13.8936 59.2882 13.8252 59.4098C13.7606 59.5314 13.7283 59.6682 13.7283 59.8202C13.7283 59.9646 13.7625 60.0995 13.8309 60.2249C13.8993 60.3465 13.9943 60.4434 14.1159 60.5156C14.2375 60.584 14.3762 60.6182 14.532 60.6182C14.6346 60.6182 14.7277 60.603 14.8113 60.5726C14.8987 60.5422 14.9766 60.5004 15.045 60.4472L15.3186 60.7835ZM16.0029 58.6404H16.533V61.0001H16.0029V58.6404ZM15.963 57.7854C15.963 57.7018 15.9953 57.6315 16.0599 57.5745C16.1283 57.5175 16.2024 57.489 16.2822 57.489C16.362 57.489 16.4323 57.5175 16.4931 57.5745C16.5577 57.6315 16.59 57.7018 16.59 57.7854C16.59 57.8728 16.5577 57.945 16.4931 58.002C16.4323 58.0552 16.362 58.0818 16.2822 58.0818C16.2024 58.0818 16.1283 58.0533 16.0599 57.9963C15.9953 57.9393 15.963 57.869 15.963 57.7854ZM18.4305 61.0571C18.2101 61.0571 18.0087 61.0096 17.8263 60.9146C17.6477 60.8196 17.5052 60.6809 17.3988 60.4985C17.2962 60.3123 17.2449 60.0862 17.2449 59.8202C17.2449 59.558 17.3 59.3319 17.4102 59.142C17.5204 58.9482 17.6667 58.8 17.8491 58.6974C18.0353 58.5948 18.2386 58.5435 18.459 58.5435C18.6794 58.5435 18.8656 58.5948 19.0176 58.6974C19.1696 58.7962 19.2855 58.914 19.3653 59.0508L19.3311 59.142L19.3824 58.6404H19.8726V61.0001H19.3425V60.3845L19.3995 60.5213C19.3843 60.5593 19.3501 60.6087 19.2969 60.6695C19.2475 60.7265 19.1791 60.7854 19.0917 60.8462C19.0081 60.907 18.9112 60.9583 18.801 61.0001C18.6908 61.0381 18.5673 61.0571 18.4305 61.0571ZM18.573 60.6182C18.706 60.6182 18.8257 60.5935 18.9321 60.5441C19.0385 60.4947 19.1259 60.4263 19.1943 60.3389C19.2665 60.2477 19.3159 60.1394 19.3425 60.014V59.5523C19.3121 59.4383 19.2589 59.3395 19.1829 59.2559C19.1069 59.1685 19.0157 59.1021 18.9093 59.0565C18.8029 59.0071 18.6851 58.9824 18.5559 58.9824C18.4153 58.9824 18.2861 59.0166 18.1683 59.085C18.0505 59.1533 17.9555 59.2483 17.8833 59.3699C17.8149 59.4915 17.7807 59.634 17.7807 59.7974C17.7807 59.9494 17.8168 60.0881 17.889 60.2135C17.9612 60.3389 18.0581 60.4377 18.1797 60.5099C18.3013 60.5821 18.4324 60.6182 18.573 60.6182ZM20.7899 56.5884H21.32V61.0001H20.7899V56.5884ZM24.1717 56.8791H24.7246V61.0001H24.1717V56.8791ZM26.2504 58.6404L26.296 59.216L26.2732 59.1249C26.3492 58.9501 26.4727 58.8114 26.6437 58.7088C26.8147 58.6024 27.0123 58.5492 27.2365 58.5492C27.4607 58.5492 27.6431 58.6157 27.7837 58.7487C27.9281 58.8779 28.0022 59.047 28.006 59.2559V61.0001H27.4702V59.444C27.4664 59.3148 27.4284 59.2103 27.3562 59.1306C27.2878 59.047 27.1795 59.0052 27.0313 59.0052C26.8945 59.0052 26.771 59.0432 26.6608 59.1192C26.5506 59.1951 26.4632 59.2996 26.3986 59.4326C26.3378 59.5656 26.3074 59.7195 26.3074 59.8943V61.0001H25.7773V58.6404H26.2504ZM29.1559 57.603H29.686V58.6518H30.3357V59.0679H29.686V61.0001H29.1559V59.0679H28.7227V58.6518H29.1559V57.603ZM32.0707 61.0571C31.8009 61.0571 31.5691 61.0039 31.3753 60.8975C31.1815 60.7873 31.0314 60.6391 30.925 60.4529C30.8224 60.2629 30.7711 60.0463 30.7711 59.8031C30.7711 59.5713 30.83 59.3604 30.9478 59.1704C31.0656 58.9805 31.2233 58.8285 31.4209 58.7145C31.6185 58.6005 31.8389 58.5435 32.0821 58.5435C32.3936 58.5435 32.652 58.6347 32.8572 58.8171C33.0624 58.9995 33.2011 59.2502 33.2733 59.5694L31.3297 60.2534L31.2043 59.9399L32.8002 59.3585L32.6862 59.4326C32.6406 59.3072 32.5646 59.1989 32.4582 59.1078C32.3518 59.0128 32.2132 58.9653 32.0422 58.9653C31.8978 58.9653 31.7686 59.0014 31.6546 59.0736C31.5406 59.142 31.4513 59.2369 31.3867 59.3585C31.3221 59.4801 31.2898 59.6188 31.2898 59.7746C31.2898 59.938 31.324 60.0824 31.3924 60.2078C31.4608 60.3294 31.5539 60.4263 31.6717 60.4985C31.7933 60.5669 31.9301 60.6011 32.0821 60.6011C32.1847 60.6011 32.2834 60.5821 32.3784 60.5441C32.4772 60.5061 32.5684 60.4567 32.652 60.3959L32.8971 60.7892C32.7793 60.869 32.6463 60.9336 32.4981 60.983C32.3537 61.0324 32.2113 61.0571 32.0707 61.0571ZM33.9376 56.5884H34.4676V61.0001H33.9376V56.5884ZM35.3848 56.5884H35.9149V61.0001H35.3848V56.5884ZM36.832 58.6404H37.3621V61.0001H36.832V58.6404ZM36.7921 57.7854C36.7921 57.7018 36.8244 57.6315 36.889 57.5745C36.9574 57.5175 37.0315 57.489 37.1113 57.489C37.1911 57.489 37.2614 57.5175 37.3222 57.5745C37.3868 57.6315 37.4191 57.7018 37.4191 57.7854C37.4191 57.8728 37.3868 57.945 37.3222 58.002C37.2614 58.0552 37.1911 58.0818 37.1113 58.0818C37.0315 58.0818 36.9574 58.0533 36.889 57.9963C36.8244 57.9393 36.7921 57.869 36.7921 57.7854ZM39.4136 62.1686C39.2388 62.1686 39.0849 62.1477 38.9519 62.1059C38.8189 62.0679 38.6973 62.0128 38.5871 61.9406C38.4807 61.8684 38.3781 61.7867 38.2793 61.6955L38.5871 61.3364C38.7125 61.4542 38.8398 61.5454 38.969 61.61C39.0982 61.6746 39.2426 61.7069 39.4022 61.7069C39.5808 61.7069 39.7309 61.6765 39.8525 61.6157C39.9779 61.5587 40.0729 61.477 40.1375 61.3706C40.2021 61.268 40.2344 61.1483 40.2344 61.0115L40.2401 60.3731L40.2857 60.4757C40.2173 60.6391 40.0938 60.7778 39.9152 60.8918C39.7366 61.002 39.52 61.0571 39.2654 61.0571C39.0488 61.0571 38.8493 61.002 38.6669 60.8918C38.4883 60.7816 38.3439 60.6334 38.2337 60.4472C38.1273 60.2572 38.0741 60.0444 38.0741 59.8088C38.0741 59.5618 38.1311 59.3452 38.2451 59.159C38.3591 58.9691 38.5092 58.819 38.6954 58.7088C38.8816 58.5986 39.0849 58.5435 39.3053 58.5435C39.5143 58.5435 39.7043 58.5872 39.8753 58.6746C40.0501 58.7582 40.1774 58.8665 40.2572 58.9995L40.2287 59.0964L40.2857 58.6404H40.7701V61.0172C40.7701 61.23 40.715 61.4238 40.6048 61.5986C40.4946 61.7734 40.3389 61.9121 40.1375 62.0147C39.9361 62.1173 39.6948 62.1686 39.4136 62.1686ZM38.6042 59.7974C38.6042 59.9494 38.6403 60.0881 38.7125 60.2135C38.7847 60.3389 38.8816 60.4377 39.0032 60.5099C39.1286 60.5821 39.2673 60.6182 39.4193 60.6182C39.5599 60.6182 39.6853 60.5935 39.7955 60.5441C39.9095 60.4909 40.0045 60.4206 40.0805 60.3332C40.1565 60.242 40.2097 60.1375 40.2401 60.0197V59.5523C40.2059 59.4383 40.1489 59.3395 40.0691 59.2559C39.9893 59.1685 39.8943 59.1021 39.7841 59.0565C39.6739 59.0071 39.5523 58.9824 39.4193 58.9824C39.2673 58.9824 39.1286 59.0166 39.0032 59.085C38.8816 59.1533 38.7847 59.2502 38.7125 59.3756C38.6403 59.4972 38.6042 59.6378 38.6042 59.7974ZM42.7803 61.0571C42.5105 61.0571 42.2787 61.0039 42.0849 60.8975C41.8911 60.7873 41.741 60.6391 41.6346 60.4529C41.532 60.2629 41.4807 60.0463 41.4807 59.8031C41.4807 59.5713 41.5396 59.3604 41.6574 59.1704C41.7752 58.9805 41.9329 58.8285 42.1305 58.7145C42.3281 58.6005 42.5485 58.5435 42.7917 58.5435C43.1032 58.5435 43.3616 58.6347 43.5668 58.8171C43.772 58.9995 43.9107 59.2502 43.9829 59.5694L42.0393 60.2534L41.9139 59.9399L43.5098 59.3585L43.3958 59.4326C43.3502 59.3072 43.2742 59.1989 43.1678 59.1078C43.0615 59.0128 42.9228 58.9653 42.7518 58.9653C42.6074 58.9653 42.4782 59.0014 42.3642 59.0736C42.2502 59.142 42.1609 59.2369 42.0963 59.3585C42.0317 59.4801 41.9994 59.6188 41.9994 59.7746C41.9994 59.938 42.0336 60.0824 42.102 60.2078C42.1704 60.3294 42.2635 60.4263 42.3813 60.4985C42.5029 60.5669 42.6397 60.6011 42.7917 60.6011C42.8943 60.6011 42.9931 60.5821 43.0881 60.5441C43.1868 60.5061 43.278 60.4567 43.3616 60.3959L43.6067 60.7892C43.4889 60.869 43.3559 60.9336 43.2077 60.983C43.0634 61.0324 42.9209 61.0571 42.7803 61.0571ZM45.1202 58.6404L45.1658 59.216L45.143 59.1249C45.219 58.9501 45.3425 58.8114 45.5135 58.7088C45.6845 58.6024 45.8821 58.5492 46.1063 58.5492C46.3305 58.5492 46.5129 58.6157 46.6535 58.7487C46.7979 58.8779 46.872 59.047 46.8758 59.2559V61.0001H46.34V59.444C46.3362 59.3148 46.2982 59.2103 46.226 59.1306C46.1576 59.047 46.0493 59.0052 45.9011 59.0052C45.7643 59.0052 45.6408 59.0432 45.5306 59.1192C45.4204 59.1951 45.333 59.2996 45.2684 59.4326C45.2076 59.5656 45.1772 59.7195 45.1772 59.8943V61.0001H44.6472V58.6404H45.1202ZM49.7129 60.7835C49.6065 60.8671 49.4792 60.9336 49.331 60.983C49.1828 61.0324 49.0346 61.0571 48.8864 61.0571C48.628 61.0571 48.4019 61.0058 48.2081 60.9032C48.0143 60.8006 47.8623 60.6581 47.7521 60.4757C47.6457 60.2895 47.5925 60.071 47.5925 59.8202C47.5925 59.5694 47.6495 59.3509 47.7635 59.1647C47.8813 58.9786 48.0333 58.8361 48.2195 58.7373C48.4095 58.6347 48.6128 58.5834 48.8294 58.5834C49.0194 58.5834 49.1885 58.61 49.3367 58.6632C49.4887 58.7164 49.6179 58.7886 49.7243 58.8798L49.4621 59.2217C49.3937 59.1685 49.3101 59.1211 49.2113 59.0793C49.1125 59.0375 49.0004 59.0166 48.875 59.0166C48.7382 59.0166 48.6109 59.0527 48.4931 59.1249C48.3791 59.1932 48.2879 59.2882 48.2195 59.4098C48.1549 59.5314 48.1226 59.6682 48.1226 59.8202C48.1226 59.9646 48.1568 60.0995 48.2252 60.2249C48.2936 60.3465 48.3886 60.4434 48.5102 60.5156C48.6318 60.584 48.7705 60.6182 48.9263 60.6182C49.0289 60.6182 49.122 60.603 49.2056 60.5726C49.293 60.5422 49.3709 60.5004 49.4393 60.4472L49.7129 60.7835ZM51.4916 61.0571C51.2218 61.0571 50.99 61.0039 50.7962 60.8975C50.6024 60.7873 50.4523 60.6391 50.3459 60.4529C50.2433 60.2629 50.192 60.0463 50.192 59.8031C50.192 59.5713 50.2509 59.3604 50.3687 59.1704C50.4865 58.9805 50.6442 58.8285 50.8418 58.7145C51.0394 58.6005 51.2598 58.5435 51.503 58.5435C51.8145 58.5435 52.0729 58.6347 52.2781 58.8171C52.4833 58.9995 52.622 59.2502 52.6942 59.5694L50.7506 60.2534L50.6252 59.9399L52.2211 59.3585L52.1071 59.4326C52.0615 59.3072 51.9855 59.1989 51.8791 59.1078C51.7727 59.0128 51.634 58.9653 51.4631 58.9653C51.3187 58.9653 51.1895 59.0014 51.0755 59.0736C50.9615 59.142 50.8722 59.2369 50.8076 59.3585C50.743 59.4801 50.7107 59.6188 50.7107 59.7746C50.7107 59.938 50.7449 60.0824 50.8133 60.2078C50.8817 60.3294 50.9748 60.4263 51.0926 60.4985C51.2142 60.5669 51.351 60.6011 51.503 60.6011C51.6055 60.6011 51.7043 60.5821 51.7993 60.5441C51.8981 60.5061 51.9893 60.4567 52.0729 60.3959L52.318 60.7892C52.2002 60.869 52.0672 60.9336 51.919 60.983C51.7746 61.0324 51.6321 61.0571 51.4916 61.0571ZM55.3557 61.0001V59.1135H54.951V58.6404H55.3557V57.6429C55.3557 57.3009 55.4317 57.0387 55.5837 56.8563C55.7395 56.6739 55.9675 56.5827 56.2677 56.5827C56.3475 56.5827 56.4349 56.5941 56.5299 56.6169C56.6287 56.6397 56.7142 56.6777 56.7864 56.7309L56.5641 57.1128C56.5299 57.0786 56.4919 57.0558 56.4501 57.0444C56.4083 57.0292 56.3665 57.0216 56.3247 57.0216C56.1841 57.0216 56.0758 57.0691 55.9998 57.1641C55.9238 57.2591 55.8858 57.4206 55.8858 57.6486V58.6404H56.6325V59.1135H55.8858V61.0001H55.3557ZM56.9884 59.7974C56.9884 59.5618 57.0435 59.349 57.1537 59.159C57.2677 58.9691 57.4235 58.819 57.6211 58.7088C57.8187 58.5986 58.0429 58.5435 58.2937 58.5435C58.5521 58.5435 58.7782 58.5986 58.972 58.7088C59.1658 58.819 59.3159 58.9691 59.4223 59.159C59.5287 59.349 59.5819 59.5618 59.5819 59.7974C59.5819 60.033 59.5287 60.2477 59.4223 60.4415C59.3159 60.6315 59.1639 60.7816 58.9663 60.8918C58.7725 61.002 58.5464 61.0571 58.288 61.0571C58.0372 61.0571 57.813 61.0058 57.6154 60.9032C57.4216 60.7968 57.2677 60.6505 57.1537 60.4643C57.0435 60.2743 56.9884 60.052 56.9884 59.7974ZM57.5185 59.8031C57.5185 59.9551 57.5527 60.0938 57.6211 60.2192C57.6895 60.3408 57.7807 60.4377 57.8947 60.5099C58.0125 60.5821 58.1417 60.6182 58.2823 60.6182C58.4305 60.6182 58.5616 60.5821 58.6756 60.5099C58.7934 60.4377 58.8846 60.3408 58.9492 60.2192C59.0138 60.0938 59.0461 59.9551 59.0461 59.8031C59.0461 59.6511 59.0138 59.5143 58.9492 59.3927C58.8846 59.2673 58.7934 59.1685 58.6756 59.0964C58.5616 59.0204 58.4305 58.9824 58.2823 58.9824C58.1379 58.9824 58.0068 59.0204 57.889 59.0964C57.775 59.1723 57.6838 59.273 57.6154 59.3984C57.5508 59.52 57.5185 59.6549 57.5185 59.8031ZM60.7727 58.6404L60.824 59.3243L60.7955 59.2331C60.8563 59.0888 60.9437 58.9672 61.0577 58.8684C61.1755 58.7658 61.2971 58.6879 61.4225 58.6347C61.5517 58.5777 61.6638 58.5492 61.7588 58.5492L61.7303 59.0736C61.5517 59.0622 61.394 59.0964 61.2572 59.1761C61.1242 59.2559 61.0178 59.3623 60.938 59.4953C60.862 59.6283 60.824 59.7708 60.824 59.9228V61.0001H60.2997V58.6404H60.7727ZM63.9669 61.0001L65.7681 56.7081H65.8023L67.5977 61.0001H66.965L65.6199 57.5745L66.0131 57.318L64.5084 61.0001H63.9669ZM65.0214 59.4383H66.5546L66.737 59.9171H64.8618L65.0214 59.4383ZM68.9895 61.0913C68.7767 61.0913 68.6 61.0267 68.4594 60.8975C68.3226 60.7645 68.2504 60.5935 68.2428 60.3845V58.6404H68.7729V60.1964C68.7805 60.3256 68.8166 60.4301 68.8812 60.5099C68.9496 60.5897 69.056 60.6315 69.2004 60.6353C69.3334 60.6353 69.4512 60.5973 69.5538 60.5213C69.6602 60.4415 69.7457 60.3351 69.8103 60.2021C69.8749 60.0653 69.9072 59.9114 69.9072 59.7404V58.6404H70.4373V61.0001H69.9528L69.9072 60.4187L69.9357 60.5213C69.8901 60.6315 69.8198 60.7303 69.7248 60.8177C69.6336 60.9013 69.5253 60.9678 69.3999 61.0172C69.2745 61.0666 69.1377 61.0913 68.9895 61.0913ZM71.5824 57.603H72.1125V58.6518H72.7622V59.0679H72.1125V61.0001H71.5824V59.0679H71.1492V58.6518H71.5824V57.603ZM73.4028 58.6404H73.9329V61.0001H73.4028V58.6404ZM73.3629 57.7854C73.3629 57.7018 73.3952 57.6315 73.4598 57.5745C73.5282 57.5175 73.6023 57.489 73.6821 57.489C73.7619 57.489 73.8322 57.5175 73.893 57.5745C73.9576 57.6315 73.9899 57.7018 73.9899 57.7854C73.9899 57.8728 73.9576 57.945 73.893 58.002C73.8322 58.0552 73.7619 58.0818 73.6821 58.0818C73.6023 58.0818 73.5282 58.0533 73.4598 57.9963C73.3952 57.9393 73.3629 57.869 73.3629 57.7854ZM75.5112 61.0457C75.344 61.0457 75.1806 61.0172 75.021 60.9602C74.8652 60.8994 74.736 60.8101 74.6334 60.6923L74.8557 60.3845C74.9545 60.4795 75.0552 60.5517 75.1578 60.6011C75.2642 60.6467 75.3687 60.6695 75.4713 60.6695C75.5473 60.6695 75.6176 60.66 75.6822 60.641C75.7468 60.622 75.7981 60.5916 75.8361 60.5498C75.8779 60.5042 75.8988 60.4434 75.8988 60.3674C75.8988 60.2838 75.8703 60.2173 75.8133 60.1679C75.7601 60.1185 75.6898 60.0786 75.6024 60.0482C75.5188 60.0178 75.4295 59.9893 75.3345 59.9627C75.1407 59.8981 74.9925 59.8088 74.8899 59.6948C74.7873 59.5808 74.736 59.4421 74.736 59.2787C74.736 59.1534 74.7664 59.0375 74.8272 58.9311C74.8918 58.8209 74.9849 58.7316 75.1065 58.6632C75.2319 58.5948 75.3858 58.5606 75.5682 58.5606C75.7316 58.5606 75.8779 58.5815 76.0071 58.6233C76.1363 58.6613 76.2579 58.7259 76.3719 58.8171L76.161 59.1477C76.0926 59.0755 76.0109 59.0223 75.9159 58.9881C75.8209 58.9539 75.7354 58.9349 75.6594 58.9311C75.5948 58.9273 75.5321 58.9368 75.4713 58.9596C75.4143 58.9824 75.3668 59.0147 75.3288 59.0565C75.2908 59.0983 75.2718 59.1477 75.2718 59.2046C75.2718 59.2844 75.2984 59.349 75.3516 59.3984C75.4048 59.4478 75.4732 59.4877 75.5568 59.5181C75.6442 59.5447 75.7297 59.5732 75.8133 59.6036C75.9311 59.6378 76.0356 59.6834 76.1268 59.7404C76.218 59.7974 76.2902 59.8677 76.3434 59.9513C76.4004 60.0349 76.4289 60.1394 76.4289 60.2648C76.4289 60.4054 76.3947 60.5365 76.3263 60.6581C76.2617 60.7759 76.161 60.8709 76.0242 60.9431C75.8912 61.0115 75.7202 61.0457 75.5112 61.0457ZM77.6443 58.6404L77.6899 59.1704L77.6671 59.1249C77.7545 58.9463 77.878 58.8057 78.0376 58.7031C78.201 58.6005 78.3872 58.5492 78.5962 58.5492C78.7291 58.5492 78.8469 58.5701 78.9495 58.6119C79.0521 58.6537 79.1357 58.7145 79.2003 58.7943C79.2687 58.8703 79.3124 58.9653 79.3314 59.0793L79.3029 59.0964C79.3941 58.9254 79.5195 58.7924 79.6791 58.6974C79.8425 58.5986 80.0135 58.5492 80.1921 58.5492C80.4239 58.5492 80.6063 58.6157 80.7393 58.7487C80.8761 58.8779 80.9464 59.047 80.9502 59.2559V61.0001H80.4201V59.444C80.4163 59.3224 80.3859 59.2217 80.3289 59.142C80.2757 59.0584 80.1807 59.0128 80.0439 59.0052C79.9071 59.0052 79.7836 59.047 79.6734 59.1306C79.567 59.2141 79.4834 59.3224 79.4226 59.4554C79.3618 59.5846 79.3295 59.7252 79.3257 59.8772V61.0001H78.7956V59.444C78.7918 59.3224 78.7595 59.2217 78.6988 59.142C78.6418 59.0584 78.5449 59.0128 78.4081 59.0052C78.2675 59.0052 78.144 59.047 78.0376 59.1306C77.9312 59.2141 77.8476 59.3224 77.7868 59.4554C77.7298 59.5884 77.7013 59.7309 77.7013 59.8829V61.0001H77.1712V58.6404H77.6443ZM83.8093 56.8791H84.3622V61.0001H83.8093V56.8791ZM85.888 58.6404L85.9336 59.216L85.9108 59.1249C85.9868 58.9501 86.1103 58.8114 86.2813 58.7088C86.4523 58.6024 86.6499 58.5492 86.8741 58.5492C87.0983 58.5492 87.2807 58.6157 87.4213 58.7487C87.5657 58.8779 87.6398 59.047 87.6436 59.2559V61.0001H87.1078V59.444C87.104 59.3148 87.066 59.2103 86.9938 59.1306C86.9254 59.047 86.8171 59.0052 86.6689 59.0052C86.5321 59.0052 86.4086 59.0432 86.2984 59.1192C86.1882 59.1951 86.1008 59.2996 86.0362 59.4326C85.9754 59.5656 85.945 59.7195 85.945 59.8943V61.0001H85.4149V58.6404H85.888ZM88.7934 57.603H89.3235V58.6518H89.9733V59.0679H89.3235V61.0001H88.7934V59.0679H88.3602V58.6518H88.7934V57.603ZM91.7082 61.0571C91.4384 61.0571 91.2066 61.0039 91.0128 60.8975C90.819 60.7873 90.6689 60.6391 90.5625 60.4529C90.4599 60.2629 90.4086 60.0463 90.4086 59.8031C90.4086 59.5713 90.4675 59.3604 90.5853 59.1704C90.7031 58.9805 90.8608 58.8285 91.0584 58.7145C91.256 58.6005 91.4764 58.5435 91.7196 58.5435C92.0312 58.5435 92.2896 58.6347 92.4948 58.8171C92.7 58.9995 92.8387 59.2502 92.9109 59.5694L90.9672 60.2534L90.8418 59.9399L92.4378 59.3585L92.3238 59.4326C92.2782 59.3072 92.2022 59.1989 92.0958 59.1078C91.9894 59.0128 91.8507 58.9653 91.6797 58.9653C91.5353 58.9653 91.4061 59.0014 91.2921 59.0736C91.1781 59.142 91.0888 59.2369 91.0242 59.3585C90.9596 59.4801 90.9273 59.6188 90.9273 59.7746C90.9273 59.938 90.9615 60.0824 91.0299 60.2078C91.0983 60.3294 91.1914 60.4263 91.3092 60.4985C91.4308 60.5669 91.5676 60.6011 91.7196 60.6011C91.8222 60.6011 91.921 60.5821 92.016 60.5441C92.1148 60.5061 92.206 60.4567 92.2896 60.3959L92.5347 60.7892C92.4169 60.869 92.2839 60.9336 92.1357 60.983C91.9913 61.0324 91.8488 61.0571 91.7082 61.0571ZM94.0482 58.6404L94.0995 59.3243L94.071 59.2331C94.1318 59.0888 94.2192 58.9672 94.3332 58.8684C94.451 58.7658 94.5726 58.6879 94.698 58.6347C94.8272 58.5777 94.9393 58.5492 95.0343 58.5492L95.0058 59.0736C94.8272 59.0622 94.6695 59.0964 94.5327 59.1761C94.3997 59.2559 94.2933 59.3623 94.2135 59.4953C94.1375 59.6283 94.0995 59.7708 94.0995 59.9228V61.0001H93.5751V58.6404H94.0482ZM96.6757 61.0685L95.3648 58.6404H95.9918L96.8809 60.5156L96.556 60.5042L97.3711 58.6404H97.9639L96.7042 61.0685H96.6757ZM99.5734 61.0571C99.3036 61.0571 99.0718 61.0039 98.8781 60.8975C98.6843 60.7873 98.5342 60.6391 98.4278 60.4529C98.3252 60.2629 98.2739 60.0463 98.2739 59.8031C98.2739 59.5713 98.3328 59.3604 98.4506 59.1704C98.5684 58.9805 98.7261 58.8285 98.9237 58.7145C99.1212 58.6005 99.3416 58.5435 99.5848 58.5435C99.8964 58.5435 100.155 58.6347 100.36 58.8171C100.565 58.9995 100.704 59.2502 100.776 59.5694L98.8325 60.2534L98.7071 59.9399L100.303 59.3585L100.189 59.4326C100.143 59.3072 100.067 59.1989 99.961 59.1078C99.8546 59.0128 99.7159 58.9653 99.5449 58.9653C99.4005 58.9653 99.2713 59.0014 99.1573 59.0736C99.0433 59.142 98.9541 59.2369 98.8895 59.3585C98.8249 59.4801 98.7926 59.6188 98.7926 59.7746C98.7926 59.938 98.8268 60.0824 98.8952 60.2078C98.9636 60.3294 99.0566 60.4263 99.1744 60.4985C99.296 60.5669 99.4328 60.6011 99.5848 60.6011C99.6874 60.6011 99.7862 60.5821 99.8812 60.5441C99.98 60.5061 100.071 60.4567 100.155 60.3959L100.4 60.7892C100.282 60.869 100.149 60.9336 100.001 60.983C99.8565 61.0324 99.714 61.0571 99.5734 61.0571ZM101.913 58.6404L101.959 59.216L101.936 59.1249C102.012 58.9501 102.136 58.8114 102.307 58.7088C102.478 58.6024 102.675 58.5492 102.9 58.5492C103.124 58.5492 103.306 58.6157 103.447 58.7487C103.591 58.8779 103.665 59.047 103.669 59.2559V61.0001H103.133V59.444C103.129 59.3148 103.091 59.2103 103.019 59.1306C102.951 59.047 102.843 59.0052 102.694 59.0052C102.558 59.0052 102.434 59.0432 102.324 59.1192C102.214 59.1951 102.126 59.2996 102.062 59.4326C102.001 59.5656 101.97 59.7195 101.97 59.8943V61.0001H101.44V58.6404H101.913ZM104.819 57.603H105.349V58.6518H105.999V59.0679H105.349V61.0001H104.819V59.0679H104.386V58.6518H104.819V57.603ZM106.639 58.6404H107.169V61.0001H106.639V58.6404ZM106.599 57.7854C106.599 57.7018 106.632 57.6315 106.696 57.5745C106.765 57.5175 106.839 57.489 106.919 57.489C106.998 57.489 107.069 57.5175 107.129 57.5745C107.194 57.6315 107.226 57.7018 107.226 57.7854C107.226 57.8728 107.194 57.945 107.129 58.002C107.069 58.0552 106.998 58.0818 106.919 58.0818C106.839 58.0818 106.765 58.0533 106.696 57.9963C106.632 57.9393 106.599 57.869 106.599 57.7854ZM107.881 59.7974C107.881 59.5618 107.936 59.349 108.047 59.159C108.161 58.9691 108.316 58.819 108.514 58.7088C108.712 58.5986 108.936 58.5435 109.187 58.5435C109.445 58.5435 109.671 58.5986 109.865 58.7088C110.059 58.819 110.209 58.9691 110.315 59.159C110.422 59.349 110.475 59.5618 110.475 59.7974C110.475 60.033 110.422 60.2477 110.315 60.4415C110.209 60.6315 110.057 60.7816 109.859 60.8918C109.665 61.002 109.439 61.0571 109.181 61.0571C108.93 61.0571 108.706 61.0058 108.508 60.9032C108.315 60.7968 108.161 60.6505 108.047 60.4643C107.936 60.2743 107.881 60.052 107.881 59.7974ZM108.411 59.8031C108.411 59.9551 108.446 60.0938 108.514 60.2192C108.582 60.3408 108.674 60.4377 108.788 60.5099C108.905 60.5821 109.035 60.6182 109.175 60.6182C109.323 60.6182 109.455 60.5821 109.569 60.5099C109.686 60.4377 109.777 60.3408 109.842 60.2192C109.907 60.0938 109.939 59.9551 109.939 59.8031C109.939 59.6511 109.907 59.5143 109.842 59.3927C109.777 59.2673 109.686 59.1685 109.569 59.0964C109.455 59.0204 109.323 58.9824 109.175 58.9824C109.031 58.9824 108.9 59.0204 108.782 59.0964C108.668 59.1723 108.577 59.273 108.508 59.3984C108.444 59.52 108.411 59.6549 108.411 59.8031ZM111.666 58.6404L111.711 59.216L111.688 59.1249C111.764 58.9501 111.888 58.8114 112.059 58.7088C112.23 58.6024 112.428 58.5492 112.652 58.5492C112.876 58.5492 113.058 58.6157 113.199 58.7487C113.343 58.8779 113.417 59.047 113.421 59.2559V61.0001H112.885V59.444C112.882 59.3148 112.844 59.2103 112.771 59.1306C112.703 59.047 112.595 59.0052 112.447 59.0052C112.31 59.0052 112.186 59.0432 112.076 59.1192C111.966 59.1951 111.878 59.2996 111.814 59.4326C111.753 59.5656 111.723 59.7195 111.723 59.8943V61.0001H111.193V58.6404H111.666Z" fill="#616263"/>
</svg>
