<svg width="32" height="32" viewBox="0 0 32 32" fill="none" xmlns="http://www.w3.org/2000/svg">
<path d="M13.7331 28C13.9562 28.4059 14.2843 28.7444 14.6831 28.9802C15.0818 29.216 15.5365 29.3404 15.9997 29.3404C16.463 29.3404 16.9177 29.216 17.3164 28.9802C17.7151 28.7444 18.0432 28.4059 18.2664 28M8 10.6666C8 8.54489 8.84286 6.51006 10.3431 5.00977C11.8434 3.50948 13.8783 2.66663 16 2.66663C18.1217 2.66663 20.1566 3.50948 21.6569 5.00977C23.1571 6.51006 24 8.54489 24 10.6666C24 20 28 22.6666 28 22.6666H4C4 22.6666 8 20 8 10.6666Z" stroke="#101319" stroke-width="2" stroke-linecap="round" stroke-linejoin="round"/>
</svg>
