<svg width="61" height="64" viewBox="0 0 61 64" fill="none" xmlns="http://www.w3.org/2000/svg">
<g clip-path="url(#clip0_0_709)">
<path d="M2.156 27.8624C2.56933 27.9506 2.91274 28.0895 3.18856 28.2343C5.1934 29.2901 7.51347 29.6264 9.69445 29.0177C14.8961 27.5647 20.0383 22.5381 19.1054 18.6422C18.8208 17.4536 18.3735 16.385 17.7843 15.4874C15.6998 12.3135 11.8282 11.2838 7.01611 14.6667C0.843703 19.0078 1.43657 24.8924 1.43657 24.8924C1.14483 25.2379 0.943122 25.5471 0.812911 25.8234C0.22761 27.0705 1.1417 27.6451 2.15574 27.8627L2.156 27.8624Z" fill="#CE753D"/>
<path d="M2.15622 27.8624C2.56956 27.9506 2.91297 28.0895 3.18878 28.2343C5.19363 29.2901 7.51369 29.6264 9.69468 29.0177C14.8964 27.5647 20.0386 22.5381 19.1057 18.6422C18.821 17.4536 18.3737 16.385 17.7845 15.4874L17.4797 15.4973C17.4797 15.4973 20.7679 19.7484 13.5929 24.2661C7.99879 27.7873 3.00978 27.3346 0.813399 25.8229C0.228098 27.07 1.14219 27.6446 2.15622 27.8622V27.8624Z" fill="#BF622E"/>
<path d="M7.46281 29.95C5.9175 29.95 4.35261 29.5589 2.89575 28.7917C2.62671 28.65 2.33341 28.5443 2.02393 28.4778C0.992934 28.2562 0.32387 27.7753 0.0887582 27.0872C-0.147919 26.3944 0.0892801 25.5873 0.793833 24.6854C0.750255 23.429 0.936309 18.1735 6.65441 14.1526C10.4282 11.4988 13.2519 11.7097 14.9561 12.3539C17.2551 13.2229 18.9903 15.4615 19.7173 18.4961C20.2071 20.5408 19.2985 22.9144 17.1585 25.1791C15.2228 27.2278 12.4959 28.8893 9.8643 29.6238C9.08172 29.8422 8.27488 29.9503 7.46281 29.9503V29.95ZM12.6447 13.1986C11.0359 13.1986 9.24872 13.8672 7.37853 15.1823C1.60276 19.2439 2.04141 24.6048 2.06281 24.831C2.07873 24.9994 2.02654 25.169 1.91746 25.2984C1.20482 26.1433 1.23431 26.5462 1.27997 26.6804C1.36061 26.9168 1.73767 27.1287 2.28827 27.2471C2.70969 27.3377 3.11155 27.4828 3.48183 27.678C5.41857 28.698 7.56484 28.9582 9.52533 28.4112C14.2816 27.0838 19.3536 22.3831 18.4927 18.7894C17.8646 16.1671 16.4132 14.2508 14.5107 13.5318C13.9225 13.3095 13.2981 13.1991 12.6444 13.1991L12.6447 13.1986Z" fill="#661407"/>
<g opacity="0.39">
<path d="M5.18486 20.8858C5.96405 22.0987 7.71186 19.6795 10.2396 18.0559C12.7672 16.4323 15.1172 16.2188 14.338 15.0059C13.5589 13.7931 10.8784 14.1263 8.35091 15.7499C5.8234 17.3735 4.40594 19.6729 5.18486 20.8856V20.8858Z" fill="#F4EFF0"/>
</g>
<path d="M46.9453 36.3259C45.9016 37.5237 44.7195 39.4103 44.6373 43.0309C44.4481 51.3786 41.8047 59.3361 32.0454 62.4753C26.4207 64.2823 19.5108 62.0995 15.3435 57.4469C15.3435 57.4456 15.3422 57.4456 15.3422 57.4456C15.0865 57.1585 14.8399 56.8624 14.6051 56.557C13.4478 55.0553 12.5671 53.3357 12.0739 51.4399C11.8221 50.477 10.6857 49.659 11.4163 48.64C11.4124 48.6426 11.4059 48.6478 11.4046 48.6478C11.3224 46.8329 11.2467 45.506 11.6799 43.6285C12.4262 40.3941 14.1367 37.4702 16.4408 34.9377C17.088 34.2279 17.8669 33.2859 18.4488 32.4287C19.4834 30.9074 20.3915 29.1617 21.0426 27.4577C21.3923 26.5392 21.6728 25.4302 21.8567 24.5651C24.7389 11.0547 30.1013 0.235889 45.7254 1.41536C47.4803 0.897386 49.6096 0.508577 51.2744 1.06439C52.0886 1.33708 52.3613 1.65935 52.5465 2.17863C52.6131 2.37042 52.6692 2.58962 52.7357 2.84404C52.8571 3.30983 52.6405 3.98828 52.5374 4.38101C52.9536 5.29171 52.5909 4.07701 53.1232 5.32172C53.9648 7.28924 54.0431 6.22067 54.9707 9.44204C57.6311 18.6704 53.5342 28.7742 46.9453 36.3259Z" fill="#D89C53"/>
<path d="M46.9955 36.1869C53.5009 28.3157 57.7848 18.9452 54.9539 9.00027C54.3808 7.82367 53.8589 6.46701 53.0114 5.38252C53.0343 5.27475 53.0949 5.09914 53.1064 5.00128C53.2026 4.178 53.367 3.34141 52.7763 2.66947C52.2818 2.10661 51.9851 1.94404 51.101 1.77704C49.5789 1.48948 47.7189 1.80809 46.142 2.25927C46.0661 2.25666 45.999 2.24674 45.9387 2.24309C43.2844 2.08809 40.6762 2.22874 38.1088 2.85083C37.4757 3.00427 36.9606 3.1684 36.3923 3.39386C33.5485 4.52192 31.2736 6.16745 29.2481 8.49299C28.8298 8.97339 28.5005 9.40239 28.071 10.0323C24.9754 14.5725 23.3518 20.0169 22.2091 25.437C21.8574 27.1057 21.0923 29.2593 20.2635 30.8738C19.9556 31.4739 19.5224 32.196 19.1639 32.7638C18.5319 33.7653 17.5118 35.0032 16.7825 35.8168C12.9171 40.129 10.6999 45.5363 12.1199 51.263C14.3168 59.799 24.4146 64.7763 32.0854 62.2992C41.8387 59.1498 44.492 51.2231 44.6736 42.8433C44.7525 39.2091 45.964 37.4345 46.9953 36.1869H46.9955ZM53.0289 11.8837C52.5725 11.9649 52.1163 12.0236 51.6539 12.0512C51.6513 12.0512 51.6479 12.052 51.6456 12.052C51.245 12.0327 50.9885 11.729 51.0412 11.3292C51.196 10.1518 51.3463 8.99009 51.4034 7.80436C52.1315 9.10204 52.6299 10.453 53.0289 11.8837ZM48.9101 18.9512C49.23 18.0431 49.551 17.1499 49.8803 16.2285C50.3161 15.008 51.2075 14.2727 52.4931 14.1106C52.823 14.0691 53.1058 14.0887 53.426 14.0441C53.4534 14.3275 53.4871 14.5769 53.5043 14.8648C53.6074 16.5904 53.498 18.2792 53.2337 19.9918C52.8423 20.0641 52.4595 20.1601 52.0644 20.2149C51.3601 20.313 50.6874 20.4795 49.9607 20.4847C49.1249 20.491 48.6264 19.7564 48.9101 18.9514V18.9512ZM48.9226 22.4925C50.231 22.4212 51.4671 22.3602 52.7536 22.1731C52.59 22.715 52.4743 23.203 52.2797 23.7432C51.6508 25.4868 50.9739 27.1582 50.0228 28.7932C49.4792 29.7277 48.5401 30.3286 47.4318 30.3699C46.5384 30.4033 45.6887 30.4192 44.7976 30.2932C43.675 30.1345 43.2392 29.0865 43.806 28.1203C43.9226 27.9214 44.0659 27.7542 44.2019 27.5678C45.0544 26.4006 45.7709 25.2094 46.5303 23.96C47.0574 23.0926 47.9021 22.548 48.9224 22.4925H48.9226ZM43.3895 7.3965C44.2099 6.70082 45.1282 6.12439 45.9186 5.54535C46.5564 5.07826 47.0216 4.93839 47.7144 4.71502C47.722 4.71268 47.7259 4.71346 47.7327 4.71294C48.2303 4.66727 48.5769 5.01929 48.555 5.51613C48.5161 6.39473 48.4005 7.27829 48.2807 8.14515C48.1142 9.34915 47.8561 10.5179 47.5714 11.6964C47.4699 11.6645 47.3554 11.646 47.2578 11.6136C46.9225 11.5025 46.6161 11.408 46.2813 11.2726C46.1068 11.2021 45.8268 11.0873 45.6613 11.0109C45.112 10.7564 44.6423 10.4861 44.1358 10.1711C43.8986 10.0237 43.6531 9.83634 43.4143 9.6816C43.3997 9.6722 43.3864 9.65838 43.3731 9.64637C42.6466 8.9961 42.6939 7.98624 43.3895 7.39624V7.3965ZM46.0308 13.0264C46.1015 13.059 46.1733 13.0781 46.2432 13.1146C46.7059 13.3552 46.9329 13.8424 46.7599 14.34C46.2164 15.902 45.5922 17.4309 44.844 18.8943C44.4385 19.6873 43.6398 20.0881 42.7917 19.866C40.7193 19.3241 38.8885 18.4285 37.0608 17.3479C37.0394 17.3354 37.0217 17.3268 37.0003 17.3075C36.0168 16.4059 36.2707 15.4422 36.8215 14.2273C36.8228 14.2244 36.4935 14.6808 36.9319 14.0717C37.3703 13.4627 39.2512 11.0536 40.2514 10.1657C40.5254 9.92245 41.1418 9.78728 41.5144 10.1236C42.8781 11.3553 44.3723 12.2634 46.0311 13.0267L46.0308 13.0264ZM27.3563 37.7233C28.4642 38.2285 29.5307 38.6322 30.6627 39.11C31.9126 39.6376 32.5358 40.7158 32.5105 42.0618C32.5003 42.5996 32.4397 43.1043 32.417 43.6241C32.3649 44.8234 32.3061 46.0078 32.1023 47.1915C31.9894 47.848 31.3707 48.2248 30.7368 48.0033C29.5563 47.5904 28.4528 47.0576 27.355 46.4517C26.2569 45.846 25.1891 45.1522 24.1717 44.4022C23.8035 44.1308 23.6628 43.6603 23.8285 43.229C24.4846 41.5227 25.2084 39.8555 26.0082 38.2092C26.2566 37.698 26.8404 37.4879 27.3563 37.7231V37.7233ZM27.9022 34.3511C28.5874 32.8776 29.352 31.4557 30.0529 29.9918C30.163 29.7616 30.2522 29.5364 30.384 29.3052C30.7013 28.7494 31.231 28.5652 31.8359 28.7857C31.8396 28.787 31.8443 28.7878 31.8471 28.7893C32.9183 29.3344 34.0153 29.7647 35.1204 30.2519C35.7159 30.5144 35.9312 31.1585 35.6097 31.7325C34.741 33.2841 34.0973 34.897 33.5579 36.5864C33.3729 37.1654 32.7777 37.4679 32.2331 37.293C30.8955 36.8632 29.6265 36.3492 28.3878 35.7581C27.8194 35.487 27.6514 34.89 27.9019 34.3509L27.9022 34.3511ZM32.9494 26.9071C32.9452 26.905 32.9402 26.9014 32.9361 26.899C32.2409 26.4708 31.9531 25.7845 32.207 25.0101C32.5311 24.0213 32.8839 23.1239 33.1816 22.1316C33.4005 21.4017 33.649 20.6424 33.8971 19.9141C33.899 19.9083 33.9057 19.8955 33.9083 19.89C34.4302 18.8233 35.5155 18.3578 36.5666 18.9525C38.0563 19.7953 39.4482 20.4787 41.0168 21.1418C42.1683 21.6285 42.5125 22.8927 41.8781 23.9339C41.2438 24.9751 40.4771 25.8448 39.7285 26.7824C39.3579 27.2464 38.9772 27.6902 38.5532 28.1197C38.0848 28.5944 37.4361 28.7583 36.803 28.5404C35.4696 28.0819 34.2183 27.4997 32.9496 26.9074L32.9494 26.9071ZM42.2943 4.92065C41.6065 5.46316 40.9335 6.02393 40.2718 6.59801C39.9479 6.1771 39.6416 5.74576 39.3535 5.29954C40.326 5.10279 41.3038 4.97936 42.2943 4.92065ZM31.2992 10.2139C32.0846 9.2667 32.9528 8.44185 33.9175 7.73025C34.9279 6.98499 35.9489 6.44457 37.1083 5.98531C37.519 5.82248 37.9313 5.98531 38.2032 6.32349C38.3577 6.51555 38.4856 6.73605 38.6377 6.92784C38.6398 6.93045 38.6411 6.93567 38.6424 6.93776C38.8906 7.35214 38.8773 7.85054 38.5328 8.19134C36.9885 9.7197 35.6582 11.2982 34.3666 13.0413C33.8353 13.7583 32.916 13.7993 32.2994 13.161C31.9032 12.7511 31.5739 12.2955 31.2511 11.8334C30.9007 11.3316 30.9216 10.669 31.2992 10.2139ZM25.9613 21.468C26.7115 18.9587 27.5293 16.4962 28.7189 14.203C29.1967 13.2819 30.2024 13.2826 30.8707 13.9366C31.2796 14.3366 31.6517 14.8089 32.0384 15.2277C32.4249 15.6468 32.4998 16.1909 32.2761 16.7055C31.7261 17.9713 31.2263 19.2163 30.8242 20.5367C30.5187 21.5408 30.2021 22.5238 29.8227 23.5177C29.5519 24.227 28.7098 24.4297 28.1276 24.0688C27.4787 23.6667 26.9194 23.2082 26.3936 22.7902C25.9443 22.4327 25.8222 21.9332 25.9613 21.468ZM23.0948 31.1423C23.8178 29.3976 24.4094 27.7176 24.8295 25.891C24.8303 25.8876 24.8329 25.8814 24.8342 25.878C25.068 25.2843 25.6278 25.0179 26.1992 25.3782C26.6165 25.6415 26.9928 25.9161 27.4095 26.2268C28.0339 26.6924 28.2884 27.4384 28.0032 28.1845C27.3297 29.9469 26.5797 31.6433 25.8026 33.3522C25.8016 33.3546 25.7979 33.359 25.7963 33.3614C25.5109 33.8219 25.0284 33.9861 24.5498 33.7416C24.25 33.5884 23.9911 33.4289 23.7299 33.2444C23.0136 32.739 22.766 31.9342 23.0942 31.1418L23.0948 31.1423ZM18.7224 37.6184C18.725 37.615 18.7281 37.6095 18.7318 37.6056C19.3786 36.9316 19.9039 36.2153 20.5088 35.4888C21.0406 34.85 21.8185 34.7112 22.5585 35.1073C22.8479 35.2621 23.1138 35.4278 23.3899 35.6144C23.9742 36.0092 24.2046 36.685 23.9196 37.3363C23.3481 38.6421 22.7994 39.9126 22.2334 41.2124C21.9644 41.8301 21.2248 41.9916 20.7194 41.5516C20.0237 40.9457 19.3891 40.3341 18.7597 39.6452C18.2073 39.0403 18.2315 38.2671 18.7226 37.6184H18.7224ZM14.3275 47.5119C14.3656 45.8753 14.6714 44.3936 15.3285 42.872C15.7906 41.8016 17.0492 41.6409 17.9106 42.4154C17.915 42.4193 17.9273 42.4269 17.9312 42.4313C18.6441 43.2183 19.3815 43.9461 20.1312 44.7096C20.519 45.1044 20.6604 45.6094 20.5278 46.1592C20.3708 46.8097 20.2004 47.3699 20.0534 48.0531C19.8958 48.7864 19.6915 49.6871 19.5595 50.4342C19.4922 50.8149 19.4486 51.1153 19.3875 51.4731C19.2657 52.1865 18.4805 52.462 17.9502 52.1265C17.1236 51.603 16.3102 51.0005 15.6529 50.4071C14.7505 49.5929 14.3006 48.682 14.3278 47.5116L14.3275 47.5119ZM15.4238 53.0413C16.6426 53.9348 17.9038 54.7401 19.2221 55.4794C19.2826 56.467 19.4027 57.4385 19.5884 58.4105C17.7924 56.8764 16.455 55.1675 15.4238 53.0413ZM25.2105 58.7949C24.3074 59.3526 23.3166 59.7578 22.3213 60.1304C22.3078 60.1242 22.301 60.1205 22.2866 60.1156C22.0176 59.2876 21.7454 58.4606 21.6191 57.5954C21.5547 57.1536 21.9677 56.8483 22.3806 57.0077C23.2806 57.3555 24.1973 57.6896 25.1093 57.9998C25.4764 58.1248 25.5529 58.5836 25.2105 58.7952V58.7949ZM23.1806 54.9452C22.0408 54.4236 21.4114 53.3701 21.5137 52.1168C21.6465 50.4888 22.0766 48.9735 22.4601 47.3846C22.4609 47.3812 22.4296 47.4743 22.4745 47.3517C22.5196 47.229 22.8257 47.0242 23.0376 47.1852C24.5122 48.3065 26.0267 49.2381 27.6624 50.0932C28.208 50.3784 28.7792 50.5864 29.3488 50.8604C30.312 51.3235 30.7191 52.318 30.2838 53.29C29.8765 54.1997 29.3548 54.9601 28.7549 55.715C28.3421 56.2343 27.713 56.4475 27.081 56.2791C25.7428 55.9224 24.4491 55.5255 23.1806 54.9449V54.9452ZM31.7636 60.7977C30.0223 61.3522 28.291 61.5135 26.4612 61.3551C27.6772 60.7473 28.787 60.0352 29.8415 59.1756C29.8702 59.1522 29.8955 59.1276 29.9229 59.1034C31.5293 59.3299 33.1245 59.4494 34.7491 59.4742C33.7664 59.9929 32.8382 60.4553 31.7634 60.7977H31.7636ZM40.9473 52.1977C40.8576 52.4939 40.7268 52.7663 40.5974 53.0392C39.8657 54.5814 38.9532 55.9023 37.792 57.1551C36.8341 57.1833 35.9007 57.3467 34.9333 57.2655C33.5725 57.1512 32.9006 55.9856 33.4402 54.7404C33.7552 54.0136 34.1581 53.38 34.4211 52.6397C34.4219 52.6374 34.4242 52.6382 34.4253 52.6358C34.5651 52.3579 34.8073 52.1891 35.1181 52.2008C36.9361 52.2692 38.6296 52.0988 40.3748 51.5944C40.3774 51.5936 40.3814 51.5933 40.3845 51.5926C40.778 51.5237 41.0643 51.8112 40.9471 52.1974L40.9473 52.1977ZM39.6468 48.7057C39.0565 48.8237 38.4613 48.9059 37.8622 48.9635C37.821 48.9675 37.7831 48.9758 37.7403 48.9745C36.5953 48.9442 35.8735 48.2003 35.9526 47.0589C36.0011 46.3585 36.1394 45.7487 36.1901 45.0585C36.2756 43.8913 36.367 42.7149 36.5261 41.5514C36.5264 41.549 36.5277 41.5456 36.5288 41.542C36.6357 41.0921 37.0118 40.8155 37.4611 40.8719C39.1593 41.0853 40.8038 41.2396 42.5068 41.2142C42.3627 42.1203 42.2915 42.8078 42.3024 43.7699C42.3181 45.1368 42.2325 46.6876 42.0318 48.0839C41.2451 48.3344 40.4557 48.5439 39.6471 48.7055L39.6468 48.7057ZM43.1422 39.0048C41.9963 38.992 40.8404 39.0771 39.699 38.8976C38.3149 38.6797 37.5775 37.4984 38.0282 36.1764C38.4791 34.8545 39.2141 33.7455 39.9471 32.5796C39.9667 32.5482 40.0129 32.5002 40.0348 32.465C40.0359 32.4634 40.0387 32.4611 40.0406 32.4593C40.4088 32.1226 40.8117 31.9966 41.303 32.0592C41.4614 32.0793 41.6023 32.1143 41.7529 32.138C43.7008 32.4457 45.624 32.5937 47.5949 32.5819C46.8865 33.5378 46.1535 34.4244 45.3805 35.3388C44.444 36.4468 43.7113 37.657 43.1416 39.0046L43.1422 39.0048Z" fill="#C1823E"/>
<path d="M55.6505 12.8552C55.6453 12.8056 55.6387 12.7561 55.6335 12.7065C55.4509 11.0704 55.0881 9.47075 54.4997 7.95858C54.4945 7.94292 54.4906 7.92857 54.4841 7.91552C54.4019 7.70546 54.3157 7.49801 54.2244 7.29186C54.2231 7.28795 54.2218 7.28403 54.2192 7.28142C53.8826 6.51946 53.4833 5.78099 53.0162 5.07643C53.0149 5.07513 53.0136 5.07252 53.0136 5.07122C52.9393 4.9577 52.8623 4.84419 52.7827 4.73199C52.7083 4.6263 52.6326 4.52062 52.5544 4.41624C52.5713 4.321 52.5883 4.22836 52.6039 4.13834C52.6927 3.62688 52.7449 3.18197 52.724 2.79577C52.6966 2.28954 52.5452 1.88507 52.1838 1.56672C52.1825 1.56411 52.1799 1.5615 52.176 1.55889C51.9581 1.3684 51.6645 1.20922 51.2783 1.07875C51.1035 1.01743 50.9091 0.96263 50.6951 0.914355C49.0747 0.543812 47.3315 0.999162 45.7241 1.41276C45.655 1.41667 45.5832 1.40363 45.5232 1.39971C42.8733 1.24054 40.2638 1.37492 37.6987 1.99467C37.066 2.14732 36.5506 2.30389 35.9817 2.52961C33.1361 3.6595 30.8685 5.2891 28.8383 7.61413C28.4182 8.09427 28.092 8.5157 27.6641 9.14979C24.5706 13.7216 23.001 19.144 21.8567 24.5847C21.5045 26.26 20.7503 28.388 19.9179 30.0032C19.6087 30.6034 19.1886 31.3184 18.8193 31.8847C18.1657 32.8815 17.1963 34.1171 16.446 34.9416C8.78991 43.365 9.72931 54.9796 19.6178 60.9514C21.1692 61.8882 22.2429 62.2496 23.7734 62.6697C26.0149 63.2855 28.3073 63.3038 30.4875 62.8693C30.498 62.868 30.5071 62.8654 30.5162 62.8641C30.9794 62.7702 31.4361 62.6567 31.8875 62.5249C32.0114 62.4883 32.1354 62.4505 32.258 62.4114C32.9287 62.1961 33.5693 61.9456 34.1812 61.6638C34.1942 61.6585 34.206 61.6533 34.2177 61.6468C36.0887 60.7818 37.7027 59.6219 39.1666 58.2936C40.0981 57.4482 40.7714 56.5114 41.2998 55.7012C41.9417 54.7161 42.4701 53.6971 42.9033 52.6507C42.9098 52.6376 42.915 52.6246 42.919 52.6116C44.165 49.582 44.6073 46.3345 44.6347 43.104C44.6373 42.9996 44.6373 42.894 44.6373 42.7896C44.6386 41.6271 44.7234 41.1013 44.9426 40.1684C45.0992 39.5004 45.3131 38.9719 45.5715 38.4422C45.6745 38.2322 45.7854 38.0208 45.9016 37.8003C45.9329 37.7416 45.9655 37.6829 45.9994 37.6242C46.3047 37.0879 46.6961 36.5908 47.0575 36.1642C48.0844 34.9521 49.1229 33.6265 50.0219 32.3387C50.0245 32.3348 50.0271 32.3309 50.031 32.327C50.2359 32.0334 50.4329 31.7424 50.6221 31.4554C51.1805 30.6047 51.7076 29.6914 52.1042 28.9634C53.5225 26.3683 54.5663 23.507 55.2069 20.8271C55.4182 19.9425 55.5774 18.8687 55.6231 18.429C55.6753 17.9189 55.7157 17.4061 55.7418 16.892C55.8123 15.543 55.7901 14.1873 55.6505 12.8552ZM52.6039 10.932C52.1486 11.0129 51.6932 11.073 51.2314 11.1043C51.2288 11.1043 51.2262 11.1056 51.2235 11.1056C51.127 11.1017 51.0396 11.0821 50.9639 11.0469C50.716 10.9399 50.579 10.692 50.6168 10.3854C50.6743 9.91958 50.7304 9.4551 50.7799 8.99192C50.8569 8.27954 50.9195 7.56846 50.9496 6.84825C51.6893 8.14385 52.2008 9.49815 52.6039 10.932ZM48.5358 18.0206C48.8568 17.1125 49.1686 16.2227 49.4935 15.2977C49.7962 14.4365 50.3128 13.8142 51.0435 13.4645C51.3527 13.3158 51.6998 13.2166 52.0847 13.1684C52.4174 13.1279 52.6992 13.1488 53.0202 13.1031C53.0489 13.3875 53.0867 13.6367 53.105 13.9264C53.2119 15.6578 53.1193 17.3474 52.8531 19.0657C52.4617 19.1388 52.0794 19.234 51.6841 19.2888C51.2731 19.3462 50.8752 19.4271 50.4707 19.4845C50.1811 19.5263 49.8888 19.5576 49.5861 19.5602C48.7498 19.5667 48.2514 18.827 48.5358 18.0206ZM42.9568 6.50641C43.7762 5.8136 44.6882 5.22778 45.4775 4.65109C46.1155 4.18531 46.5696 4.02743 47.2624 3.80172C47.2702 3.79911 47.2741 3.80041 47.2807 3.80041C47.7725 3.75214 48.1157 4.08093 48.0948 4.57803C48.0583 5.45611 47.95 6.34202 47.8339 7.21097C47.6747 8.41784 47.4255 9.58949 47.1502 10.7716C47.0484 10.7403 46.9336 10.722 46.8357 10.6907C46.5004 10.5824 46.1951 10.4911 45.8598 10.3593C45.685 10.2901 45.4032 10.1779 45.2375 10.1022C44.6869 9.85174 44.2159 9.58296 43.707 9.27113C43.4682 9.125 43.223 8.93582 42.9842 8.78316C42.9685 8.77273 42.9555 8.75968 42.9424 8.74663C42.2144 8.1021 42.2614 7.09354 42.9568 6.50641ZM15.1009 52.1523C16.3195 53.0447 17.5825 53.8497 18.9002 54.5869C18.9603 55.5733 19.079 56.5427 19.2656 57.5134C17.469 55.9804 16.1355 54.2751 15.1009 52.1523ZM27.5675 33.4686C27.6536 33.2833 27.7411 33.1007 27.8298 32.9167C28.4456 31.6446 29.1097 30.3999 29.7216 29.1252C29.8325 28.8955 29.92 28.6724 30.053 28.4415C30.3701 27.8883 30.9024 27.7043 31.5052 27.9235C31.5091 27.9261 31.513 27.9261 31.5169 27.9287C32.5881 28.4702 33.6906 28.8955 34.7957 29.3783C35.3907 29.6379 35.606 30.2746 35.2837 30.8513C34.617 32.0412 34.0768 33.2533 33.6176 34.5163C33.4766 34.9025 33.3436 35.2926 33.217 35.6892C33.0317 36.2698 32.4381 36.5712 31.894 36.3964C30.558 35.9672 29.2911 35.4557 28.0529 34.8699C27.4853 34.6024 27.317 34.0061 27.5675 33.4686ZM27.0209 36.8335C27.6602 37.1218 28.2851 37.3789 28.9179 37.6359C29.3798 37.8251 29.8469 38.013 30.3244 38.2139C31.5143 38.711 32.1367 39.7209 32.1706 40.9773C32.1719 41.0386 32.1719 41.1 32.1706 41.1613C32.1602 41.6975 32.0976 42.2051 32.0767 42.723C32.0271 43.9156 31.9658 45.1185 31.7648 46.2875C31.6526 46.9347 31.0342 47.3483 30.4001 47.1069C28.0372 46.2067 25.904 44.9711 23.8412 43.5085C23.4681 43.2436 23.3298 42.7661 23.4955 42.3355C24.1505 40.6329 24.872 38.9615 25.6718 37.3189C25.921 36.8074 26.5042 36.5999 27.0209 36.8335ZM27.3314 49.1971C27.8781 49.4776 28.4469 49.689 29.0171 49.9617C29.98 50.4222 30.3871 51.4203 29.9526 52.3911C29.5455 53.2991 29.0223 54.0598 28.4234 54.8139C28.0111 55.3332 27.3823 55.5446 26.7508 55.3789C25.4121 55.0253 24.1244 54.6248 22.8549 54.0481C21.7145 53.5301 21.0896 52.4733 21.1887 51.2233C21.3179 49.5976 21.7432 48.0698 22.1268 46.5028C22.1281 46.5015 22.1307 46.4989 22.1307 46.4976C22.2221 46.2523 22.4908 46.1466 22.7048 46.3032C24.1909 47.39 25.6953 48.3529 27.3314 49.1971ZM24.8785 57.8931C23.9756 58.4476 22.9827 58.8521 21.9885 59.2239C21.9755 59.2174 21.969 59.2135 21.9546 59.2083C21.6858 58.385 21.4197 57.5604 21.2957 56.6993C21.2331 56.2583 21.6428 55.9504 22.0551 56.1095C22.954 56.4553 23.8699 56.7906 24.7806 57.0998C25.1473 57.2238 25.2216 57.683 24.8785 57.8931ZM36.4684 27.6586C35.135 27.2085 33.8824 26.6318 32.6129 26.046C32.6077 26.0447 32.6038 26.0408 32.5986 26.0382C31.9045 25.6089 31.6109 24.9305 31.8601 24.1529C32.1784 23.16 32.5268 22.2571 32.8191 21.2603C33.033 20.5283 33.2796 19.7677 33.521 19.0357C33.5223 19.0305 33.5288 19.0174 33.5314 19.0109C34.0416 17.9384 35.1271 17.4713 36.1813 18.0611C37.6753 18.8961 39.0713 19.572 40.6461 20.2256C41.8021 20.7058 42.1492 21.9779 41.519 23.0243C40.8901 24.0707 40.1229 24.9435 39.3779 25.8868C39.01 26.3539 38.6329 26.7975 38.2115 27.2294C37.7457 27.7082 37.1025 27.8739 36.4684 27.6586ZM36.668 16.4563C36.6471 16.4445 36.6289 16.4367 36.608 16.4171C35.6177 15.5221 35.8695 14.5592 36.4201 13.3445C36.4488 13.3027 36.4853 13.2519 36.5297 13.1892C36.9642 12.5812 38.8404 10.1779 39.8281 9.28418C40.0994 9.03889 40.714 8.9032 41.0884 9.23721C42.4623 10.4597 43.9549 11.3613 45.6223 12.1141C45.6928 12.1454 45.7646 12.1637 45.835 12.1989C46.2995 12.4351 46.5331 12.9257 46.3621 13.4228C45.8233 14.9819 45.214 16.5071 44.4703 17.9671C44.0684 18.7591 43.2673 19.1636 42.4179 18.9444C40.3447 18.4068 38.5025 17.5287 36.668 16.4563ZM41.8713 4.04961C41.185 4.59238 40.513 5.1508 39.8489 5.71966C39.5254 5.30215 39.2201 4.8729 38.9343 4.42798C39.905 4.22836 40.881 4.10963 41.8713 4.04961ZM30.8933 9.33767C31.6748 8.38914 32.5464 7.56846 33.5067 6.85478C34.5139 6.10717 35.5381 5.57484 36.6941 5.11166C37.1025 4.94857 37.5174 5.11427 37.7875 5.4522C37.9401 5.64399 38.0667 5.86058 38.218 6.05107C38.2193 6.05367 38.2206 6.05759 38.2219 6.0602C38.4724 6.4751 38.4594 6.97351 38.115 7.31404C36.5741 8.83927 35.2472 10.4271 33.962 12.1676C33.4323 12.8826 32.5138 12.9165 31.8979 12.2837C31.5013 11.8767 31.1725 11.4109 30.8489 10.9503C30.4993 10.4493 30.5188 9.79302 30.8933 9.33767ZM25.5974 20.6027C26.3163 18.078 27.1331 15.6108 28.3243 13.3158C28.8018 12.3946 29.8078 12.3986 30.4745 13.0535C30.8815 13.4528 31.2547 13.929 31.6422 14.3465C32.0284 14.7653 32.1093 15.3081 31.8862 15.8235C31.3356 17.0917 30.8528 18.3416 30.4523 19.6672C30.1483 20.6731 29.8443 21.6647 29.4711 22.6655C29.205 23.3791 28.3634 23.584 27.7789 23.2239C27.1278 22.822 26.5694 22.3654 26.041 21.9479C25.587 21.5904 25.4643 21.0698 25.5974 20.6027ZM24.4832 25.0414C24.4832 25.0375 24.4858 25.0309 24.4871 25.0283C24.7102 24.4242 25.283 24.1763 25.8544 24.5338C26.2706 24.7948 26.649 25.0701 27.0665 25.3767C27.6915 25.8359 27.9511 26.5875 27.6654 27.3299C27.0991 28.8016 26.4716 30.225 25.8323 31.6537C25.7109 31.9264 25.5883 32.1991 25.4656 32.4731C25.4643 32.4757 25.4617 32.4796 25.4604 32.4809C25.1773 32.9467 24.6919 33.1059 24.2131 32.8619C23.913 32.7092 23.6534 32.5488 23.3924 32.3648C22.6774 31.8625 22.4243 31.0614 22.7544 30.2707C22.9671 29.7619 23.1706 29.2582 23.3611 28.7559C23.8204 27.5438 24.2079 26.3357 24.4832 25.0414ZM18.3836 36.733C18.3862 36.7291 18.3901 36.7239 18.3927 36.7213C19.0398 36.0467 19.5643 35.3304 20.171 34.605C20.7034 33.967 21.4823 33.8287 22.2208 34.224C22.5104 34.3793 22.7753 34.545 23.0519 34.7316C23.6351 35.1256 23.8673 35.8028 23.5816 36.4525C23.0088 37.7572 22.4634 39.0228 21.8985 40.3236C21.6297 40.9395 20.8913 41.1013 20.385 40.6616C19.6883 40.0575 19.0529 39.4443 18.4227 38.7554C17.8708 38.1513 17.8917 37.3815 18.3836 36.733ZM14.9952 41.9846C15.4545 40.9134 16.7213 40.7398 17.5759 41.5266C17.5812 41.5305 17.5929 41.5396 17.5968 41.5436C18.3014 42.3407 19.049 43.0583 19.8005 43.8203C20.1893 44.2143 20.3302 44.718 20.1984 45.2686C20.0406 45.9183 19.871 46.478 19.7261 47.163C19.5722 47.8963 19.366 48.7965 19.2342 49.5441C19.1664 49.9238 19.126 50.2252 19.0646 50.5827C18.9446 51.2964 18.1578 51.5717 17.6281 51.2364C16.8009 50.7132 15.9842 50.1117 15.3266 49.5181C14.4263 48.7052 13.9723 47.7945 13.9997 46.6242C14.0388 44.988 14.3402 43.5059 14.9952 41.9846ZM31.4269 59.8919C29.6851 60.4464 27.9563 60.6056 26.1258 60.4478C27.3392 59.8411 28.4534 59.1313 29.5077 58.2741C29.5364 58.2506 29.5612 58.2258 29.5899 58.201C31.1947 58.428 32.7891 58.5481 34.4134 58.5703C33.431 59.0908 32.502 59.5501 31.4269 59.8919ZM40.6122 51.2938C40.5222 51.59 40.3917 51.8639 40.2625 52.1366C39.5306 53.6788 38.6173 55.0005 37.4561 56.2517C36.4984 56.2805 35.5668 56.4448 34.5987 56.3627C33.2379 56.2491 32.5659 55.084 33.1048 53.8393C33.4205 53.1113 33.8211 52.4785 34.0846 51.7374C34.086 51.7361 34.0886 51.7348 34.0886 51.7335C34.2282 51.4543 34.4708 51.2873 34.7827 51.299C36.6002 51.3655 38.2937 51.1972 40.0381 50.691C40.042 50.691 40.0459 50.691 40.0486 50.6897C40.4426 50.6192 40.7296 50.9076 40.6122 51.2938ZM41.9665 42.8692C41.9822 44.2352 41.896 45.7865 41.6951 47.1826C40.9084 47.4331 40.119 47.6418 39.3101 47.8036C38.719 47.9224 38.1241 48.0046 37.5239 48.062C37.4835 48.0659 37.4443 48.0737 37.4026 48.0724C36.2557 48.0424 35.5368 47.2987 35.6138 46.1571C35.6621 45.4564 35.7978 44.8471 35.8486 44.1569C35.9348 42.9892 36.0196 41.811 36.1774 40.6472C36.1774 40.6446 36.1787 40.6407 36.18 40.6381C36.287 40.1879 36.6641 39.91 37.1129 39.9674C38.813 40.1853 40.4608 40.3406 42.1674 40.3158C42.0239 41.2213 41.9548 41.9076 41.9665 42.8692ZM45.0326 34.4458C44.101 35.5549 43.3665 36.7604 42.8002 38.1069C41.6521 38.0939 40.4909 38.1761 39.3492 37.996C37.9623 37.7781 37.2303 36.5921 37.6766 35.2691C37.8266 34.8255 38.008 34.4067 38.2128 34.0035C38.6186 33.2024 39.1092 32.4561 39.5971 31.6837C39.6167 31.6524 39.6637 31.6041 39.6858 31.5689C39.6858 31.5676 39.6898 31.565 39.6911 31.5637C40.0603 31.2271 40.4635 31.1031 40.954 31.1684C41.1132 31.1892 41.2515 31.2245 41.4029 31.248C42.0448 31.3497 42.6841 31.4345 43.3234 31.5011C44.6216 31.6368 45.9198 31.7007 47.2389 31.6903C46.5357 32.6479 45.8011 33.5312 45.0326 34.4458ZM49.6553 27.9013C49.1112 28.8368 48.1757 29.4344 47.0693 29.4761C46.5591 29.4957 46.0647 29.5114 45.5689 29.4957C45.197 29.4866 44.8239 29.4592 44.4429 29.4044C43.3247 29.2439 42.8837 28.1962 43.4474 27.2307C43.5635 27.0311 43.707 26.8667 43.8414 26.6788C44.6882 25.5045 45.4097 24.3159 46.1599 23.0556C46.6805 22.1827 47.5286 21.6256 48.5515 21.5721C49.0368 21.546 49.5104 21.5225 49.9788 21.4925C50.7786 21.4442 51.5654 21.379 52.3782 21.2603C52.2138 21.803 52.0977 22.2884 51.9033 22.8299C51.2731 24.5769 50.6064 26.2613 49.6553 27.9013Z" fill="#FADA9D"/>
<path d="M27.2723 64C21.8412 64 16.6288 61.079 13.4424 55.9587C11.4477 52.7535 10.5423 49.1326 10.8243 45.488C11.1354 41.4674 12.9226 37.6322 15.9932 34.397C18.3372 31.9272 20.286 28.1354 21.079 24.502C22.8923 16.1919 25.1659 10.7875 28.4502 6.97846C32.5368 2.23891 38.1654 0.163872 45.6548 0.636966C47.8875 0.0386186 50.9682 -0.548248 52.5422 0.924789C53.3245 1.657 53.6056 2.75767 53.3801 4.19991C56.6224 8.80012 57.479 14.6195 55.8562 21.0531C54.5197 26.3516 51.5344 31.9802 47.4506 36.9021C47.0754 37.3546 45.819 39.1395 45.4127 43.1144C44.9954 47.1969 44.5641 51.4183 42.7067 55.0198C40.6543 58.999 37.1971 61.6311 31.8265 63.303C30.3175 63.7727 28.7863 63.9997 27.272 63.9997L27.2723 64ZM43.6403 2.0753C37.6049 2.0753 32.9948 4.01047 29.5889 7.96014C26.4766 11.5693 24.3053 16.7699 22.5481 24.8224C21.7 28.709 19.6062 32.7745 17.0839 35.4322C10.5626 42.3034 11.5866 50.1305 14.7192 55.1644C17.8044 60.1221 24.1527 64.1177 31.3801 61.8675C42.334 58.4575 43.0678 51.2766 43.9174 42.9618C44.3545 38.6846 45.725 36.6279 46.2939 35.9421C53.27 27.5339 58.9445 14.3395 51.9778 4.82462C51.8528 4.65396 51.8056 4.43894 51.8473 4.23175C52.0613 3.17257 51.9493 2.42914 51.5149 2.02259C50.9784 1.52053 49.5734 1.12989 45.9278 2.1207C45.8471 2.14262 45.7636 2.15071 45.6804 2.14523C44.9831 2.09878 44.3029 2.0753 43.6403 2.0753Z" fill="#661407"/>
<path d="M47.6258 36.6508C45.6043 38.7809 43.2007 40.643 40.4268 41.6761C40.2043 41.7591 39.9566 41.6458 39.8739 41.4235C39.7946 41.2111 39.8945 40.9755 40.0973 40.8826C41.36 40.3007 42.5264 39.5296 43.5895 38.6379C44.6536 37.7458 45.6173 36.7349 46.4985 35.6558C47.1812 34.8827 48.3097 35.8735 47.6258 36.6511V36.6508Z" fill="#661407"/>
<path d="M23.134 22.3547C21.8849 26.9739 20.4951 31.7944 21.6083 36.5543C21.6659 36.785 21.5253 37.0188 21.2946 37.0756C21.0707 37.131 20.8439 36.9987 20.7792 36.7797C20.4215 35.5632 20.2401 34.3026 20.1811 33.0459C20.0139 29.306 20.8531 25.5773 21.6764 21.9854C21.9386 21.0071 23.3681 21.3605 23.134 22.3547Z" fill="#661407"/>
<path d="M58.3519 58.6908C53.7251 67.2929 36.6663 59.6312 38.7234 49.6676C38.7234 49.6676 38.2244 48.3876 38.5574 47.5834C38.8906 46.7792 40.5422 47.0834 40.5422 47.0834C45.1826 41.5167 63.9722 48.2167 58.3517 58.6908H58.3519Z" fill="#CE753D"/>
<path d="M58.3519 58.6908C53.7859 67.1799 37.1112 59.829 38.6542 50.0574C40.4763 58.1653 54.1791 63.1926 58.2509 55.6221C58.7112 54.7657 59.0076 53.9338 59.1606 53.1311C59.6096 54.8048 59.4314 56.6776 58.3516 58.6911L58.3519 58.6908Z" fill="#BF622E"/>
<path d="M51.5553 63.0567C50.1021 63.0567 48.5377 62.772 46.9235 62.1854C41.6947 60.2854 37.0123 55.4065 38.0725 49.7158C37.9261 49.2759 37.6296 48.1783 37.9759 47.3425C38.3765 46.3757 39.6504 46.3583 40.2952 46.4167C43.3965 43.1932 50.708 44.2049 55.387 47.3629C57.4205 48.7355 58.8594 50.434 59.5472 52.2749C60.3541 54.4337 60.1385 56.6925 58.9066 58.9885C58.9066 58.9885 58.9066 58.9888 58.9064 58.9891C57.4813 61.6384 54.797 63.0569 51.5555 63.0569L51.5553 63.0567ZM39.8785 47.6544C39.4936 47.6544 39.1799 47.7253 39.139 47.824C38.9623 48.2506 39.1781 49.0969 39.3101 49.4398C39.3537 49.5525 39.3642 49.6764 39.3396 49.7946C38.2938 54.8604 42.5793 59.2672 47.3533 61.002C50.8418 62.2697 55.6704 62.3469 57.7973 58.3925C60.5996 53.1687 56.5526 49.6686 54.6824 48.4064C52.4623 46.9081 49.6496 45.9363 46.9652 45.7401C44.2793 45.5438 42.1143 46.1803 41.0256 47.4863C40.88 47.6609 40.6511 47.7436 40.428 47.7024C40.2428 47.669 40.053 47.6544 39.8782 47.6544H39.8785Z" fill="#661407"/>
<g opacity="0.39">
<path d="M55.7031 51.4209C55.2866 52.7454 53.0608 50.5897 49.8013 49.5648C46.5418 48.5398 43.483 49.0332 43.8995 47.7086C44.316 46.3841 47.296 46.1414 50.5554 47.1667C53.8149 48.1917 56.1196 50.0966 55.7031 51.4209Z" fill="#F4EFF0"/>
</g>
</g>
<defs>
<clipPath id="clip0_0_709">
<rect width="60.0253" height="64" fill="white"/>
</clipPath>
</defs>
</svg>
