<svg width="83" height="64" viewBox="0 0 83 64" fill="none" xmlns="http://www.w3.org/2000/svg">
<g clip-path="url(#clip0_0_650)">
<path d="M23.6423 7.02141L45.4158 44.8315C48.7699 50.6563 46.7674 58.098 40.9426 61.4521C35.1177 64.8063 27.6761 62.8038 24.3219 56.9789L2.54802 19.1688C-0.806122 13.344 1.19677 5.90234 7.02161 2.5482C9.9348 0.870364 13.2494 0.533415 16.2585 1.34163C19.2658 2.151 21.9656 4.11014 23.6423 7.02141Z" fill="#22A7F0"/>
<path d="M34.8888 63.1772C33.8185 63.1772 32.742 63.036 31.6809 62.7504C28.5167 61.8989 25.8737 59.8664 24.2389 57.0269L2.46495 19.2168C-0.91068 13.3551 1.11178 5.84057 6.97347 2.46494C9.81144 0.830463 13.118 0.398339 16.2833 1.24877C19.4467 2.10035 22.0897 4.13318 23.725 6.97345L45.4985 44.7835C47.1337 47.6226 47.5651 50.9292 46.7135 54.093C45.8619 57.2572 43.8295 59.9002 40.99 61.535C39.103 62.6219 37.0091 63.1768 34.8884 63.1768L34.8888 63.1772ZM13.0773 1.01506C10.9881 1.01506 8.92685 1.56154 7.06903 2.63111C1.29945 5.95416 -0.691548 13.3513 2.63112 19.1209L24.405 56.931C26.0146 59.726 28.6161 61.7265 31.7308 62.5651C34.8455 63.4032 38.0998 62.9788 40.8948 61.3693C43.6898 59.7597 45.6904 57.1582 46.5289 54.0435C47.3671 50.9288 46.9422 47.6745 45.3331 44.8795L23.5588 7.0694C21.9489 4.27364 19.3473 2.27228 16.2334 1.43413C15.1896 1.1536 14.13 1.01506 13.0773 1.01506Z" fill="#102770"/>
<path d="M23.6423 7.02147L35.1054 26.9276C32.6804 30.1896 29.5592 33.0203 25.8121 35.1782C22.065 37.3362 18.05 38.6149 14.0116 39.075L2.54802 19.1689C-0.806122 13.3441 1.19677 5.9024 7.02161 2.54826C9.9348 0.870425 13.2494 0.533476 16.2585 1.34169C19.2658 2.15106 21.9656 4.1102 23.6423 7.02147Z" fill="#F75C4C"/>
<g opacity="0.3">
<path d="M33.9878 24.9872L35.105 26.9275C32.68 30.1896 29.5588 33.0203 25.8116 35.1782C23.6625 36.4158 21.4244 37.3657 19.144 38.035C17.4493 38.5339 15.7319 38.8789 14.0111 39.075L1.55936 17.4519C-0.0160097 14.7164 -0.109266 11.3458 1.39856 8.57225C3.46708 4.76642 6.27166 2.52866 9.30459 1.52472C5.07929 5.2776 3.92223 11.6017 6.8523 16.6901L16.3863 33.2459C17.3737 34.9606 19.486 35.6936 21.3081 34.9226C22.4564 34.4367 23.5873 33.8757 24.6945 33.2379C28.4416 31.0799 31.5628 28.2492 33.9878 24.9872Z" fill="#102770"/>
</g>
<g opacity="0.55">
<path d="M35.2843 27.238L45.3264 44.6761C48.6901 50.5174 46.7337 58.1705 40.8693 61.4944C40.5569 61.6713 40.2418 61.8321 39.9214 61.9798C44.9917 58.3924 46.5867 51.4665 43.4259 45.9778L35.5721 32.3398C35.044 31.423 33.7857 31.2384 33.0343 31.9833C31.1929 33.8081 29.0876 35.428 26.7358 36.7823C22.9887 38.9403 18.9737 40.219 14.9353 40.6791L14.1904 39.3854C18.2288 38.9253 22.2438 37.6466 25.9909 35.4886C28.984 33.7651 31.5782 31.6114 33.7365 29.1518C34.2815 28.5332 34.7961 27.895 35.2843 27.2376V27.238Z" fill="white"/>
</g>
<g opacity="0.55">
<path d="M23.642 7.02147L35.284 27.2377C34.7959 27.8951 34.2812 28.5333 33.7363 29.1519L21.6921 8.23725C19.5672 9.32831 16.9276 6.53946 18.2988 4.4199C17.0796 3.52687 15.7099 2.87408 14.2685 2.48763C11.6059 1.77113 8.70343 1.95342 6.05273 3.1669C6.36397 2.94815 6.68519 2.74168 7.02137 2.54826C9.93456 0.870425 13.2492 0.533476 16.2583 1.34169C19.2655 2.15106 21.9653 4.1102 23.642 7.02147Z" fill="white"/>
</g>
<g opacity="0.25">
<path d="M34.4545 40.2336C33.383 40.8507 32.0141 40.4823 31.397 39.4108L22.573 24.0877C21.9559 23.0162 22.3244 21.6473 23.3958 21.0302C24.4673 20.4131 25.8362 20.7815 26.4533 21.853L35.2773 37.1761C35.8944 38.2476 35.526 39.6165 34.4545 40.2336Z" fill="white"/>
</g>
<g opacity="0.3">
<path d="M42.9681 59.9912C42.3572 60.5365 41.6806 61.027 40.9422 61.4522C35.1174 64.8063 27.6757 62.8038 24.3216 56.979L14.0112 39.075C15.7321 38.8789 17.4494 38.5339 19.1441 38.035L28.6259 54.5002C31.5564 59.5886 37.6027 61.7592 42.9681 59.9915V59.9912Z" fill="#102770"/>
</g>
<path d="M13.5163 40.056L1.75188 19.6272C0.00726521 16.5977 -0.453258 13.0697 0.455507 9.6933C1.36427 6.31728 3.53295 3.49697 6.56281 1.75235C9.59113 0.00812339 13.1187 -0.453167 16.4967 0.454447C19.8727 1.36321 22.693 3.53227 24.438 6.5629L36.2021 26.9913L35.8425 27.4752C33.2666 30.9403 30.046 33.7997 26.2705 35.9738C22.495 38.1482 18.4055 39.4983 14.1154 39.9873L13.5163 40.0556V40.056ZM13.0788 1.83832C11.132 1.83832 9.21081 2.34758 7.47963 3.34461C4.87499 4.84438 3.01064 7.26903 2.22929 10.1711C1.44793 13.0735 1.84398 16.1065 3.34375 18.7107L14.503 38.0884C18.3249 37.5749 21.9723 36.3296 25.3533 34.3823C28.7343 32.4354 31.6425 29.9056 34.005 26.8578L22.8457 7.4801C21.3456 4.8747 18.9209 3.00996 16.0193 2.22899C15.0464 1.96765 14.0594 1.83832 13.0784 1.83832H13.0788Z" fill="#102770"/>
<path d="M34.8899 63.9999C33.7479 63.9999 32.5992 63.8491 31.4667 63.5444C28.0903 62.6356 25.2704 60.4669 23.5254 57.4371L1.75188 19.627C0.00726521 16.5975 -0.453258 13.0695 0.455507 9.69314C1.36427 6.31713 3.53295 3.49681 6.56281 1.7522C9.59113 0.0079654 13.1191 -0.452557 16.4967 0.454289C19.8727 1.36305 22.693 3.53212 24.438 6.56274L46.2115 44.3724C47.9561 47.4023 48.4167 50.9303 47.5079 54.3063C46.5991 57.6827 44.4304 60.5026 41.4006 62.2476C39.387 63.407 37.1526 63.9995 34.8899 63.9995V63.9999ZM13.0788 1.83778C11.132 1.83778 9.21081 2.34704 7.47963 3.34407C2.10303 6.44032 0.247504 13.334 3.34414 18.7106L25.118 56.5206C26.6178 59.1249 29.0421 60.9896 31.9445 61.7706C34.847 62.5516 37.8795 62.1559 40.4841 60.6561C43.0884 59.1564 44.9531 56.7321 45.7341 53.8296C46.5151 50.9272 46.1194 47.8943 44.6196 45.29L22.8457 7.47956C21.3456 4.87416 18.9209 3.00942 16.0193 2.22845C15.0464 1.96711 14.0594 1.83778 13.0784 1.83778H13.0788Z" fill="#102770"/>
<g opacity="0.25">
<path d="M38.1794 46.7013C37.1079 47.3184 35.739 46.9499 35.1219 45.8785C34.5048 44.807 34.8732 43.4381 35.9447 42.821C37.0162 42.2039 38.3851 42.5723 39.0022 43.6438C39.6193 44.7152 39.2508 46.0842 38.1794 46.7013Z" fill="white"/>
</g>
<path d="M81.0971 41.1405C81.0588 41.2637 81.0189 41.3838 80.9766 41.5035L80.969 41.5281C80.6808 42.3632 80.3135 43.1553 79.8752 43.9006C76.0464 50.4588 66.8731 53.4537 57.8626 50.6334C53.5368 49.2795 49.9447 46.8045 47.4441 43.7551C46.4559 42.5543 45.64 41.2637 45.0152 39.9155C43.9264 37.5691 43.4195 35.0535 43.6171 32.5517C43.692 31.5578 43.8808 30.5657 44.187 29.5879C46.827 21.1538 57.2286 16.9028 67.4219 20.0931C71.1019 21.2448 74.2526 23.21 76.6504 25.6466C77.7622 26.7756 78.7097 28.0064 79.4761 29.3043C81.5569 32.8254 82.2857 36.8465 81.2295 40.6892L81.2257 40.7015C81.1862 40.8488 81.1428 40.995 81.0971 41.1409V41.1405Z" fill="white"/>
<g opacity="0.3">
<path d="M76.2821 47.9662C71.6642 51.5583 64.7165 52.7783 57.8631 50.633C53.5373 49.279 49.9452 46.8041 47.4446 43.7547C46.4563 42.5539 45.6405 41.2633 45.0157 39.9151C43.9269 37.5687 43.42 35.0531 43.6176 32.5513C43.6924 31.5574 43.8813 30.5653 44.1875 29.5875C45.5215 25.3253 48.8372 22.1312 53.1067 20.4288C50.8547 22.1796 49.1581 24.4937 48.2938 27.2553C47.9876 28.2332 47.7988 29.2252 47.7239 30.2192C47.5259 32.721 48.0333 35.2366 49.122 37.5829C49.7468 38.9311 50.5627 40.2217 51.5509 41.4225C54.0515 44.472 57.644 46.9469 61.9694 48.3008C67.0106 49.8785 72.1017 49.6356 76.2821 47.9658V47.9662Z" fill="#102770"/>
</g>
<g opacity="0.55">
<path d="M80.7095 41.3005C80.6711 41.4237 80.6312 41.5438 80.589 41.6635L80.5813 41.6881C80.2931 42.5232 79.9258 43.3153 79.4875 44.0605C77.9444 46.7039 75.5332 48.7698 72.6138 50.1068C74.8063 48.8055 76.6246 47.0447 77.8726 44.9056C78.3109 44.1603 78.6782 43.3682 78.9664 42.5331L78.9741 42.5086C79.0159 42.3888 79.0558 42.2687 79.0946 42.1455C79.1402 42.0001 79.1836 41.8539 79.2231 41.7061L79.227 41.6938C80.2835 37.8512 79.5543 33.8304 77.4735 30.3089C76.7071 29.011 75.7596 27.7803 74.6478 26.6512C73.333 25.3146 71.7911 24.1207 70.0591 23.124C68.0508 23.7223 66.221 22.5641 65.9136 21.2593C65.7509 21.204 65.5855 21.1499 65.4193 21.0977C60.0335 19.4122 54.5921 19.8044 50.2666 21.7931C54.8031 19.0937 60.9557 18.3499 67.0342 20.2527C70.7142 21.4044 73.8649 23.3696 76.2627 25.8062C77.3745 26.9352 78.322 28.166 79.0884 29.4639C81.1692 32.985 81.898 37.0061 80.8419 40.8488L80.838 40.8611C80.7985 41.0084 80.7551 41.1546 80.7095 41.3005Z" fill="white"/>
</g>
<path d="M79.3055 46.8644C76.6655 55.2985 66.2642 59.5476 56.0713 56.3573C55.4788 56.1719 54.8997 55.9659 54.3355 55.7398C45.4839 52.1903 40.2439 43.8042 42.1858 36.0613L42.6198 34.6598L44.1868 29.5883C43.8805 30.5661 43.6917 31.5581 43.6169 32.5521C43.0623 39.6242 48.1127 46.8034 56.1274 50.014C56.6907 50.2419 57.2698 50.448 57.8624 50.6338C66.8725 53.4541 76.0461 50.4591 79.875 43.9009C80.3133 43.1556 80.6805 42.3635 80.9687 41.5285L79.3051 46.8648L79.3055 46.8644Z" fill="white"/>
<g opacity="0.55">
<path d="M79.3054 46.8644C77.7461 51.8461 73.479 55.368 68.1431 56.7591C72.0709 54.9969 75.0985 51.9267 76.3615 47.9056C77.7807 46.7877 78.9761 45.4422 79.8753 43.9002C80.3135 43.1549 80.6808 42.3628 80.969 41.5277L79.3054 46.864V46.8644Z" fill="white"/>
</g>
<path d="M47.4445 43.7551L79.4762 29.3042L76.6505 25.6465L45.0156 39.9155L47.4445 43.7551Z" fill="white"/>
<g opacity="0.3">
<path d="M79.4762 29.3042L78.8813 29.5725L77.3405 27.5777L46.119 41.6608L45.0156 39.9155L76.6505 25.6465L79.4762 29.3042Z" fill="#102770"/>
</g>
<path d="M64.6865 52.548C62.3647 52.548 59.9719 52.1938 57.6067 51.4535C53.2413 50.0873 49.4977 47.6135 46.7802 44.3C45.7482 43.0463 44.892 41.6923 44.2358 40.277C43.0668 37.7583 42.5568 35.0635 42.7606 32.4842C42.8404 31.4238 43.0446 30.3619 43.3669 29.3311C44.7217 25.003 48.0175 21.5778 52.6469 19.6859C57.2202 17.8169 62.5585 17.6707 67.6783 19.2729C71.3702 20.4284 74.684 22.4237 77.2626 25.0437C78.415 26.2138 79.4086 27.5002 80.2161 28.8671C82.4845 32.7064 83.1388 36.9858 82.0581 40.9167L82.0505 40.9432C82.0094 41.0956 81.9645 41.2468 81.9173 41.3976C81.8774 41.5254 81.8359 41.6501 81.7926 41.7744L81.7815 41.8086C81.4787 42.6851 81.0868 43.5356 80.6163 44.3357C77.57 49.5542 71.4324 52.5476 64.6861 52.548H64.6865ZM60.574 19.8873C58.0334 19.8873 55.5612 20.3517 53.2974 21.2766C49.1503 22.9713 46.2061 26.0142 45.0072 29.8442C44.7236 30.7499 44.5443 31.6829 44.4741 32.6162C44.2934 34.9046 44.7497 37.3024 45.7947 39.5536C46.3895 40.8369 47.1678 42.0665 48.1076 43.209C50.6129 46.2638 54.0745 48.5472 58.1194 49.8133C66.5992 52.4674 75.437 49.7983 79.1331 43.4673C79.5448 42.7661 79.8876 42.0239 80.1527 41.2583L80.1654 41.2195C80.2042 41.109 80.241 40.9977 80.2767 40.8837C80.3185 40.7498 80.3588 40.6155 80.3949 40.4796L80.4049 40.4447C81.3547 36.9712 80.7622 33.1703 78.7359 29.741C77.9998 28.4945 77.0918 27.3198 76.0376 26.2491C73.6563 23.8294 70.5881 21.9842 67.1648 20.9128C64.9777 20.2281 62.7503 19.887 60.5732 19.887L60.574 19.8873Z" fill="#102770"/>
<path d="M62.9206 58.2811C60.5696 58.2811 58.1691 57.9139 55.8147 57.177C45.5155 53.9534 39.1626 44.5863 41.352 35.8518L41.3646 35.8065L43.3372 29.4263C43.3468 29.3945 43.3568 29.3626 43.3668 29.3307L45.0078 29.8412L44.9797 29.9313C44.7119 30.8098 44.5419 31.7124 44.4735 32.6162C43.9002 39.9278 49.6391 47.1591 58.1188 49.8133C66.599 52.4674 75.4364 49.7983 79.1325 43.4673C79.5462 42.763 79.8904 42.017 80.156 41.2475L81.7885 41.7837L80.1249 47.1207C78.7702 51.4485 75.4748 54.8736 70.8454 56.7652C68.3754 57.7742 65.6814 58.2811 62.9198 58.2811H62.9206ZM42.9826 36.4197C41.1252 44.2298 46.9565 52.604 56.3282 55.5372C61.0677 57.0204 65.9926 56.8919 70.196 55.1745C74.038 53.6049 76.8479 50.8775 78.1934 47.4389C74.85 50.7228 69.9535 52.5476 64.6863 52.548C62.3645 52.548 59.9717 52.1938 57.6065 51.4535C49.8766 49.0342 44.2437 43.0539 42.983 36.4201L42.9826 36.4197Z" fill="#102770"/>
<path d="M43.0065 36.3154L41.3521 35.8525C41.4215 35.5747 41.4967 35.3064 41.5754 35.0554C41.6495 34.819 41.7304 34.5842 41.8156 34.3574L43.4405 34.9142L43.0065 36.3157V36.3154Z" fill="#102770"/>
<path d="M81.7885 41.7867L80.1494 41.2694L80.4108 40.4282L82.0483 40.9493L81.7885 41.7867Z" fill="#102770"/>
<path d="M79.1602 28.6103L47.1279 43.06L47.7591 44.4593L79.7914 30.0096L79.1602 28.6103Z" fill="#102770"/>
<path d="M76.3353 24.9547L44.6982 39.2194L45.3292 40.6188L76.9662 26.3541L76.3353 24.9547Z" fill="#102770"/>
<g opacity="0.3">
<path d="M56.1277 50.0136L54.3355 55.7394C45.4839 52.19 40.2439 43.8038 42.1858 36.0609L42.6198 34.6594L44.1868 29.5879C43.8805 30.5657 43.6917 31.5578 43.6169 32.5517C43.0623 39.6238 48.1127 46.803 56.1274 50.0136H56.1277Z" fill="#102770"/>
</g>
</g>
<defs>
<clipPath id="clip0_0_650">
<rect width="82.5667" height="64" fill="white"/>
</clipPath>
</defs>
</svg>
