<svg width="32" height="32" viewBox="0 0 32 32" fill="none" xmlns="http://www.w3.org/2000/svg">
<path d="M11.9998 16H12.0132M19.9998 16H20.0132M13.3332 21.3333C13.9998 21.7333 14.9332 22 15.9998 22C17.0665 22 17.9998 21.7333 18.6665 21.3333M25.3332 8.4C26.5411 9.91423 27.3646 11.6984 27.7332 13.6C28.184 13.8184 28.5643 14.1593 28.8303 14.5838C29.0964 15.0082 29.2375 15.499 29.2375 16C29.2375 16.501 29.0964 16.9918 28.8303 17.4162C28.5643 17.8407 28.184 18.1816 27.7332 18.4C27.1576 21.0846 25.6787 23.4907 23.5434 25.2167C21.4081 26.9427 18.7455 27.8843 15.9998 27.8843C13.2542 27.8843 10.5916 26.9427 8.45625 25.2167C6.32095 23.4907 4.84211 21.0846 4.2665 18.4C3.81564 18.1816 3.43541 17.8407 3.16936 17.4162C2.90331 16.9918 2.76221 16.501 2.76221 16C2.76221 15.499 2.90331 15.0082 3.16936 14.5838C3.43541 14.1593 3.81564 13.8184 4.2665 13.6C4.81885 10.894 6.28769 8.46136 8.4252 6.71249C10.5627 4.96362 13.238 4.00557 15.9998 4C18.6665 4 20.6665 5.46667 20.6665 7.33333C20.6665 9.2 19.4665 10.6667 17.9998 10.6667C16.9332 10.6667 15.9998 10.1333 15.9998 9.33333" stroke="#101319" stroke-width="2" stroke-linecap="round" stroke-linejoin="round"/>
</svg>
