<svg width="107" height="96" viewBox="0 0 107 96" fill="none" xmlns="http://www.w3.org/2000/svg">
<g clip-path="url(#clip0_0_745)">
<g opacity="0.3">
<path d="M106.628 91.686C106.628 94.0682 89.7376 96 68.9041 96C50.1938 96 34.6646 94.4421 31.6927 92.4003C28.3803 92.8452 24.2596 93.1094 19.7933 93.1094C8.86349 93.1094 0 91.5285 0 89.5789C0 87.6293 8.86349 86.0483 19.7933 86.0483C29.6349 86.0483 37.8001 87.3297 39.3294 89.008C46.2396 88.0102 56.9196 87.3721 68.9041 87.3721C89.7376 87.3721 106.628 89.302 106.628 91.686Z" fill="#512717"/>
</g>
<path d="M102.995 81.4208C102.995 81.4208 100.956 90.0182 96.5701 90.7273C92.1837 91.4363 83.671 89.7506 83.671 89.7506L51.8189 89.7082L49.1179 89.8625C48.4266 89.9015 47.7424 90.0167 47.0742 90.1958C46.0232 90.4775 44.0558 90.8588 41.5395 90.683C38.9715 90.5039 36.7684 89.3555 35.0935 87.8527C33.4114 86.346 32.2579 84.4834 31.7915 82.885C30.8609 79.6949 31.0133 74.3051 34.5564 72.749C38.0992 71.193 41.8494 74.3671 41.8494 74.3671C44.0205 72.4974 46.6647 72.749 46.6647 72.749C46.6647 68.7577 47.6677 65.9451 47.6677 65.9451C39.3379 64.7206 36.6792 61.6561 36.6792 61.6561C36.6792 61.6561 31.5997 62.7993 28.3795 60.1551C27.9224 59.7794 27.5396 59.3204 27.2416 58.8046C27.2416 58.8046 27.2397 58.8046 27.2397 58.8027C25.4373 55.6869 26.6566 50.4959 32.4857 48.9752C36.9483 47.8108 40.6152 49.2324 42.6075 50.3435C43.6478 50.9248 44.2309 51.4209 44.2309 51.4209L54.98 51.0612L56.4104 51.0132H56.4142L58.5853 50.9408H58.589L80.4292 50.2086L83.7754 50.0971L89.6224 52.6689C89.6224 52.6689 89.6703 52.9275 89.7446 53.3564C89.8561 53.9818 90.03 54.9693 90.2144 56.0466C90.6009 58.2939 91.0312 60.94 91.0312 61.5283C91.0312 62.5915 85.5581 72.2347 85.5581 72.2347C91.7879 72.1816 92.7589 75.8645 92.7589 75.8645C93.3829 74.6414 94.1697 73.8298 94.9408 73.2927C96.6938 72.0697 99.0455 72.0132 100.841 73.1723C101.359 73.5057 101.773 73.9097 102.103 74.3545C104.132 77.0838 102.994 81.4208 102.994 81.4208H102.995Z" fill="#C97043"/>
<path d="M99.0924 86.0406C97.8712 87.3699 96.3311 88.0894 94.5306 87.788C94.2753 87.7456 94.0397 87.685 93.82 87.6089C93.765 87.3836 93.7349 87.1339 93.733 86.8537C93.726 86.0138 93.9898 85.1966 94.4314 84.4823C95.1048 83.3923 96.3739 81.746 97.6854 82.2068C99.004 82.6713 99.4187 84.415 99.0928 86.0402L99.0924 86.0406Z" fill="#F9D9C2"/>
<path d="M95.5908 79.7796C95.6897 78.8386 95.2965 78.026 94.7125 77.9646C94.1285 77.9032 93.5749 78.6163 93.476 79.5573C93.3771 80.4983 93.7703 81.3109 94.3543 81.3723C94.9383 81.4337 95.4919 80.7206 95.5908 79.7796Z" fill="#F9D9C2"/>
<path d="M98.8476 77.6854C98.9465 76.7444 98.5533 75.9318 97.9693 75.8704C97.3853 75.809 96.8317 76.5221 96.7328 77.4631C96.6339 78.4041 97.0271 79.2168 97.6111 79.2781C98.1951 79.3395 98.7487 78.6264 98.8476 77.6854Z" fill="#F9D9C2"/>
<path d="M101.528 80.765C101.627 79.824 101.233 79.0114 100.649 78.95C100.065 78.8887 99.5119 79.6018 99.413 80.5428C99.3141 81.4838 99.7073 82.2964 100.291 82.3578C100.875 82.4191 101.429 81.7061 101.528 80.765Z" fill="#F9D9C2"/>
<path d="M89.623 52.6681C89.1283 52.4537 88.5987 52.2515 88.035 52.062L87.8135 54.139C83.6768 56.2198 84.2421 59.1795 84.4884 59.986C84.5308 60.1224 84.5628 60.1967 84.5628 60.1967L82.9109 61.4142L82.9038 61.4194C81.1987 58.1672 75.1693 58.6615 75.1693 58.6615C74.4658 58.7376 73.7746 58.8016 73.1012 58.8528C71.2649 57.7487 69.1916 57.1266 66.9989 57.1266C65.03 57.1266 63.1585 57.6265 61.4675 58.5303C51.8032 57.114 47.6011 53.1531 47.6011 53.1531L54.981 51.06L56.4114 51.0121H56.4151L58.5862 50.9396H58.59L80.4302 50.2075L83.7764 50.0956L89.6233 52.6674L89.623 52.6681Z" fill="#B25B36"/>
<g opacity="0.6">
<path d="M43.2678 51.2046C33.2207 48.0569 26.8296 50.9831 27.2425 58.8042C27.2425 58.8042 27.2407 58.8042 27.2407 58.8023C25.4382 55.6865 26.6576 50.4955 32.4867 48.9748C36.9493 47.8105 40.6162 49.232 42.6085 50.3432L43.2678 51.2046Z" fill="white"/>
</g>
<path d="M34.8488 51.2046C34.016 56.8401 28.728 60.2922 26.6074 57.3633C26.6074 57.3633 27.3693 61.7482 31.3748 60.5746C35.3802 59.4014 36.8868 53.8187 34.8488 51.2042V51.2046Z" fill="#B25B36"/>
<path d="M37.6253 87.2012C37.0065 86.6333 36.5877 85.8833 36.3655 85.0732C36.0262 83.8375 35.6865 81.7872 36.917 81.142C38.7187 80.1969 41.2001 82.5007 41.5546 84.7458C41.8649 86.7102 39.8228 89.2173 37.6257 87.2012H37.6253Z" fill="#F9D9C2"/>
<path d="M99.0922 86.0406C98.945 86.7812 98.644 87.4992 98.2062 88.0574C97.095 89.4752 94.3409 89.7837 93.8198 87.6089C94.0395 87.685 94.2754 87.7452 94.5304 87.788C96.331 88.0894 97.8714 87.3699 99.0922 86.0406Z" fill="#E0B299"/>
<path d="M102.995 81.4204C102.995 81.4204 100.957 90.0178 96.5703 90.7269C92.1839 91.436 83.6713 89.7502 83.6713 89.7502L51.8192 89.7079L49.1181 89.8621C48.4269 89.9011 47.7427 90.0163 47.0745 90.1954C46.0235 90.4771 44.0565 90.8584 41.5398 90.6827C38.9718 90.5035 36.7687 89.3552 35.0938 87.8523C42.082 91.6255 42.9453 86.3122 44.042 79.5098C43.8045 80.9789 44.657 85.0784 46.5461 85.7198C48.8944 86.5174 49.6087 84.4351 49.6087 84.4351C49.6087 84.4351 50.6809 83.5933 50.5638 83.4161C50.4452 83.2388 47.0775 79.6941 47.2548 74.8506C47.2548 74.8506 48.7699 79.8131 57.435 79.8718C66.1 79.9301 76.4396 80.6515 76.4396 80.6515C82.1253 83.7725 88.4382 90.5712 91.6711 79.2586C91.2121 81.1142 90.2533 86.3903 93.8191 87.6096C94.3402 89.7844 97.0944 89.4759 98.2055 88.0582C98.6433 87.5 98.9447 86.782 99.0915 86.0413C101.468 83.4555 102.627 78.5532 102.103 74.3545C104.132 77.0838 102.994 81.4208 102.994 81.4208L102.995 81.4204Z" fill="#B25B36"/>
<path d="M40.1209 79.8215C40.6294 79.5279 40.6581 78.6256 40.185 77.8061C39.7119 76.9867 38.9162 76.5604 38.4076 76.8541C37.8991 77.1477 37.8703 78.05 38.3434 78.8694C38.8165 79.6888 39.6123 80.1151 40.1209 79.8215Z" fill="#F9D9C2"/>
<path d="M36.2113 80.1634C36.7687 79.8416 36.8371 78.9164 36.364 78.097C35.8909 77.2775 35.0555 76.8742 34.4981 77.196C33.9407 77.5178 33.8723 78.443 34.3454 79.2624C34.8185 80.0818 35.6539 80.4852 36.2113 80.1634Z" fill="#F9D9C2"/>
<path d="M33.425 82.4764C34.0079 82.2034 34.1552 81.2875 33.7539 80.4306C33.3527 79.5737 32.5549 79.1003 31.972 79.3732C31.3891 79.6461 31.2418 80.5621 31.643 81.419C32.0442 82.2759 32.842 82.7493 33.425 82.4764Z" fill="#F9D9C2"/>
<path d="M49.9406 60.0361C45.8711 62.4101 39.5017 62.9903 38.3608 56.0585C38.3608 56.0585 38.1787 59.5578 37.1533 61.3068C37.1533 61.3068 36.3855 62.1519 39.0026 63.3147C41.6193 64.4776 47.1596 66.39 47.6691 65.2948C48.1786 64.1996 48.9687 62.3485 48.9687 62.3485" fill="#B25B36"/>
<path d="M73.1014 58.8536C68.5749 59.1955 64.7129 59.0078 61.4678 58.531C63.1587 57.6272 65.0303 57.1273 66.9992 57.1273C69.1915 57.1273 71.2652 57.7495 73.1014 58.8536Z" fill="#E0B299"/>
<path d="M80.6778 73.5956C80.6778 82.6891 74.5526 86.3118 66.9991 86.3118C59.4456 86.3118 53.3203 82.6891 53.3203 73.5956C53.3203 66.8698 56.6684 61.0867 61.4677 58.531C64.7128 59.0078 68.5748 59.1955 73.1013 58.8536C77.5922 61.5528 80.6778 67.141 80.6778 73.5956Z" fill="#F9D9C2"/>
<path d="M93.9613 91.5222C89.6652 91.5222 84.2884 90.5028 83.6098 90.3708L51.8361 90.3285L49.1537 90.4809C48.5241 90.5165 47.8786 90.6221 47.2345 90.7945C46.2308 91.0632 44.1518 91.4869 41.4969 91.3018C35.938 90.9153 32.1272 86.2487 31.1966 83.0586C30.1754 79.5574 30.4653 73.8677 34.308 72.1808C37.4903 70.7842 40.7205 72.7672 41.8429 73.5793C43.4242 72.4038 45.1341 72.1596 46.0527 72.1225C46.1189 69.508 46.5831 67.4674 46.8666 66.448C40.24 65.3505 37.3149 63.1018 36.4765 62.3273C35.2352 62.5421 30.9436 63.062 27.9872 60.6345C26.2617 59.2178 25.4883 56.7457 26.0172 54.3371C26.656 51.4276 28.9572 49.2543 32.3297 48.3746C38.6795 46.719 43.4294 50.0117 44.441 50.7943L83.7544 49.4769C83.8502 49.4713 83.9398 49.4917 84.0253 49.5289L89.873 52.1014C90.0618 52.1846 90.197 52.3559 90.2335 52.5588C90.3788 53.3627 91.652 60.4412 91.652 61.529C91.652 62.5354 88.4463 68.3756 86.6074 71.6423C90.3238 71.8671 92.0452 73.4563 92.8063 74.5808C93.3072 73.8624 93.9033 73.2608 94.5872 72.784C96.5412 71.4223 99.1898 71.3692 101.177 72.6517C105.201 75.2479 103.662 81.3215 103.594 81.5787C103.511 81.9321 101.41 90.5741 96.6687 91.3401C95.8689 91.4694 94.9428 91.5225 93.961 91.5225L93.9613 91.5222ZM51.8187 89.088H51.8198L83.6711 89.1303C83.7113 89.1303 83.7514 89.1344 83.7908 89.1422C83.8748 89.1586 92.2455 90.7986 96.471 90.1148C99.7339 89.5878 101.85 83.5569 102.391 81.2781C102.408 81.2097 103.771 75.8013 100.504 73.6934C98.9349 72.681 96.8419 72.7245 95.2959 73.8015C94.4838 74.3671 93.8164 75.1561 93.3121 76.1461C93.1954 76.3754 92.9486 76.5089 92.6933 76.4814C92.4376 76.4539 92.225 76.2714 92.1596 76.0228C92.1236 75.8968 91.1882 72.8122 85.5642 72.8561H85.559C85.3394 72.8561 85.1357 72.7401 85.0242 72.5502C84.912 72.3592 84.9101 72.1225 85.0194 71.9296C87.59 67.3997 90.3022 62.2782 90.4107 61.5145C90.4011 60.7564 89.6269 56.2009 89.0702 53.1037L83.654 50.7211L44.2522 52.0415C44.0931 52.0512 43.9474 51.9943 43.8296 51.8944C43.7824 51.8546 39.0266 47.9089 32.6419 49.575C29.7365 50.3331 27.7631 52.1657 27.2279 54.6032C26.798 56.561 27.4048 58.5518 28.7732 59.6757C31.7151 62.0913 36.4965 61.0611 36.5445 61.0507C36.7674 61.0013 36.9993 61.0775 37.1484 61.2495C37.1718 61.2759 39.8178 64.1643 47.7585 65.3319C47.9425 65.3591 48.1045 65.4668 48.2 65.6263C48.2959 65.7857 48.3153 65.9793 48.2524 66.1544C48.2432 66.1811 47.2843 68.9242 47.2843 72.749C47.2843 72.9237 47.2108 73.0902 47.0814 73.208C46.9521 73.3254 46.7789 73.3823 46.6054 73.3667C46.5831 73.3648 44.1875 73.1723 42.2543 74.838C42.0231 75.0372 41.6816 75.0387 41.4486 74.8413C41.4147 74.8127 37.9452 71.9385 34.8056 73.3169C31.6857 74.6864 31.5177 79.7321 32.387 82.7111C33.2168 85.5567 36.6184 89.719 41.5823 90.0642C44.0574 90.2363 45.9844 89.845 46.9134 89.5964C47.6392 89.4024 48.3691 89.2831 49.0827 89.2426L51.7834 89.0891C51.7949 89.0883 51.8064 89.0883 51.8183 89.0883L51.8187 89.088Z" fill="#512717"/>
<path d="M89.7452 53.3556C89.0079 53.5968 88.3683 53.8588 87.8135 54.139L88.035 52.062C88.5987 52.2515 89.1283 52.4537 89.623 52.6681V52.67C89.6282 52.6949 89.6743 52.9498 89.7452 53.356V53.3556Z" fill="#B25B36"/>
<path d="M85.6851 72.2611C81.8677 72.8423 78.8244 69.062 80.1203 65.4234C80.6432 63.9558 81.6763 62.6301 82.9116 61.4145C83.4115 60.9199 83.9448 60.4449 84.4888 59.986C85.4778 59.1528 86.5038 58.3712 87.4433 57.6287L87.8139 54.139C88.3687 53.8588 89.0083 53.5968 89.7456 53.3556C89.6746 52.9498 89.6286 52.6945 89.6234 52.6696C102.136 58.0891 93.1859 71.1194 85.6851 72.2607V72.2611Z" fill="#C97043"/>
<path d="M85.6858 72.2614C82.3946 72.7631 79.6813 70.0249 79.8248 66.9303C80.7907 68.738 82.7953 69.9502 85.0797 69.6031C89.9608 68.8606 95.4565 63.0809 95.2491 57.6417C97.9041 63.68 91.3785 71.3948 85.6858 72.2614Z" fill="#B25B36"/>
<path d="M83.6265 90.4987C83.5625 91.4999 82.8059 92.3134 81.8132 92.4605C69.7596 94.2399 56.3451 92.9567 51.6963 92.4055C50.6985 92.2885 49.9221 91.4839 49.8389 90.4827C49.8266 90.3285 49.8121 90.1672 49.7999 89.9988C49.6048 87.5015 49.4171 83.5636 50.002 82.0429C50.6011 80.4831 52.9264 77.8282 54.3673 76.274C55.1079 75.4746 56.1288 74.9892 57.2188 74.9253C61.7063 74.6577 66.5093 74.7127 66.5093 74.7127L62.8513 78.3867C62.8513 78.3867 62.2311 79.2694 64.4906 79.4377C66.7501 79.6061 69.5649 80.0279 70.6493 78.564C71.7341 77.1035 75.6489 75.2427 75.6861 75.0866C75.7214 74.9305 78.4827 74.3545 78.4827 74.3545C81.3732 76.6055 83.0731 80.54 83.4273 81.4208C83.4752 81.536 83.4982 81.5999 83.4982 81.5999C83.9219 84.3258 83.7658 88.2744 83.6257 90.4987H83.6265Z" fill="#7BA2FF"/>
<g opacity="0.25">
<path d="M72.9077 78.6101C72.9077 78.6101 79.1568 75.7087 81.5939 78.6101L79.2121 74.3679C79.2121 74.3679 73.6629 75.973 73.4856 76.0172C73.3083 76.0614 73.3024 77.302 73.3024 77.302" fill="#512717"/>
</g>
<path d="M81.6895 74.353C81.6453 74.3478 81.6025 74.3422 81.5583 74.3389C81.4821 74.3266 81.4041 74.3177 81.326 74.3121C79.7771 74.1546 78.2069 74.2858 76.7144 74.7358C75.0841 75.2267 73.735 75.9392 72.6666 76.6642C72.6082 76.7032 72.5514 76.7404 72.4964 76.7813C71.1566 77.7134 70.2863 78.6439 69.8841 79.117C69.7121 79.3192 69.627 79.4377 69.627 79.4377C65.1503 80.2 62.9844 78.8086 62.9844 78.8086C62.9844 78.8086 65.0191 76.235 68.8774 72.322C71.2897 69.8763 74.9581 67.551 77.3722 66.1525C78.8201 65.3126 79.8161 64.8057 79.8161 64.8057C79.6886 69.3055 81.1436 72.2228 85.4519 72.2919C86.1305 74.5924 83.4172 74.5782 81.6891 74.353H81.6895Z" fill="white"/>
<path d="M87.607 57.8379C85.8305 59.7374 83.7408 61.2867 82.0852 63.2709C81.7819 63.6414 81.4783 64.0758 81.2394 64.4872C81.0052 64.8971 80.796 65.3516 80.6503 65.8017C79.8903 68.0345 81.21 70.6716 83.4275 71.4394C89.7502 73.6428 101.885 59.8823 90.6313 53.8503C89.7453 53.3709 88.8044 52.9766 87.8359 52.6499C87.0688 52.3693 87.4464 51.2343 88.2324 51.4744C90.2905 52.175 92.3289 53.1639 93.9099 54.6976C97.5452 58.152 96.9744 63.1538 94.2852 66.9917C92.0785 70.2453 87.1357 74.0687 83.0043 72.606C79.9959 71.5457 78.3763 67.9687 79.6135 65.0224C80.5901 62.6012 82.5353 60.6542 84.6041 59.1405C85.4656 58.5139 86.3531 57.9409 87.2773 57.421C87.5393 57.2712 87.8143 57.6198 87.6066 57.8383L87.607 57.8379Z" fill="#512717"/>
<path d="M83.833 59.7288C83.613 59.8827 83.5413 60.2967 83.7119 60.5185C83.7148 60.5234 83.7126 60.5196 83.713 60.5204V60.5193L83.71 60.5148C83.6557 60.4197 83.545 60.2487 83.4848 60.154C83.319 59.8949 82.859 59.2089 82.6821 58.9454C82.3186 58.4106 81.9481 57.8795 81.5716 57.3526C81.4572 57.1931 81.4936 56.9713 81.653 56.8568C81.7991 56.752 81.9983 56.7743 82.1183 56.9014C82.5669 57.3767 83.0106 57.8569 83.4487 58.3434C83.752 58.6864 84.2991 59.2955 84.5867 59.6411C84.6135 59.676 84.6874 59.76 84.7127 59.795C84.9264 60.0361 84.8829 60.4665 84.6465 60.6653C84.0151 61.186 83.2291 60.2807 83.833 59.7288Z" fill="#512717"/>
<path d="M62.5188 79.6722C62.5032 79.6722 62.4873 79.6719 62.4713 79.6704C62.3472 79.6611 62.2171 79.6529 62.0829 79.6447C60.8677 79.5704 59.2035 79.469 58.6014 78.0285C58.4703 77.7148 58.5026 77.3774 58.6903 77.1027C59.3547 76.1294 62.4661 76.0436 64.3187 76.0815C67.3724 72.8338 73.2268 67.2752 80.2867 63.8807C80.5952 63.7332 80.9661 63.8621 81.1147 64.171C81.263 64.4798 81.1333 64.8503 80.8245 64.999C70.6911 69.8707 63.0804 79.343 63.0049 79.4381C62.8868 79.5868 62.7076 79.6722 62.5196 79.6722H62.5188ZM59.8475 77.7323C60.214 78.2452 61.0814 78.3407 62.1587 78.4064C62.1866 78.4079 62.2145 78.4098 62.2424 78.4116C62.4326 78.1835 62.7496 77.81 63.1818 77.3239C61.6752 77.3584 60.3329 77.519 59.8475 77.7323Z" fill="#512717"/>
<path d="M67.846 80.1349C66.129 80.1349 64.2329 79.9695 62.4164 79.6637C62.0786 79.6068 61.8508 79.2868 61.9076 78.949C61.9645 78.6112 62.2834 78.3841 62.6223 78.4402C68.5402 79.4358 72.3621 78.574 72.678 77.9895C72.6579 77.9423 72.5635 77.7728 72.1666 77.5074C71.8816 77.3172 71.805 76.9321 71.9957 76.6471C72.1863 76.3621 72.5717 76.2859 72.856 76.4762C74.0051 77.244 74.0252 77.9627 73.8393 78.4306C73.3696 79.6142 70.89 80.1349 67.8467 80.1349H67.846Z" fill="#512717"/>
<path d="M69.6268 80.0573C69.5008 80.0573 69.3733 80.019 69.2633 79.9394C68.9861 79.7384 68.924 79.3515 69.1243 79.0743C69.2261 78.9334 71.6745 75.6058 76.5351 74.1412C78.2041 73.6384 79.9649 73.5027 81.7696 73.7376C83.3059 73.9379 84.4401 73.8045 84.8025 73.3808C84.8623 73.311 85.0433 73.0988 84.8571 72.467C84.7601 72.1385 84.9481 71.7936 85.2767 71.6966C85.6056 71.5992 85.9501 71.7876 86.0471 72.1162C86.3581 73.1716 86.0549 73.8246 85.7457 74.1865C85.0723 74.9751 83.6805 75.2375 81.609 74.9681C79.9805 74.7555 78.3933 74.877 76.8926 75.3293C72.4512 76.6676 70.1515 79.7711 70.1288 79.8023C70.0073 79.9692 69.8181 80.058 69.626 80.058L69.6268 80.0573Z" fill="#512717"/>
<path d="M67.8475 76.3539C70.3649 73.7331 73.1979 71.377 76.4579 69.7228C77.5616 69.1773 78.7323 68.7283 79.9799 68.4697C80.3155 68.4002 80.644 68.6161 80.7138 68.9517C80.7882 69.3021 80.544 69.6463 80.1891 69.6927C76.6835 70.2011 73.5617 72.1347 70.7395 74.1969C69.7848 74.9131 68.8527 75.669 67.9742 76.4777C67.9385 76.5122 67.8809 76.5107 67.8471 76.4739C67.8155 76.4398 67.8163 76.387 67.8475 76.3532V76.3539Z" fill="#512717"/>
<path d="M81.4117 71.2859C80.4622 71.7653 79.4328 72.0303 78.4004 72.2406C78.0659 72.3064 77.7303 72.3592 77.3955 72.4067C77.3468 72.4138 77.3014 72.3796 77.2944 72.3309C77.2884 72.2897 77.3118 72.2507 77.3486 72.2358C77.9611 71.9753 78.5609 71.6858 79.1358 71.3565C79.6268 71.0722 80.1002 70.7693 80.5365 70.4137C80.5915 70.3672 80.6606 70.3107 80.6922 70.275C80.9252 70.0138 81.3262 69.9915 81.5871 70.2245C81.9372 70.5252 81.8283 71.1075 81.4114 71.2859H81.4117Z" fill="#512717"/>
<path d="M68.0197 93.9958C60.9422 93.9958 54.7623 93.3941 51.6231 93.0225C50.3395 92.8705 49.3294 91.8243 49.2209 90.5351C48.963 87.4699 48.7887 83.47 49.4234 81.8203C50.0348 80.2312 52.2021 77.6977 53.9128 75.8526C54.7683 74.9298 55.9293 74.3802 57.1817 74.3058C61.6402 74.0409 66.4688 74.091 66.5171 74.0921C66.8598 74.0959 67.1344 74.3768 67.1303 74.7195C67.1266 75.0599 66.8497 75.3327 66.5104 75.3327H66.5034C66.4558 75.3327 61.6695 75.2821 57.2556 75.5441C56.3239 75.5995 55.4599 76.0087 54.8229 76.6962C52.5433 79.1557 50.9973 81.1855 50.5814 82.2659C50.1585 83.3656 50.1132 86.3416 50.4573 90.4314C50.5168 91.1361 51.0686 91.708 51.7695 91.7909C56.8331 92.3903 69.8894 93.5952 81.7233 91.8474C82.4343 91.7422 82.9624 91.1721 83.0077 90.4608C83.1407 88.3588 83.302 84.4489 82.8966 81.7608C82.6888 81.2316 81.0027 77.1024 78.1025 74.844C77.8319 74.6336 77.7836 74.2438 77.9943 73.9736C78.2051 73.703 78.5945 73.6551 78.8647 73.8651C82.2343 76.4892 84.0074 81.1855 84.0813 81.3844C84.0958 81.4234 84.1063 81.4639 84.1129 81.5051C84.5492 84.311 84.3839 88.3696 84.2463 90.5392C84.165 91.8199 83.1805 92.8865 81.9054 93.0749C77.2793 93.7579 72.4718 93.9962 68.0208 93.9962L68.0197 93.9958Z" fill="#512717"/>
<path d="M65.6434 83.27C56.8947 83.27 50.0581 82.6709 49.9466 82.6609C49.6055 82.6301 49.3539 82.3287 49.3843 81.9875C49.4152 81.6463 49.7192 81.3948 50.0577 81.4252C50.2395 81.4416 68.4202 83.0344 83.415 80.9852C83.7543 80.9399 84.0672 81.1766 84.1136 81.5159C84.1601 81.8556 83.9222 82.1681 83.5829 82.2146C77.6646 83.0233 71.2599 83.27 65.6434 83.27Z" fill="#512717"/>
<g opacity="0.25">
<path d="M81.6894 74.353C81.6451 74.3478 81.6024 74.3422 81.5582 74.3389C81.505 74.33 81.4519 74.3229 81.3987 74.3177C81.3738 74.3159 81.3508 74.3125 81.3259 74.3125C77.6872 73.981 73.581 76.1502 72.6664 76.6642C72.546 76.7315 72.4802 76.7705 72.4802 76.7705C72.4802 76.7705 72.4854 76.7742 72.4962 76.7813C72.6556 76.8913 73.9798 77.8516 72.9072 78.6101C72.4431 78.9379 71.197 79.0728 69.8836 79.117C67.9749 79.1809 65.9224 79.0531 65.9224 79.0531C65.9224 79.0531 66.75 78.9858 71.7425 75.6485C76.7332 72.3094 80.1311 73.7878 81.0509 72.9601C81.9707 72.1325 77.9459 72.2919 77.9459 72.2919C79.4685 70.6225 78.3484 70.2483 75.9662 70.4947L76.886 69.7399L75.9662 69.9473C79.0678 67.3191 77.2955 66.4327 77.3717 66.3443V66.1529C78.8196 65.313 79.8156 64.8061 79.8156 64.8061C79.6881 69.3058 81.143 72.2232 85.4514 72.2923C86.13 74.5927 83.4167 74.5786 81.6886 74.3534L81.6894 74.353Z" fill="#512717"/>
</g>
<g opacity="0.25">
<path d="M83.6264 90.4987C83.5625 91.4999 82.8058 92.3134 81.8132 92.4606C69.7596 94.24 56.345 92.9567 51.6963 92.4056C50.6984 92.2885 49.9221 91.4839 49.8388 90.4827C49.8266 90.3285 49.8121 90.1672 49.7998 89.9989C68.5224 92.3632 80.2501 90.8674 79.8156 82.6561L82.0648 81.7842L83.4276 81.4208C83.4755 81.536 83.4986 81.5999 83.4986 81.5999C83.9222 84.3258 83.7661 88.2745 83.626 90.4987H83.6264Z" fill="#512717"/>
</g>
<path d="M37.1532 61.3068C37.1532 61.3068 37.1443 61.4502 37.1265 61.7107C36.999 63.7737 36.3999 73.1225 36.0454 75.1309C35.6466 77.3904 35.3809 78.1879 34.0516 77.5234C33.9702 77.4826 33.8903 77.4383 33.8159 77.3904C33.8159 77.3904 33.8141 77.3904 33.8122 77.3885C32.7505 76.7203 32.3023 75.5489 30.7053 76.6954V76.6973C30.5864 76.7824 30.4608 76.8798 30.3296 76.9916C29.5358 77.665 28.6937 77.9486 27.8839 77.9486H27.882C26.6148 77.9486 25.4255 77.2555 24.6139 76.2826C23.2845 74.6875 21.6453 77.7003 19.5184 78.25C18.3559 78.5514 17.6591 78.0303 17.328 77.3655C17.0552 76.8125 17.0355 76.1603 17.2146 75.7953C17.9237 74.3545 21.8225 71.0986 23.5506 69.1048C25.2787 67.111 28.38 60.1547 28.38 60.1547C28.8516 60.3569 29.3017 60.4933 29.7287 60.5747C30.3791 60.6969 30.98 60.688 31.5274 60.5747C34.4537 59.9633 35.8926 56.3265 35.7793 53.5526C36.4352 53.6641 36.9418 53.8804 37.3264 54.1766H37.3283C39.8557 56.1031 37.1528 61.3068 37.1528 61.3068H37.1532Z" fill="white"/>
<path d="M18.8722 78.9594C17.9279 78.9594 17.3611 78.4652 17.0813 78.1214C16.4863 77.3908 16.3005 76.2487 16.6584 75.5218C17.1333 74.5559 18.705 73.0426 20.3684 71.4401C21.374 70.4717 22.4135 69.4701 23.0821 68.699C24.7303 66.7973 27.7832 59.9715 27.8137 59.9027C27.9516 59.5935 28.3117 59.4516 28.6235 59.585C30.187 60.2517 31.555 60.193 32.6899 59.4092C34.4195 58.2148 35.2416 55.5721 35.1598 53.579C35.152 53.3921 35.2293 53.2114 35.3694 53.0877C35.5099 52.9643 35.6983 52.9097 35.883 52.9416C37.1975 53.1646 38.1173 53.7867 38.6172 54.7905C39.7785 57.1236 38.1177 60.7515 37.7643 61.4718C37.6817 62.8026 37.0385 73.0724 36.656 75.2386C36.3717 76.8504 36.1447 77.8564 35.3921 78.2351C34.8098 78.5283 34.1899 78.286 33.774 78.0783C33.3459 77.8638 33.0185 77.5829 32.7297 77.3346C32.0444 76.7456 31.8136 76.5464 30.7307 77.4651C29.7741 78.276 28.6651 78.6521 27.5253 78.5536C26.274 78.4451 25.0395 77.7624 24.1375 76.6802C23.803 76.2792 23.5403 76.319 22.2043 77.3707C21.4707 77.9478 20.6397 78.6015 19.6742 78.8517C19.381 78.9275 19.1141 78.9598 18.8722 78.9598V78.9594ZM28.7049 60.9429C27.9323 62.6335 25.5207 67.7795 24.0197 69.5114C23.3151 70.3245 22.2544 71.3461 21.2295 72.3336C19.7864 73.7235 18.1508 75.2988 17.7718 76.0696C17.6744 76.2673 17.6822 76.8946 18.0434 77.3384C18.3355 77.6966 18.7796 77.8018 19.3639 77.6502C20.0774 77.4658 20.7686 76.9218 21.4372 76.3955C22.4767 75.5776 23.9004 74.4567 25.0911 75.886C25.7827 76.7159 26.7092 77.2376 27.6331 77.3179C28.4496 77.3874 29.2207 77.1195 29.9291 76.5193C31.6784 75.0365 32.5989 75.5857 33.5395 76.3944C33.7963 76.6152 34.039 76.8237 34.3296 76.9693C34.7142 77.1615 34.8343 77.1284 34.835 77.1276C35.0829 77.018 35.3479 75.517 35.4352 75.0234C35.8232 72.8241 36.5275 61.3844 36.5349 61.2692C36.5401 61.1826 36.5635 61.0983 36.6036 61.0214C37.1328 59.9994 38.3265 56.9858 37.5071 55.3424C37.2811 54.8894 36.9132 54.5638 36.3914 54.3579C36.2636 56.5019 35.3345 59.0915 33.3961 60.4301C32.4402 61.0897 30.8764 61.6791 28.7053 60.9433L28.7049 60.9429Z" fill="#512717"/>
<path d="M31.1167 61.0203C30.5726 63.3545 29.5238 65.5338 28.1911 67.5105C28.1335 67.6 27.9867 67.5179 28.038 67.4213C28.9036 65.6077 29.519 63.6711 29.8018 61.6836C29.839 61.4075 29.8739 61.1132 29.8858 60.863C29.965 59.9823 31.2605 60.1439 31.1167 61.0199V61.0203Z" fill="#512717"/>
<path d="M34.8485 59.0023C34.5211 60.8285 34.1286 62.635 33.5741 64.4047C33.5102 64.6095 33.1943 64.537 33.2293 64.3237C33.3616 63.424 33.4455 62.5179 33.5057 61.6104C33.5637 60.7081 33.6027 59.7901 33.6128 58.89C33.6581 58.0037 34.9626 58.1192 34.8485 59.0019V59.0023Z" fill="#512717"/>
<path d="M29.9072 76.6717C30.7965 73.8784 31.3525 70.941 31.8657 68.052L32.0735 66.7955C32.0887 66.6981 32.1805 66.6312 32.2779 66.6475C32.3693 66.6628 32.4325 66.7457 32.4258 66.8363L32.3273 68.1103L32.2143 69.3839C31.9568 71.9526 31.6718 74.5061 31.0946 77.0318C30.8582 77.8605 29.6441 77.4978 29.9072 76.6717Z" fill="#512717"/>
<g opacity="0.25">
<path d="M37.1534 61.3068C37.1534 61.3068 37.1445 61.4502 37.1267 61.7107C34.7393 64.0714 35.1931 67.9795 33.9667 71.9705C32.6373 76.2948 33.7452 77.3298 33.8124 77.3885C32.7507 76.7203 32.3025 75.5489 30.7056 76.6954C30.9022 75.1554 31.2233 72.2291 31.8346 70.0101C32.7206 66.7951 34.2309 61.6554 34.2309 61.6554C38.3977 58.5485 37.327 54.1762 37.327 54.1762H37.3288C39.8563 56.1028 37.1534 61.3064 37.1534 61.3064V61.3068Z" fill="#512717"/>
</g>
<g opacity="0.25">
<path d="M30.502 67.0225C29.3109 71.8077 25.9877 74.0728 26.6526 75.8645C27.317 77.6561 28.7794 77.3885 28.7794 77.3885C28.7794 77.3885 28.432 77.6208 27.8845 77.9486H27.8827C26.6154 77.9486 25.4262 77.2555 24.6145 76.2826C23.2852 74.6875 21.6459 77.7003 19.519 78.25C18.3566 78.5514 17.6597 78.0303 17.3286 77.3655C18.3283 77.2484 20.7952 76.646 23.4182 73.58C26.8298 69.5924 29.6602 63.6072 29.7293 60.5746H32.2494L33.4015 59.8444C33.4015 59.8444 31.6912 62.237 30.502 67.0221V67.0225Z" fill="#512717"/>
</g>
<path d="M47.0644 65.8043C47.7999 63.5239 48.8085 61.3595 50.1144 59.3572C50.2315 59.1751 50.5192 59.3334 50.4236 59.53C50.1713 60.0558 49.9268 60.5828 49.7157 61.1247C49.0809 62.7219 48.5815 64.4136 48.2708 66.0968C48.0864 66.9486 46.8381 66.6498 47.0644 65.8043Z" fill="#512717"/>
<path d="M42.3055 73.9468C42.7946 74.5905 43.1714 75.2684 43.5115 75.9908C43.6735 76.3435 43.8244 76.6995 43.9526 77.0637C44.0864 77.4253 44.1942 77.7955 44.2945 78.1649C44.3332 78.3068 44.2495 78.4533 44.1076 78.4919C43.9794 78.5269 43.8478 78.4618 43.7947 78.3448C43.643 78.0077 43.4858 77.6751 43.306 77.3547C42.7901 76.4256 42.1528 75.5274 41.3943 74.7889C40.7599 74.1605 41.7273 73.2638 42.3055 73.9472V73.9468Z" fill="#512717"/>
<path d="M93.3315 76.1042C92.6956 77.3752 92.1463 78.7275 91.8037 80.1115C91.7286 80.4285 91.2548 80.356 91.2782 80.0316C91.4023 78.5261 91.7375 77.0671 92.1872 75.6251C92.4968 74.7897 93.7098 75.2959 93.3315 76.1045V76.1042Z" fill="#512717"/>
<path d="M42.834 26.0026C49.5389 26.0026 54.9742 20.5672 54.9742 13.8624C54.9742 7.15752 49.5389 1.72217 42.834 1.72217C36.1292 1.72217 30.6938 7.15752 30.6938 13.8624C30.6938 20.5672 36.1292 26.0026 42.834 26.0026Z" fill="#C97043"/>
<path d="M54.9735 13.862C54.9735 20.5666 49.5394 26.0022 42.8333 26.0022C37.316 26.0022 32.6583 22.3211 31.1821 17.2807C33.3514 20.5771 37.0856 22.7519 41.327 22.7519C48.0335 22.7519 53.4672 17.3163 53.4672 10.6117C53.4672 9.42429 53.297 8.27742 52.9782 7.19299C54.2399 9.10691 54.9738 11.3988 54.9738 13.8624L54.9735 13.862Z" fill="#B25B36"/>
<g opacity="0.6">
<path d="M54.2486 9.72531C52.2176 5.86179 48.166 3.22801 43.4976 3.22801C36.7929 3.22801 31.3574 8.66355 31.3574 15.3682C31.3574 16.818 31.6127 18.2094 32.0806 19.4993C31.1946 17.8154 30.6929 15.8963 30.6929 13.8616C30.6929 7.15694 36.1284 1.72141 42.8331 1.72141C48.0861 1.72141 52.5595 5.05683 54.2486 9.72531Z" fill="white"/>
</g>
<path d="M85.5035 24.1693C92.0064 24.1693 97.278 18.8977 97.278 12.3948C97.278 5.8919 92.0064 0.62027 85.5035 0.62027C79.0006 0.62027 73.729 5.8919 73.729 12.3948C73.729 18.8977 79.0006 24.1693 85.5035 24.1693Z" fill="#C97043"/>
<g opacity="0.6">
<path d="M95.6905 6.48576C93.5406 3.64833 90.1342 1.8158 86.3008 1.8158C79.7983 1.8158 74.5256 7.08856 74.5256 13.5911C74.5256 15.7443 75.1035 17.763 76.1136 19.5C74.6159 17.5256 73.728 15.0638 73.728 12.3948C73.728 5.89226 79.0008 0.619507 85.5033 0.619507C89.8525 0.619507 93.6506 2.97865 95.6905 6.48576Z" fill="white"/>
</g>
<path d="M97.2787 12.3948C97.2787 18.8973 92.0059 24.17 85.5034 24.17C81.6221 24.17 78.1803 22.2914 76.0356 19.3952C78.0934 21.1568 80.7677 22.2204 83.6869 22.2204C90.1894 22.2204 95.4621 16.9477 95.4621 10.4452C95.4621 7.82216 94.6044 5.40133 93.1546 3.44467C95.6784 5.6035 97.2787 8.81294 97.2787 12.3948Z" fill="#B25B36"/>
<path d="M42.8342 26.6228C35.798 26.6228 30.0737 20.8985 30.0737 13.8624C30.0737 6.8262 35.7977 1.10153 42.8342 1.10153C49.8707 1.10153 55.5946 6.82582 55.5946 13.862C55.5946 20.8982 49.8704 26.6224 42.8342 26.6224V26.6228ZM42.8342 2.34242C36.4818 2.34242 31.3139 7.51038 31.3139 13.8627C31.3139 20.2151 36.4818 25.3827 42.8342 25.3827C49.1865 25.3827 54.3545 20.2147 54.3545 13.8627C54.3545 7.51075 49.1862 2.34205 42.8342 2.34205V2.34242Z" fill="#512717"/>
<path d="M88.9148 15.3756C90.5137 13.7767 90.5137 11.1843 88.9148 9.58539C87.3159 7.98646 84.7235 7.98647 83.1246 9.58539C81.5257 11.1843 81.5257 13.7767 83.1246 15.3756C84.7235 16.9745 87.3159 16.9745 88.9148 15.3756Z" fill="#F9D9C2"/>
<path d="M90.113 12.3662C89.4184 11.0067 87.988 10.0906 86.3591 10.1297C84.0996 10.1865 82.3127 12.0651 82.3696 14.3265V14.3373C82.1002 13.8092 81.9426 13.2139 81.9266 12.5828C81.8698 10.3233 83.6566 8.44429 85.9161 8.3878C88.1742 8.33094 90.0491 10.1103 90.113 12.3665V12.3662Z" fill="#E0B299"/>
<path d="M85.5037 24.7892C78.6693 24.7892 73.1089 19.2291 73.1089 12.3944C73.1089 5.55966 78.6693 0 85.5037 0C92.338 0 97.8984 5.56003 97.8984 12.3948C97.8984 19.2295 92.3384 24.7895 85.5037 24.7895V24.7892ZM85.5037 1.24052C79.3535 1.24052 74.3494 6.24421 74.3494 12.3948C74.3494 18.5453 79.3531 23.549 85.5037 23.549C91.6542 23.549 96.6579 18.5453 96.6579 12.3948C96.6579 6.24421 91.6542 1.24052 85.5037 1.24052Z" fill="#512717"/>
<path d="M86.0179 17.1952C83.4726 17.1952 81.371 15.1575 81.3067 12.5988C81.2751 11.3397 81.7356 10.1441 82.6037 9.23141C83.4715 8.31867 84.6429 7.79913 85.902 7.76754C85.9417 7.76642 85.9819 7.76605 86.0213 7.76605C88.567 7.76605 90.6686 9.80373 90.7328 12.3628C90.7644 13.6219 90.3036 14.8175 89.4358 15.7302C88.5681 16.6429 87.3967 17.1625 86.1376 17.1937C86.0978 17.1948 86.0577 17.1952 86.0179 17.1952ZM86.0209 9.00657C85.9915 9.00657 85.9625 9.00657 85.9328 9.00768C84.0181 9.05563 82.4989 10.6525 82.5468 12.5676C82.5948 14.4822 84.1869 16.0041 86.1064 15.9535C87.034 15.9305 87.8969 15.5473 88.5369 14.8751C89.1764 14.2028 89.5157 13.3216 89.4927 12.394C89.4455 10.5087 87.8965 9.00694 86.0209 9.00694V9.00657Z" fill="#512717"/>
<path d="M43.2739 18.9813C45.8643 18.9813 47.9643 16.7555 47.9643 14.0099C47.9643 11.2643 45.8643 9.03854 43.2739 9.03854C40.6835 9.03854 38.5835 11.2643 38.5835 14.0099C38.5835 16.7555 40.6835 18.9813 43.2739 18.9813Z" fill="#F9D9C2"/>
<path d="M47.9356 13.4614C47.1273 11.9655 45.6069 10.9588 43.8647 10.9588C41.2736 10.9588 39.175 13.1849 39.175 15.9301C39.175 16.1163 39.1839 16.3006 39.2051 16.4831C38.8082 15.7547 38.583 14.9092 38.583 14.0091C38.583 11.2639 40.6831 9.03778 43.2742 9.03778C45.6898 9.03778 47.6784 10.9733 47.9352 13.4614H47.9356Z" fill="#E0B299"/>
<path d="M43.2737 19.6015C40.3456 19.6015 37.9634 17.093 37.9634 14.0099C37.9634 10.9268 40.3456 8.41827 43.2737 8.41827C46.2018 8.41827 48.5843 10.9268 48.5843 14.0099C48.5843 17.093 46.2022 19.6015 43.2737 19.6015ZM43.2737 9.65879C41.0294 9.65879 39.2039 11.6106 39.2039 14.0103C39.2039 16.4099 41.0297 18.3614 43.2737 18.3614C45.5176 18.3614 47.3438 16.4095 47.3438 14.0103C47.3438 11.611 45.518 9.65879 43.2737 9.65879Z" fill="#512717"/>
<path d="M76.2696 7.07817C68.4501 4.06273 59.6327 4.78258 52.456 9.11064C45.2838 13.4361 40.8785 20.5302 40.4611 28.1792C40.4611 28.1792 40.3429 33.1417 38.807 37.2772C37.271 41.4128 36.3382 52.4808 57.0617 55.6501C79.2728 59.0472 92.4488 52.1646 95.0484 44.2484C97.6476 36.3322 93.0267 32.6697 91.2673 26.7614C89.7005 21.4991 87.5201 11.4166 76.2693 7.07817H76.2696Z" fill="#C97043"/>
<path d="M95.0487 44.2483C92.4488 52.1653 79.2732 59.0472 57.0609 55.6497C42.7195 53.4574 38.7494 47.4793 38.1733 42.6373C40.13 46.5398 45.0322 50.4283 55.9973 52.1051C78.2096 55.5026 91.3851 48.6206 93.9851 40.7037C94.8005 38.2208 94.9049 36.156 94.6106 34.3093C95.7805 37.0743 96.4201 40.0674 95.0484 44.2483H95.0487Z" fill="#B25B36"/>
<g opacity="0.6">
<path d="M89.6224 21.4441C87.6234 16.7864 84.1352 11.7637 77.0374 9.02738C69.2178 6.01267 60.4008 6.73216 53.2245 11.0602C46.0519 15.3846 41.6458 22.4791 41.2296 30.1284C41.2296 30.1284 41.1107 35.0909 39.5762 39.2257C38.9823 40.8226 38.481 43.4508 39.2785 46.26C37.4869 42.7614 38.0785 39.2398 38.8069 37.278C40.3436 33.1413 40.4622 28.1788 40.4622 28.1788C40.8788 20.5313 45.2845 13.4368 52.4571 9.11062C59.6333 4.78256 68.4504 4.06308 76.27 7.07778C84.3731 10.2025 87.7706 16.3081 89.6224 21.4441Z" fill="white"/>
</g>
<path d="M77.1745 42.4485C77.3451 47.1947 73.5871 49.8184 68.8409 49.9894C64.0948 50.16 60.1577 47.8135 59.9871 43.0669C59.8165 38.3208 63.5254 34.3346 68.2716 34.164C73.0177 33.9935 77.0039 37.7024 77.1745 42.4485Z" fill="#F9D9C2"/>
<path d="M70.3435 36.7056C69.0922 35.8943 66.0344 36.1155 64.8879 37.1832C64.6712 37.385 64.6742 37.7477 64.8805 37.9688C65.355 38.4776 66.3466 39.326 67.6871 39.3316C67.7134 39.3316 67.7387 39.3301 67.7647 39.326C68.0401 39.2855 69.6511 38.9878 70.5119 37.4552C70.6553 37.1999 70.5843 36.8613 70.3435 36.7053V36.7056Z" fill="#512717"/>
<path d="M73.994 37.7953C74.0713 39.4535 73.5473 41.3737 71.9731 42.2664C70.7693 42.9889 69.1535 42.8383 67.9564 42.2527L68.573 42.1668C68.127 42.5652 67.6242 42.9164 67.0593 43.191C65.1257 44.1599 63.0862 43.6236 62.0783 41.6614C61.9404 41.4005 62.2812 41.1374 62.4971 41.3358C62.9067 41.7049 63.3307 42.0267 63.7733 42.2252C65.2134 42.8714 66.6137 41.9665 67.8186 41.1835C68.0047 41.0634 68.2292 41.0419 68.4251 41.1043C69.5351 41.4711 70.756 41.6346 71.7378 40.9538C72.7501 40.2622 73.1805 38.9488 73.4641 37.7525C73.5243 37.4474 73.984 37.4823 73.994 37.7956V37.7953Z" fill="#512717"/>
<path d="M68.1899 42.2984C67.9104 42.2984 67.6566 42.1085 67.5878 41.8246C67.5744 41.7692 67.2585 40.4447 67.3923 39.0172C67.4239 38.6761 67.7253 38.4226 68.0676 38.4575C68.4088 38.4895 68.6592 38.7916 68.6273 39.1328C68.5136 40.3473 68.7908 41.5206 68.7938 41.5324C68.8737 41.8654 68.6693 42.2003 68.3363 42.2809C68.2872 42.2928 68.2382 42.2984 68.1899 42.2984Z" fill="#512717"/>
<path d="M68.1985 57.1645C64.7597 57.1645 61.0144 56.8825 56.968 56.2637C47.8176 54.8641 41.7897 51.7944 39.0519 47.1397C36.4527 42.7213 37.7623 38.3089 38.2254 37.0617C39.706 33.0759 39.8398 28.2134 39.8412 28.1651C39.8412 28.1588 39.8412 28.1525 39.842 28.1462C40.2712 20.2783 44.8669 12.9638 52.1357 8.57995C59.4015 4.19763 68.5069 3.4198 76.493 6.49991C87.2738 10.6574 89.9421 19.9267 91.5364 25.4652C91.6494 25.858 91.7572 26.2322 91.862 26.5849C92.3726 28.2989 93.1475 29.852 93.8974 31.3541C95.688 34.9408 97.5398 38.6497 95.6378 44.4423C93.4418 51.1299 84.1004 57.1649 68.1985 57.1649V57.1645ZM41.081 28.2045C41.0728 28.5245 40.9234 33.3613 39.3882 37.4935C38.9731 38.611 37.7995 42.5641 40.1211 46.5109C42.6608 50.8285 48.3922 53.6972 57.1557 55.0377C67.2556 56.5822 76.2618 56.0879 83.201 53.608C89.0487 51.5183 93.1519 48.0364 94.4593 44.0551C96.2023 38.747 94.5437 35.425 92.7877 31.9078C92.014 30.3585 91.2142 28.7564 90.6731 26.9387C90.5672 26.5827 90.4583 26.2047 90.3442 25.8082C88.8134 20.4912 86.2521 11.5928 76.0463 7.65718C68.4151 4.71494 59.7163 5.4571 52.776 9.64208C45.8625 13.8118 41.4909 20.751 41.081 28.2045Z" fill="#512717"/>
<path d="M91.8412 78.6331C91.7862 78.8457 91.7297 79.0531 91.6729 79.2534C91.7542 78.9237 91.82 78.7041 91.8412 78.6331Z" fill="#512717"/>
<path d="M17.6563 89.1318C17.6563 89.1318 13.8474 89.7525 11.5432 89.531C9.23911 89.3095 9.90397 87.6702 9.90397 87.6702C9.90397 87.6702 13.844 87.1822 17.6563 89.1322V89.1318Z" fill="white"/>
<g opacity="0.25">
<path d="M17.6563 89.1318C17.6563 89.1318 13.8474 89.7525 11.5432 89.531C9.23911 89.3095 9.90397 87.6702 9.90397 87.6702C9.90397 87.6702 13.844 87.1822 17.6563 89.1322V89.1318Z" fill="#512717"/>
</g>
<path d="M32.6993 88.3347C31.9691 88.9992 27.1787 88.5863 25.3655 88.4376C25.3655 88.4376 22.4872 91.6136 18.8983 89.7528C15.3094 87.8921 12.3408 86.8727 9.90397 87.6702C9.70886 87.7341 9.51747 87.8032 9.33165 87.8757C7.19438 88.7071 5.65395 89.9918 4.67581 89.1764C3.61256 88.2904 10.8345 79.3381 18.4557 84.4355C18.4557 84.4355 21.5733 83.7231 24.6144 83.7673C26.0021 83.7866 27.3719 83.9624 28.4248 84.4355C31.7922 85.9421 33.4299 87.6698 32.6997 88.3347H32.6993Z" fill="white"/>
<g opacity="0.25">
<path d="M32.699 88.3347C31.9688 88.9991 27.1784 88.5863 25.3652 88.4376C25.3652 88.4376 22.4869 91.6136 18.898 89.7528C15.3091 87.8921 12.3405 86.8727 9.90367 87.6702C9.70856 87.7341 9.51717 87.8032 9.33135 87.8757C9.32764 87.5851 9.32764 87.3955 9.32764 87.3955C9.32764 87.3955 14.4231 86.3854 17.6556 87.9448C20.8885 89.5061 22.6199 88.4235 24.6137 86.6066C26.6075 84.79 24.6137 83.7673 24.6137 83.7673C26.0014 83.7866 27.3713 83.9624 28.4241 84.4355C31.7915 85.9421 33.4293 87.6698 32.699 88.3347Z" fill="#512717"/>
</g>
<path d="M21.1911 90.9499C20.3739 90.9499 19.5032 90.7652 18.6127 90.3036C14.6095 88.228 12.0627 87.6159 10.0967 88.26C9.29213 88.5231 8.54961 88.8873 7.89442 89.2087C6.49261 89.8959 5.28182 90.4898 4.27841 89.6536C3.86478 89.3091 3.63065 88.5524 4.86336 86.9042C7.29683 83.6502 12.926 80.1832 18.5774 83.7743C19.87 83.5045 25.5107 82.4513 28.6781 83.8691C30.8529 84.8424 33.2548 86.3702 33.4741 87.7393C33.5398 88.15 33.4131 88.5242 33.1169 88.7936C32.4602 89.3912 30.4207 89.47 25.6065 89.0802C24.7365 89.9271 23.1132 90.9499 21.1915 90.9499H21.1911ZM11.6843 86.7823C14.1256 86.7823 16.7954 87.9638 19.1839 89.2021C22.2942 90.815 24.8008 88.1351 24.906 88.0206C25.0353 87.8794 25.2256 87.8032 25.4148 87.8199L25.5809 87.8337C30.3129 88.2209 31.8307 88.0894 32.2417 87.8946C32.1406 87.5271 31.0863 86.3066 28.1708 85.0015C25.0335 83.5971 18.657 85.0256 18.593 85.0401C18.4273 85.078 18.2523 85.0457 18.1103 84.9509C14.6381 82.629 11.4279 83.5123 9.34602 84.6618C6.8163 86.0591 5.38253 88.118 5.20861 88.7791C5.60886 88.9282 6.30642 88.6056 7.34774 88.0946C8.03935 87.7553 8.8235 87.371 9.71022 87.0808C10.3427 86.8738 11.0046 86.7823 11.6836 86.7823H11.6843Z" fill="#512717"/>
<path d="M12.68 90.1992C12.2597 90.1992 11.8546 90.1839 11.4841 90.1486C10.4911 90.0531 9.80582 89.7049 9.44756 89.1136C8.98302 88.3469 9.29259 87.5279 9.32938 87.4372C9.45834 87.1198 9.82068 86.9667 10.1373 87.0953C10.4528 87.2231 10.6056 87.5806 10.4818 87.8965C10.4751 87.9155 10.3633 88.238 10.5123 88.4763C10.655 88.7044 11.0422 88.8598 11.603 88.9137C13.799 89.1259 17.5195 88.5261 17.557 88.5197C17.8922 88.4655 18.2137 88.694 18.2691 89.0322C18.3241 89.3704 18.0948 89.6889 17.7566 89.7443C17.6228 89.7662 14.9336 90.1992 12.6804 90.1992H12.68Z" fill="#512717"/>
<path d="M15.4514 86.1844C16.3218 85.1869 17.3192 84.2697 18.5999 83.8252C19.3907 83.5863 19.7743 84.7231 18.9983 85.0111C18.6891 85.0736 18.3836 85.0881 18.0584 85.1973C17.2185 85.4656 16.4154 85.9205 15.6989 86.4382C15.5346 86.5701 15.315 86.3442 15.4514 86.1844Z" fill="#512717"/>
<path d="M25.3645 89.0586C25.2374 89.0586 25.1091 89.0196 24.9988 88.9389C24.7223 88.7368 24.6621 88.3488 24.8642 88.0719C24.9876 87.9032 27.9224 83.9486 30.9215 85.0621C31.2426 85.1813 31.4065 85.5385 31.2872 85.8596C31.1675 86.1807 30.81 86.3434 30.4897 86.2253C28.3951 85.4467 25.8903 88.7706 25.8654 88.804C25.7439 88.9702 25.5555 89.0582 25.3641 89.0582L25.3645 89.0586Z" fill="#512717"/>
<path d="M68.755 36.929C68.7677 37.1104 68.3098 37.2906 67.7319 37.3311C67.154 37.3716 66.6754 37.2575 66.6624 37.0762C66.6497 36.8948 67.1076 36.7146 67.6855 36.6741C68.2634 36.6336 68.742 36.7476 68.755 36.929Z" fill="white"/>
<path d="M85.5034 28.025C81.0858 27.1687 77.9213 29.6111 76.1705 33.4921L75.0697 32.5493C76.5332 31.7328 78.2052 31.1646 79.8995 31.1449C81.5696 31.1181 83.2149 31.6113 84.6167 32.4738C83.0848 32.139 81.5195 31.9613 79.9909 32.2245C78.5077 32.4649 77.1331 33.0781 75.842 33.8756C75.2214 34.2673 74.4528 33.5984 74.7412 32.9328C76.3073 28.5765 81.1456 25.4522 85.5034 28.025Z" fill="#512717"/>
<path d="M48.9683 32.0513C51.6325 29.5654 55.4916 29.8921 58.2428 32.0937C59.1354 32.7912 59.9189 33.6218 60.5194 34.5963C60.7666 34.9541 60.6673 35.4514 60.2946 35.6796C60.0917 35.8048 59.8494 35.8219 59.6405 35.7487C58.2112 35.2392 56.7384 34.9274 55.2381 35.0028C53.6884 35.0656 52.1952 35.567 50.767 36.2155C53.3175 33.7489 56.7979 33.2246 60.1184 34.2897L59.2395 35.4421C56.7139 32.0127 53.1072 30.289 48.9686 32.0509L48.9683 32.0513Z" fill="#512717"/>
</g>
<defs>
<clipPath id="clip0_0_745">
<rect width="106.628" height="96" fill="white"/>
</clipPath>
</defs>
</svg>
