<svg width="140" height="96" viewBox="0 0 140 96" fill="none" xmlns="http://www.w3.org/2000/svg">
<g clip-path="url(#clip0_0_351)">
<path d="M83.9434 68.8397C89.544 69.1105 93.0962 66.5762 94.6654 72.0732C94.921 72.9677 94.9053 74.2414 95.603 76.2563C97.2202 80.9281 104.118 82.0041 107.592 80.034C114.197 76.2887 106.219 70.1459 106.219 70.1459C106.219 70.1459 108.639 53.3915 92.2916 59.5704" fill="#B5CFDD"/>
<path d="M103.576 81.0884C102.315 81.0884 101.008 80.8636 99.8089 80.4082C97.6655 79.5949 96.1341 78.1334 95.4971 76.2933C95.0438 74.9844 94.891 73.9968 94.7684 73.2034C94.7028 72.7805 94.6466 72.4153 94.5577 72.1043C93.4499 68.225 91.3411 68.4371 88.1493 68.7608C86.9085 68.8858 85.5019 69.0289 83.9381 68.9526C83.8761 68.9499 83.8285 68.8966 83.8312 68.8343C83.8343 68.772 83.8896 68.7206 83.9489 68.7274C85.4965 68.8009 86.8936 68.661 88.1268 68.5364C91.3128 68.2142 93.6143 67.9822 94.7738 72.0425C94.8663 72.367 94.9238 72.7385 94.9903 73.1691C95.1116 73.9535 95.2625 74.9298 95.7091 76.2197C96.3241 77.9958 97.8079 79.408 99.8884 80.1974C102.464 81.1746 105.538 81.0699 107.537 79.9361C109.139 79.028 109.997 77.9005 110.089 76.5849C110.306 73.4737 106.192 70.2678 106.15 70.2358C106.118 70.2109 106.102 70.1703 106.108 70.1301C106.118 70.0579 107.102 62.8874 103.243 59.7686C100.884 57.8617 97.2132 57.8305 92.3308 59.6761C92.2728 59.6986 92.2077 59.6684 92.1861 59.6102C92.1641 59.5519 92.1938 59.4869 92.2517 59.4648C97.2136 57.589 100.959 57.6324 103.385 59.593C107.142 62.6301 106.43 69.3583 106.339 70.0963C106.844 70.4962 110.528 73.5243 110.313 76.6002C110.216 77.9962 109.319 79.1846 107.647 80.1324C106.529 80.7666 105.085 81.0884 103.576 81.0884Z" fill="#000072"/>
<path d="M107.592 80.035C104.877 81.5736 100.067 81.2536 97.3244 78.8064C96.5584 78.1253 95.9546 77.2759 95.602 76.2577C94.9052 74.2424 94.9205 72.9683 94.6658 72.0732C93.0952 66.5772 89.5444 69.1106 83.9424 68.8398L92.2906 59.5709C96.8518 57.8473 99.9524 57.9082 102.053 58.893C107.476 61.4386 106.219 70.1464 106.219 70.1464C106.219 70.1464 114.197 76.2902 107.592 80.0354V80.035Z" fill="#B5CFDD"/>
<path d="M103.55 81.0749C101.335 81.0749 98.9425 80.4006 97.2498 78.8904C96.4299 78.161 95.8401 77.2876 95.496 76.2942C95.0431 74.9844 94.8904 73.9964 94.7677 73.2021C94.7026 72.7791 94.646 72.4145 94.5575 72.1035C93.4492 68.2251 91.3405 68.4381 88.1491 68.7599C86.9083 68.8854 85.5013 69.0276 83.937 68.9513C83.8934 68.9495 83.8552 68.9224 83.8386 68.8818C83.822 68.8412 83.8301 68.7951 83.8593 68.7626L92.2075 59.4938C92.2196 59.4807 92.2345 59.4703 92.2511 59.464C96.3985 57.8969 99.7121 57.6699 102.1 58.7892C107.285 61.2233 106.439 69.2826 106.338 70.0954C106.843 70.4953 110.527 73.5239 110.312 76.5998C110.215 77.9963 109.318 79.1847 107.647 80.1325C106.572 80.7414 105.105 81.074 103.549 81.074L103.55 81.0749ZM90.3966 68.3772C92.4169 68.3772 93.911 69.0221 94.7736 72.0421C94.8661 72.3666 94.9232 72.7381 94.9897 73.1682C95.111 73.9531 95.2619 74.9303 95.708 76.2207C96.0391 77.1771 96.6078 78.0184 97.3985 78.722C100.209 81.2302 104.998 81.3759 107.537 79.937C109.138 79.0289 109.997 77.9015 110.089 76.5854C110.306 73.4738 106.192 70.2679 106.151 70.2358C106.119 70.211 106.103 70.1704 106.108 70.1302C106.121 70.044 107.29 61.4761 102.005 58.9955C99.6793 57.9046 96.4331 58.1307 92.3562 59.6671L84.1868 68.7369C85.6401 68.7865 86.9577 68.6543 88.1271 68.5365C88.9429 68.4539 89.7012 68.3776 90.3966 68.3776V68.3772Z" fill="#000072"/>
<g opacity="0.6">
<path d="M109.269 78.7265C109.28 73.5162 105.396 71.634 105.396 71.634C105.396 71.634 106.653 62.9262 101.23 60.3806C99.1294 59.3958 96.0292 59.3349 91.4676 61.0585L84.4451 68.8546C84.2798 68.8528 84.1113 68.8479 83.9424 68.8393L92.2906 59.5705C96.8518 57.8468 99.9524 57.9077 102.053 58.8925C107.476 61.4381 106.219 70.146 106.219 70.146C106.219 70.146 112.542 75.0151 109.269 78.7265Z" fill="white"/>
</g>
<path d="M103.571 81.6503C102.241 81.6503 100.869 81.4147 99.61 80.9372C97.3076 80.0634 95.6585 78.4805 94.9653 76.4793C94.4954 75.1221 94.3319 74.0632 94.2119 73.2901C94.1495 72.8861 94.0956 72.5372 94.0165 72.2601C93.0385 68.8344 91.4235 68.9977 88.2047 69.3227C86.9446 69.45 85.5169 69.5949 83.9104 69.5168C83.5384 69.4987 83.2509 69.181 83.2689 68.8073C83.2868 68.4331 83.6044 68.1415 83.9755 68.1628C85.4805 68.2354 86.8565 68.0964 88.0699 67.9741C91.2645 67.6505 94.0246 67.372 95.3139 71.8864C95.4163 72.2447 95.4761 72.6329 95.5457 73.082C95.6634 73.8438 95.8103 74.7926 96.2403 76.0338C96.7991 77.6487 98.1652 78.9396 100.087 79.6689C102.477 80.5761 105.427 80.4841 107.26 79.4442C108.686 78.6358 109.449 77.6609 109.527 76.5474C109.725 73.7437 105.847 70.7147 105.808 70.6844C105.614 70.535 105.516 70.2918 105.551 70.0494C105.561 69.9808 106.495 63.1194 102.888 60.2073C100.695 58.4371 97.2093 58.4362 92.5286 60.2055C92.1805 60.3373 91.791 60.1599 91.6593 59.8097C91.5282 59.4594 91.7047 59.0681 92.0533 58.9363C97.2147 56.9852 101.146 57.0583 103.737 59.153C107.446 62.1513 107.098 68.2431 106.933 69.8548C107.946 70.7088 111.085 73.6114 110.874 76.6399C110.762 78.2373 109.77 79.5777 107.924 80.6249C106.724 81.3051 105.179 81.6503 103.571 81.6503Z" fill="#000072"/>
<path d="M105.003 72.126C105.101 71.732 105.203 71.3822 105.279 71.0387C105.318 70.8681 105.346 70.6984 105.389 70.5373C105.433 70.3757 105.474 70.2168 105.553 70.0607L105.564 70.039C105.679 69.8111 105.956 69.7199 106.183 69.8359C106.337 69.9149 106.429 70.0697 106.435 70.2322C106.442 70.4443 106.388 70.6488 106.316 70.8438C106.242 71.0387 106.131 71.2184 106.011 71.3867C105.767 71.7221 105.468 72.0105 105.103 72.2055C105.069 72.224 105.026 72.2109 105.009 72.1766C105 72.1608 104.999 72.1423 105.003 72.1256V72.126Z" fill="#000072"/>
<g opacity="0.3">
<path d="M102.51 71.8899C102.51 71.8899 101.466 75.0322 97.3244 78.8064C96.5584 78.1253 95.9546 77.2759 95.602 76.2576C94.9052 74.2424 94.9205 72.9682 94.6658 72.0732C93.0952 66.5771 89.5444 69.1106 83.9424 68.8397L92.2906 59.5709C92.69 59.4201 93.0777 59.2829 93.4551 59.1588C98.2619 57.5773 103.187 61.1867 103.127 66.268C103.089 69.4915 102.51 71.8899 102.51 71.8899Z" fill="#000072"/>
</g>
<path d="M96.0353 75.6014C96.0353 75.6014 89.7837 82.2127 73.6218 81.0636C63.6271 80.3518 52.8516 72.2948 52.8516 72.2948L72.0229 53.9643C72.0229 53.9643 74.9767 52.3611 78.9525 51.0188C80.125 50.6207 81.3883 50.2479 82.6888 49.9428C85.3694 49.3172 88.2185 48.9905 90.8007 49.3786C92.5231 49.6381 94.1287 50.2159 95.4868 51.2346C99.6751 54.3782 101.118 58.151 101.183 61.7794C101.317 68.977 96.0349 75.6018 96.0349 75.6018L96.0353 75.6014Z" fill="#B5CFDD"/>
<path d="M77.268 81.3091C76.1099 81.3091 74.8929 81.2672 73.6143 81.1764C63.7014 80.4705 52.8931 72.4664 52.7848 72.3856C52.7583 72.3657 52.7417 72.335 52.7399 72.3016C52.7381 72.2682 52.7507 72.2357 52.7745 72.2131L71.9459 53.8826C71.9531 53.8758 71.9611 53.87 71.9697 53.865C71.9993 53.8488 74.9773 52.242 78.9167 50.9119C80.1814 50.4822 81.4419 50.1193 82.6634 49.8327C85.7623 49.1096 88.5062 48.9192 90.8176 49.2667C92.6725 49.5461 94.2664 50.1775 95.5544 51.1439C99.2871 53.9458 101.219 57.5232 101.296 61.7771C101.429 68.9328 96.1761 75.6055 96.1231 75.6723C96.1213 75.6745 96.1191 75.6772 96.1168 75.6795C96.0589 75.7404 90.6253 81.3096 77.2676 81.3096L77.268 81.3091ZM53.027 72.2836C54.1806 73.1204 64.3133 80.2877 73.6301 80.9512C89.4146 82.0742 95.779 75.7039 95.9511 75.5269C96.1043 75.3324 101.201 68.7834 101.072 61.7812C100.996 57.6004 99.0944 54.0826 95.4201 51.3248C94.1622 50.3815 92.6024 49.7641 90.7843 49.4901C88.5008 49.1475 85.7856 49.3362 82.7142 50.0529C81.4999 50.3377 80.2465 50.6988 78.9882 51.1258C75.1997 52.4049 72.3075 53.9395 72.0892 54.0568L53.0265 72.2836H53.027Z" fill="#000072"/>
<g opacity="0.3">
<path d="M96.0358 75.6014C96.0358 75.6014 89.7842 82.2127 73.6223 81.0636C63.6275 80.3518 52.8521 72.2948 52.8521 72.2948L55.2928 69.9609C59.4442 71.4711 67.084 73.9301 73.9143 74.4166C90.0762 75.5657 96.0358 69.2559 96.0358 69.2559C96.0358 69.2559 101.188 67.0588 100.842 58.9891C101.061 59.9194 101.167 60.8532 101.184 61.7789C101.318 68.9765 96.0358 75.6014 96.0358 75.6014Z" fill="#000072"/>
</g>
<path d="M101.184 61.7789C98.4176 65.192 93.0702 66.2143 88.2827 63.9684C82.7683 61.3822 80.0845 55.4402 82.2894 50.6947C82.4107 50.4357 82.5423 50.1847 82.6892 49.9424C87.1578 48.9002 92.0918 48.6867 95.4876 51.2337C99.6759 54.3773 101.118 58.1501 101.184 61.7785V61.7789Z" fill="white"/>
<path d="M77.3459 81.8769C76.1518 81.8769 74.8966 81.8336 73.574 81.7397C63.4989 81.023 52.8955 73.1718 52.4494 72.8378C52.2899 72.7186 52.1906 72.5345 52.1785 72.335C52.1664 72.1355 52.2427 71.9405 52.3869 71.8029L71.5588 53.4737C71.6019 53.4322 71.6504 53.397 71.703 53.3685C72.3606 53.0115 87.9012 44.6936 95.8919 50.6907C99.2998 53.2485 101.27 56.4521 101.748 60.2127C102.757 68.1483 96.8164 75.7066 96.5631 76.0243C96.5514 76.0392 96.5388 76.0536 96.5258 76.0676C96.2827 76.3244 90.8617 81.8769 77.3454 81.8769H77.3459ZM53.9112 72.2176C56.3785 73.9314 65.3745 79.7971 73.6693 80.3875C88.8424 81.4671 95.143 75.5328 95.5303 75.1509C95.9094 74.6612 101.32 67.5173 100.409 60.3784C99.9777 56.9987 98.1862 54.1051 95.0846 51.7766C88.0513 46.4981 73.6109 53.8948 72.4217 54.5204L53.9112 72.2172V72.2176Z" fill="#000072"/>
<path d="M26.8793 69.6626C26.8793 69.6626 12.8688 76.4879 12.8877 77.8803C12.907 79.2727 30.7985 72.674 30.7985 72.674" fill="#DD8E58"/>
<path d="M13.3338 78.1759C13.1249 78.1759 12.974 78.1488 12.8904 78.091C12.8163 78.0396 12.7763 77.9673 12.7754 77.882C12.7556 76.4589 25.3897 70.2633 26.8299 69.561C26.8861 69.5335 26.953 69.5574 26.98 69.6134C27.0069 69.6693 26.984 69.7366 26.9279 69.7641C21.3218 72.4952 12.9866 76.9098 12.9996 77.8789C12.9996 77.8856 12.9996 77.8929 13.0176 77.9051C13.0804 77.9484 13.1964 77.9691 13.3594 77.9691C15.3693 77.9691 24.5864 74.8449 30.7594 72.5683C30.8183 72.5476 30.8821 72.5769 30.9036 72.6356C30.9252 72.6938 30.8951 72.7588 30.8371 72.7805C29.2459 73.3672 16.1209 78.1763 13.3334 78.1763L13.3338 78.1759Z" fill="#000072"/>
<path d="M30.799 72.6731L29.254 71.4865L26.8798 69.6608C26.8798 69.6608 19.9008 73.059 15.801 75.5508C14.0926 76.5894 12.8819 77.4713 12.8877 77.8802C12.9079 79.2722 30.799 72.6731 30.799 72.6731Z" fill="#E57C35"/>
<g opacity="0.3">
<path d="M30.7985 72.6726C30.7985 72.6726 12.9074 79.2722 12.8872 77.8807C12.8823 77.4993 13.9416 76.7013 15.4766 75.7503C18.5081 75.1776 25.382 72.8048 29.1992 71.4454L29.2531 71.486L30.798 72.6721L30.7985 72.6726Z" fill="#000072"/>
</g>
<path d="M13.31 78.7536C12.8567 78.7536 12.7035 78.6475 12.5719 78.5564C12.3477 78.4016 12.217 78.1583 12.2134 77.8897C12.2058 77.3481 12.1954 76.607 19.5585 72.6514C23.0302 70.7864 26.55 69.0695 26.5851 69.0524C26.9197 68.8899 27.3241 69.0298 27.4867 69.3665C27.6493 69.7037 27.5091 70.109 27.174 70.2724C22.0086 72.7886 16.4893 75.758 14.3846 77.2687C17.1982 76.6973 24.2032 74.3841 30.5667 72.0371C30.9162 71.908 31.3043 72.0886 31.4324 72.4402C31.5609 72.7918 31.3812 73.1813 31.0316 73.3104C30.9899 73.3257 26.8074 74.8666 22.5334 76.287C16.4929 78.2946 14.2529 78.7536 13.31 78.7536Z" fill="#000072"/>
<path d="M115.274 82.7575C115.274 82.7575 127.706 95.6479 129.129 95.3035C130.552 94.9587 116.851 78.003 116.851 78.003" fill="#E57C35"/>
<g opacity="0.3">
<path d="M116.85 78.0021L115.275 82.7579C115.275 82.7579 127.705 95.6479 129.128 95.3044C129.542 95.2051 128.68 93.7049 127.25 91.6291C123.118 87.9331 117.265 81.862 117.265 81.862L118.049 79.4965C117.31 78.5694 116.85 78.0021 116.85 78.0021Z" fill="#000072"/>
</g>
<path d="M129.03 96C128.426 96 127.055 95.3139 121.2 89.6482C117.944 86.4969 114.821 83.2616 114.79 83.2291C114.531 82.9601 114.538 82.5313 114.805 82.2705C115.073 82.0096 115.5 82.0168 115.759 82.2858C120.373 87.0696 125.563 92.0818 127.949 93.9161C126.231 91.0902 121.177 84.432 116.327 78.4304C116.092 78.1397 116.136 77.7128 116.425 77.4767C116.715 77.2411 117.14 77.2853 117.375 77.5756C117.407 77.6153 120.623 81.598 123.742 85.6939C130.258 94.2515 130.028 94.9357 129.86 95.4349C129.771 95.6998 129.557 95.8966 129.287 95.9621C129.212 95.9806 129.132 96 129.03 96Z" fill="#000072"/>
<path d="M127.68 76.7623C127.899 76.9243 127.886 77.2578 127.647 77.3883C81.7555 102.37 24.8573 73.0025 14.8738 64.051C14.3752 63.6064 14.0908 62.9718 14.0908 62.3029C14.0908 60.9245 15.2171 59.9559 16.4246 59.9559C16.8626 59.9559 17.3114 60.0828 17.7225 60.364C32.9562 70.7738 81.6279 89.4121 127.826 65.8126C126.801 66.3885 126.036 68.6425 126.036 71.3339C126.036 74.0253 126.729 76.0595 127.68 76.7623H127.68Z" fill="#E57C35"/>
<g opacity="0.5">
<path d="M126.307 68.6687C80.5673 91.1006 32.7896 72.757 17.7225 62.4604C17.3119 62.1793 16.8626 62.0524 16.4246 62.0524C15.5558 62.0524 14.7319 62.5534 14.3348 63.3451C14.1766 63.0233 14.0908 62.6672 14.0908 62.302C14.0908 60.9236 15.2171 59.955 16.4246 59.955C16.8626 59.955 17.3114 60.0818 17.7225 60.363C32.9562 70.7729 81.6279 89.4112 127.826 65.8117C127.167 66.1813 126.616 67.2425 126.307 68.6687Z" fill="white"/>
</g>
<g opacity="0.3">
<path d="M14.8746 62.696C24.8252 71.6196 81.3941 100.828 127.209 76.2667C126.78 75.6695 126.436 74.7456 126.235 73.6303C66.6792 97.0588 20.9968 66.2887 14.8076 62.6301C14.8301 62.6518 14.8507 62.6753 14.8746 62.6965V62.696Z" fill="#000072"/>
</g>
<g opacity="0.35">
<path d="M23.4772 65.567C24.3977 66.1755 25.3636 66.7302 26.334 67.2659C27.3066 67.8003 28.2936 68.3076 29.2909 68.7946C30.2877 69.2816 31.2936 69.7506 32.3098 70.1956C33.3224 70.6497 34.3466 71.0757 35.3736 71.4946C39.4909 73.1506 43.716 74.5276 47.995 75.6926C52.2781 76.8444 56.624 77.7642 61.0014 78.4647C65.3775 79.1675 69.8016 79.5516 74.232 79.747C83.0942 80.118 92.0045 79.6134 100.768 78.1993C105.147 77.4844 109.491 76.5262 113.727 75.2222C115.841 74.5606 117.929 73.8186 119.961 72.9556C120.974 72.5187 121.971 72.0461 122.945 71.537C123.919 71.0292 124.868 70.4768 125.773 69.8684L125.775 69.8666C126.033 69.6928 126.382 69.7623 126.554 70.0214C126.727 70.2805 126.658 70.6312 126.4 70.8045C126.39 70.8112 126.379 70.8185 126.368 70.8243C124.402 71.9644 122.351 72.8965 120.256 73.6908C118.167 74.4996 116.037 75.1798 113.888 75.7779C109.59 76.973 105.221 77.868 100.825 78.5631C98.6272 78.9125 96.421 79.2054 94.2089 79.4441C93.1029 79.5624 91.9955 79.6712 90.8867 79.7628C89.7789 79.8621 88.6697 79.9483 87.5592 80.0196C83.1189 80.3076 78.6638 80.3956 74.2127 80.2548C69.7621 80.1166 65.3169 79.7163 60.9116 79.0348C58.7112 78.68 56.523 78.2675 54.3468 77.7909C52.1707 77.3169 50.0045 76.7938 47.8571 76.2017C43.5606 75.0227 39.3336 73.5875 35.2137 71.8877C33.1552 71.0342 31.1242 70.1135 29.1386 69.0997C28.1449 68.5951 27.1615 68.0702 26.1929 67.5182C25.2248 66.9635 24.2684 66.3948 23.3416 65.7616C23.2872 65.7246 23.2733 65.6505 23.3101 65.5959C23.3465 65.5422 23.4193 65.5278 23.4732 65.5634L23.4768 65.5657L23.4772 65.567Z" fill="#000072"/>
</g>
<path d="M86.8782 87.8938C76.0357 87.8938 65.9453 86.1945 57.6308 84.102C37.1018 78.935 20.0068 69.5619 14.4246 64.5565C13.7839 63.986 13.416 63.1641 13.416 62.3025C13.416 60.6347 14.7655 59.2775 16.4246 59.2775C17.0194 59.2775 17.5998 59.4594 18.102 59.8033C25.7549 65.0326 41.6513 72.196 61.2629 75.1712C77.7078 77.6658 102.552 77.9628 127.52 65.2078C127.847 65.0403 128.247 65.1676 128.421 65.493C128.594 65.8184 128.476 66.2233 128.155 66.4038C127.445 66.8033 126.711 68.7562 126.711 71.3334C126.711 73.9106 127.416 75.725 128.079 76.2161C128.373 76.4327 128.533 76.7789 128.508 77.1418C128.483 77.4988 128.282 77.8139 127.968 77.984C114.39 85.3757 100.077 87.8938 86.8782 87.8938ZM16.4241 60.6334C15.6263 60.6334 14.7651 61.2716 14.7651 62.3025C14.7651 62.7764 14.9677 63.2286 15.3212 63.5432C19.6281 67.4054 35.7145 77.1883 57.9587 82.7868C76.0658 87.344 102.691 90.0187 126.938 77.001C125.969 75.9661 125.361 73.8204 125.361 71.3334C125.361 69.8941 125.567 68.5698 125.927 67.5096C115.722 72.4212 104.777 75.6298 93.3571 77.0538C82.8956 78.3582 72.0294 78.1758 61.0612 76.5122C41.2254 73.5031 25.1129 66.2346 17.3424 60.9245C17.0603 60.7313 16.7516 60.6338 16.4241 60.6338V60.6334ZM127.278 77.307C127.278 77.307 127.279 77.3075 127.279 77.3079C127.279 77.3079 127.278 77.3075 127.278 77.307Z" fill="#000072"/>
<path d="M130.66 71.3339C130.66 74.4653 129.624 77.0023 128.347 77.0023C127.069 77.0023 126.036 74.4649 126.036 71.3339C126.036 68.6425 126.801 66.3885 127.825 65.8126C127.859 65.7945 127.895 65.7765 127.929 65.758C127.931 65.7557 127.934 65.7557 127.936 65.7557C128.069 65.6943 128.207 65.665 128.347 65.665C129.624 65.665 130.66 68.2024 130.66 71.3334V71.3339Z" fill="#FFA76C"/>
<g opacity="0.35">
<path d="M130.661 71.333C130.661 74.4644 129.625 77.0015 128.348 77.0015C127.07 77.0015 126.037 74.464 126.037 71.333C126.037 70.7435 126.073 70.1767 126.14 69.6414C126.436 71.9473 127.312 73.6186 128.348 73.6186C129.383 73.6186 130.261 71.9477 130.557 69.6414C130.625 70.1744 130.661 70.7431 130.661 71.333Z" fill="#000072"/>
</g>
<path d="M128.346 77.6803C126.386 77.6803 125.361 74.4875 125.361 71.3335C125.361 68.3952 126.219 65.9385 127.496 65.2209L127.612 65.1595C127.632 65.1491 127.652 65.1397 127.673 65.1311C127.887 65.0358 128.113 64.9875 128.346 64.9875C130.307 64.9875 131.334 68.1804 131.334 71.3339C131.334 74.4875 130.307 77.6808 128.346 77.6808L128.346 77.6803ZM128.214 66.3736L128.142 66.4111C127.444 66.8038 126.71 68.7567 126.71 71.3339C126.71 74.334 127.695 76.3249 128.346 76.3249C128.997 76.3249 129.984 74.3345 129.984 71.3339C129.984 68.3334 128.998 66.3434 128.346 66.3434C128.301 66.3434 128.259 66.3529 128.216 66.3723C128.215 66.3723 128.214 66.3732 128.213 66.3736H128.214Z" fill="#000072"/>
<g opacity="0.3">
<path d="M107.993 82.5864C108.404 82.6104 108.834 82.5864 109.253 82.54C109.674 82.4939 110.092 82.424 110.505 82.3269C111.329 82.1315 112.132 81.848 112.894 81.4793C113.653 81.1056 114.366 80.6452 115.024 80.1167C115.349 79.8481 115.667 79.5719 115.963 79.2704L116.425 78.8136C116.584 78.6624 116.749 78.5162 116.914 78.3718C118.253 77.229 119.819 76.389 121.444 75.7467C122.258 75.4254 123.095 75.1641 123.942 74.9415C124.795 74.7195 125.637 74.5453 126.545 74.4297C126.853 74.3905 127.135 74.6098 127.174 74.9194C127.213 75.2291 126.995 75.5116 126.686 75.5509C126.669 75.5531 126.651 75.5545 126.634 75.5549H126.618C126.228 75.5676 125.798 75.6077 125.388 75.6592C124.973 75.7111 124.558 75.7761 124.145 75.8533C123.321 76.0103 122.505 76.2211 121.706 76.482C120.107 76.9974 118.582 77.7616 117.254 78.7906C117.091 78.922 116.927 79.0547 116.769 79.1923L116.297 79.6216C115.978 79.9221 115.635 80.1957 115.288 80.4602C114.936 80.7206 114.571 80.9602 114.196 81.1832C113.819 81.4021 113.431 81.6003 113.034 81.7803C112.243 82.1423 111.413 82.4145 110.565 82.5955C109.715 82.7783 108.856 82.8825 107.973 82.8532C107.899 82.8509 107.841 82.7886 107.844 82.7142C107.846 82.6397 107.908 82.5815 107.982 82.5842C107.983 82.5842 107.984 82.5842 107.985 82.5842H107.994L107.993 82.5864Z" fill="#000072"/>
<path d="M60.3785 80.9458C62.8902 81.4653 65.4132 81.9108 67.9469 82.2759L69.8499 82.5268L71.7573 82.7363C72.3917 82.8162 73.0305 82.8568 73.6666 82.9191C74.3027 82.9818 74.9407 83.0247 75.5786 83.0649C76.2161 83.1091 76.854 83.1515 77.4928 83.1732C78.1316 83.1976 78.7695 83.2373 79.4084 83.2436C80.0472 83.2535 80.6856 83.2838 81.3248 83.2847C81.9637 83.2851 82.6025 83.2941 83.2413 83.2883C85.7966 83.2662 88.3501 83.1393 90.8955 82.92C93.44 82.6952 95.9755 82.3657 98.4917 81.9261C101.008 81.4892 103.503 80.9282 105.959 80.234C107.184 79.8802 108.401 79.4952 109.595 79.0546C110.193 78.8366 110.781 78.597 111.362 78.3442C111.652 78.2179 111.937 78.0829 112.22 77.9448L112.639 77.7304L113.073 77.5007C114.243 76.9076 115.491 76.4463 116.79 76.2152C118.08 75.9877 119.443 75.9354 120.696 76.4052C120.725 76.4161 120.74 76.449 120.729 76.4784C120.721 76.5009 120.7 76.5149 120.677 76.5154H120.672C120.353 76.5221 120.033 76.5501 119.718 76.565C119.403 76.5889 119.09 76.6228 118.778 76.6539C118.156 76.7189 117.537 76.797 116.926 76.9288C115.705 77.1829 114.51 77.5765 113.381 78.1244L112.521 78.56C112.227 78.7026 111.932 78.8407 111.633 78.9698C111.037 79.2275 110.436 79.4699 109.827 79.6901C108.614 80.1392 107.385 80.5351 106.147 80.8966C103.667 81.6066 101.152 82.1811 98.6152 82.6302C96.0797 83.0843 93.524 83.4219 90.9593 83.6484C88.3945 83.88 85.8195 83.9874 83.2453 83.9897C81.9583 83.9856 80.6712 83.9694 79.3855 83.9143C78.7421 83.8962 78.1006 83.8452 77.4582 83.8091C76.8158 83.7757 76.1747 83.7216 75.5337 83.666C70.4042 83.2535 65.3193 82.3562 60.3525 81.0546C60.3224 81.0469 60.3044 81.0157 60.3125 80.9855C60.3201 80.9566 60.3498 80.9386 60.3785 80.9444V80.9458Z" fill="#000072"/>
</g>
<g opacity="0.35">
<path d="M14.2398 63.1149C14.1773 62.9461 14.1329 62.7705 14.1108 62.5895C14.1333 62.7701 14.1773 62.9461 14.2398 63.1149Z" fill="#000072"/>
</g>
<g opacity="0.35">
<path d="M14.1022 62.2844C14.0954 62.2876 14.0913 62.2935 14.0913 62.3022C14.0913 62.2935 14.0954 62.2881 14.1022 62.2844Z" fill="#000072"/>
</g>
<g opacity="0.35">
<path d="M14.6691 63.8402C14.5703 63.7273 14.4818 63.6064 14.4072 63.4782C14.4818 63.6068 14.5703 63.7273 14.6691 63.8402Z" fill="#000072"/>
</g>
<g opacity="0.35">
<path d="M23.8109 70.0534C23.1348 69.6716 22.4884 69.2956 21.8711 68.9269C22.4884 69.2956 23.1353 69.6711 23.8109 70.0534Z" fill="#000072"/>
</g>
<g opacity="0.35">
<path d="M28.1854 72.3964C27.7671 72.1838 27.3561 71.9716 26.9526 71.7609C27.3561 71.9721 27.7667 72.1838 28.1854 72.3964Z" fill="#000072"/>
</g>
<g opacity="0.35">
<path d="M14.1329 62.2826C14.1237 62.2812 14.1175 62.2817 14.1113 62.2826C14.1175 62.2817 14.1241 62.2808 14.1329 62.2826Z" fill="#000072"/>
</g>
<g opacity="0.35">
<path d="M19.6288 67.539C17.9531 66.4603 16.5825 65.475 15.5537 64.6305C16.5825 65.475 17.9531 66.4607 19.6288 67.539Z" fill="#000072"/>
</g>
<g opacity="0.35">
<path d="M127.437 76.5452C127.437 76.5452 127.437 76.5447 127.437 76.5443C127.437 76.5443 127.437 76.5447 127.437 76.5452Z" fill="#000072"/>
</g>
<g opacity="0.35">
<path d="M127.547 76.6517C127.551 76.6546 127.554 76.6579 127.557 76.6605C127.553 76.6575 127.55 76.6542 127.547 76.6517Z" fill="#000072"/>
</g>
<g opacity="0.35">
<path d="M127.751 76.8295C127.751 76.8295 127.748 76.8277 127.748 76.8264C127.748 76.8272 127.75 76.8281 127.751 76.8295Z" fill="#000072"/>
</g>
<g opacity="0.35">
<path d="M14.2876 62.3408C14.308 62.3509 14.3307 62.3618 14.3543 62.3741C14.3307 62.3618 14.308 62.3504 14.2876 62.3408Z" fill="#000072"/>
</g>
<g opacity="0.35">
<path d="M14.2095 62.3065C14.2245 62.3124 14.2403 62.3193 14.258 62.3275C14.2403 62.3193 14.224 62.3124 14.2095 62.3065Z" fill="#000072"/>
</g>
<g opacity="0.35">
<path d="M14.1504 62.2867C14.1605 62.2893 14.1711 62.292 14.1839 62.2968C14.1711 62.2924 14.1601 62.2893 14.1504 62.2867Z" fill="#000072"/>
</g>
<g opacity="0.35">
<path d="M14.8748 64.0501C14.9767 64.1417 15.085 64.2356 15.1969 64.3312C15.085 64.2356 14.9767 64.1412 14.8748 64.0501Z" fill="#000072"/>
</g>
<g opacity="0.35">
<path d="M59.5554 83.8741C58.9651 83.7337 58.3775 83.5907 57.7939 83.444C58.3775 83.5907 58.9651 83.7342 59.5554 83.8741Z" fill="#000072"/>
</g>
<g opacity="0.35">
<path d="M75.5089 86.6246C73.7515 86.44 72.0093 86.2157 70.2847 85.9575C72.0093 86.2161 73.7515 86.44 75.5089 86.6246Z" fill="#000072"/>
</g>
<g opacity="0.35">
<path d="M34.9572 75.5973C32.5443 74.5362 30.2887 73.4647 28.2163 72.4113C30.2891 73.4647 32.5443 74.5362 34.9572 75.5973Z" fill="#000072"/>
</g>
<g opacity="0.35">
<path d="M75.5088 86.6246C76.1975 86.6968 76.8889 86.7627 77.582 86.8232C76.8889 86.7632 76.1975 86.6973 75.5088 86.6246Z" fill="#000072"/>
</g>
<g opacity="0.35">
<path d="M85.3573 87.2226C84.6363 87.2118 83.9161 87.1938 83.1982 87.168C83.9166 87.1933 84.6363 87.2118 85.3573 87.2226Z" fill="#000072"/>
</g>
<g opacity="0.35">
<path d="M127.646 77.3869C114.025 84.8017 99.4352 87.4289 85.3896 87.2231C99.4352 87.4289 114.025 84.8021 127.646 77.3869C127.741 77.3359 127.799 77.2533 127.823 77.1622C127.799 77.2533 127.741 77.3359 127.646 77.3869Z" fill="#000072"/>
</g>
<g opacity="0.35">
<path d="M62.6246 84.566C61.7378 84.3773 60.8577 84.1801 59.9849 83.9756C60.8582 84.1801 61.7383 84.3769 62.6246 84.566Z" fill="#000072"/>
</g>
<g opacity="0.35">
<path d="M40.4712 77.8865C40.0076 77.7051 39.5489 77.5232 39.0947 77.34C39.5494 77.5232 40.008 77.7056 40.4712 77.8865Z" fill="#000072"/>
</g>
<g opacity="0.35">
<path d="M37.9567 76.876C37.8615 76.8367 37.7667 76.7974 37.6724 76.7582C37.7672 76.7974 37.8619 76.8367 37.9567 76.876Z" fill="#000072"/>
</g>
<g opacity="0.35">
<path d="M36.3323 76.194C36.2546 76.161 36.1769 76.1276 36.0996 76.0942C36.1769 76.1276 36.2546 76.1606 36.3323 76.194Z" fill="#000072"/>
</g>
<g opacity="0.35">
<path d="M43.3953 78.9946C42.8499 78.7946 42.3095 78.5929 41.7749 78.3893C42.3095 78.5924 42.8499 78.7942 43.3953 78.9946Z" fill="#000072"/>
</g>
<g opacity="0.35">
<path d="M48.8351 80.8695C48.4191 80.7355 48.0063 80.5996 47.5952 80.4633C48.0058 80.6001 48.4191 80.7355 48.8351 80.8695Z" fill="#000072"/>
</g>
<g opacity="0.35">
<path d="M46.8314 80.2065C46.5394 80.1077 46.2487 80.0079 45.959 79.9077C46.2483 80.0079 46.539 80.1072 46.8314 80.2065Z" fill="#000072"/>
</g>
<g opacity="0.35">
<path d="M45.1732 79.6337C44.79 79.4987 44.4091 79.3629 44.0312 79.2261C44.4095 79.3629 44.79 79.4987 45.1732 79.6337Z" fill="#000072"/>
</g>
<path d="M6.70676 79.2727C10.5572 80.114 14.6192 76.4508 14.6192 76.4508C14.6192 76.4508 12.4382 71.4237 8.58729 70.5824C4.73684 69.7411 0.674805 73.4043 0.674805 73.4043C0.674805 73.4043 2.85587 78.4313 6.70676 79.2727Z" fill="#8AC457"/>
<path d="M7.88415 79.5091C7.48433 79.5091 7.08226 79.4699 6.68288 79.3828C2.82076 78.5392 0.594317 73.5004 0.571855 73.4494C0.552538 73.4047 0.563769 73.3528 0.599708 73.3203C0.641038 73.2833 4.74935 69.6292 8.61102 70.4718C12.4731 71.3154 14.6996 76.3542 14.722 76.4052C14.7414 76.4499 14.7301 76.5018 14.6942 76.5343C14.6574 76.5677 11.3509 79.5091 7.88415 79.5091ZM6.7305 79.1621C10.2247 79.9239 13.9579 76.8688 14.4822 76.4201C14.1906 75.7937 12.058 71.4553 8.5634 70.6921C5.06966 69.9293 1.33601 72.9854 0.81175 73.434C1.10331 74.0605 3.23585 78.3988 6.7305 79.1621Z" fill="#000072"/>
<g opacity="0.5">
<path d="M2.9449 73.6367C2.9449 73.6367 5.85823 71.0103 9.08872 70.7178C8.92609 70.6641 8.75808 70.6176 8.58736 70.5806C4.73647 69.7402 0.675781 73.4051 0.675781 73.4051C0.675781 73.4051 2.85595 78.4327 6.70684 79.2731C7.29625 79.4013 7.89284 79.4252 8.4782 79.3719C4.93908 78.2327 2.94535 73.6371 2.94535 73.6371L2.9449 73.6367Z" fill="white"/>
</g>
<g opacity="0.3">
<path d="M14.6201 76.4508C14.6201 76.4508 12.4377 71.4251 8.58773 70.5811C7.1533 70.2665 5.69147 70.5774 4.42236 71.0942C4.66361 71.1118 4.90799 71.1475 5.14834 71.2003C8.99923 72.0407 11.1794 77.0683 11.1794 77.0683C11.1794 77.0683 9.57785 78.5139 7.42913 79.3791C11.0496 79.6712 14.6201 76.4513 14.6201 76.4513V76.4508Z" fill="#000072"/>
</g>
<path d="M7.90139 80.0765C7.45799 80.0765 7.01055 80.0327 6.5631 79.9352C2.4229 79.0307 0.151089 73.8935 0.0562987 73.675C-0.0600547 73.4074 0.00778065 73.0946 0.224315 72.8996C0.400866 72.7403 4.59004 69.0158 8.73114 69.9194C12.8713 70.8239 15.1432 75.9611 15.2379 76.1791C15.3543 76.4468 15.2865 76.7596 15.0699 76.9545C14.9127 77.0963 11.5618 80.076 7.90139 80.076V80.0765ZM6.85017 78.6101C9.66556 79.2257 12.7168 77.1003 13.7788 76.2671C13.1575 75.0661 11.2599 71.8602 8.44408 71.245C5.62734 70.628 2.57744 72.7543 1.51543 73.5879C2.13673 74.789 4.03433 77.9949 6.85017 78.6101Z" fill="#000072"/>
<path d="M6.81897 74.5881L14.3896 75.707C14.7593 75.7616 15.0145 76.1069 14.9601 76.4783C14.9058 76.8498 14.5621 77.1062 14.1928 77.0516C14.1632 77.047 14.1308 77.0398 14.103 77.0321L6.75383 74.8914C6.67162 74.8675 6.62445 74.7813 6.64826 74.6987C6.66982 74.6233 6.74395 74.5768 6.81942 74.5881H6.81897Z" fill="#000072"/>
<path d="M26.9296 83.1858C27.4453 79.2609 23.4754 75.4971 23.4754 75.4971C23.4754 75.4971 18.6694 78.0969 18.1536 82.0222C17.6379 85.9472 21.6079 89.7109 21.6079 89.7109C21.6079 89.7109 26.4138 87.1112 26.9296 83.1858Z" fill="#8AC457"/>
<path d="M21.6077 89.8233C21.5799 89.8233 21.552 89.813 21.5305 89.7926C21.4905 89.7547 17.525 85.944 18.0421 82.0069C18.5592 78.0703 23.3732 75.4236 23.4218 75.3974C23.464 75.3744 23.5166 75.3812 23.552 75.415C23.592 75.4529 27.5575 79.2636 27.0404 83.2007C26.5233 87.1374 21.7093 89.7841 21.6607 89.8103C21.6441 89.8193 21.6257 89.8238 21.6077 89.8238V89.8233ZM23.4568 75.6366C22.8593 75.9801 18.733 78.4747 18.2649 82.0367C17.7973 85.5987 21.1378 89.0831 21.6261 89.571C22.2236 89.2276 26.3499 86.733 26.818 83.1709C27.2861 79.6076 23.9451 76.1241 23.4568 75.6366Z" fill="#000072"/>
<g opacity="0.5">
<path d="M26.929 83.1849C26.9663 82.8969 26.9807 82.6094 26.973 82.3246C25.6415 85.3446 22.1091 87.2538 22.1091 87.2538C22.1091 87.2538 18.7012 84.023 18.6109 80.4263C18.3876 80.9277 18.2259 81.4612 18.1531 82.0222C17.6378 85.9471 21.6073 89.71 21.6073 89.71C21.6073 89.71 26.4142 87.1098 26.9295 83.1849H26.929Z" fill="white"/>
</g>
<g opacity="0.3">
<path d="M25.3831 86.5425C26.1437 85.5906 26.7623 84.4599 26.9289 83.1853C27.4442 79.2604 23.4747 75.4976 23.4747 75.4976C23.4747 75.4976 18.6679 78.0978 18.1526 82.0227C18.1198 82.2763 18.1045 82.5309 18.1085 82.7841C19.6903 80.8031 21.8849 79.6161 21.8849 79.6161C21.8849 79.6161 25.3544 82.906 25.3831 86.5429V86.5425Z" fill="#000072"/>
</g>
<path d="M21.6084 90.3884C21.44 90.3884 21.2733 90.3252 21.1453 90.2033C20.9727 90.04 16.9309 86.153 17.4853 81.9329C18.0396 77.7123 22.9472 75.0124 23.1561 74.8995C23.4121 74.761 23.7275 74.803 23.9391 75.0033C24.1116 75.1667 28.1534 79.0537 27.599 83.2738C27.0447 87.4939 22.1372 90.1939 21.9287 90.3067C21.8281 90.3613 21.718 90.3879 21.6089 90.3879L21.6084 90.3884ZM23.3632 76.3533C22.2234 77.075 19.2 79.2401 18.8231 82.1102C18.4462 84.9799 20.8061 87.859 21.7207 88.8534C22.8605 88.1317 25.8838 85.9665 26.2608 83.0964C26.6377 80.2263 24.2778 77.3472 23.3632 76.3529V76.3533Z" fill="#000072"/>
<path d="M22.2732 83.4607L22.7562 75.7882C22.7795 75.4136 23.1012 75.1293 23.4736 75.1532C23.8465 75.1767 24.1295 75.4998 24.1057 75.8745C24.1039 75.9042 24.099 75.9376 24.0936 75.9661L22.5787 83.5018C22.5616 83.5857 22.4803 83.6403 22.3963 83.6232C22.3195 83.6078 22.2678 83.5374 22.2728 83.4611L22.2732 83.4607Z" fill="#000072"/>
<path d="M130.564 82.8036C127.169 84.8084 126.659 90.2643 126.659 90.2643C126.659 90.2643 131.652 92.4692 135.047 90.4638C138.441 88.4585 138.951 83.0031 138.951 83.0031C138.951 83.0031 133.958 80.7982 130.564 82.8036Z" fill="#8AC457"/>
<path d="M131.609 91.4116C129.022 91.4116 126.648 90.3825 126.614 90.3672C126.569 90.3478 126.543 90.3018 126.547 90.2535C126.552 90.1984 127.102 84.7172 130.507 82.7061C133.911 80.6944 138.946 82.8771 138.996 82.8997C139.04 82.9191 139.067 82.9651 139.062 83.0134C139.057 83.0685 138.508 88.5496 135.103 90.5608C134.031 91.1941 132.797 91.4116 131.609 91.4116ZM126.78 90.1925C127.417 90.4543 131.91 92.1857 134.99 90.3663C138.07 88.5469 138.748 83.7604 138.83 83.0743C138.193 82.8126 133.701 81.0807 130.621 82.9006C127.541 84.72 126.862 89.5065 126.78 90.1925Z" fill="#000072"/>
<g opacity="0.5">
<path d="M130.114 83.0292C129.869 83.1736 129.641 83.3379 129.426 83.5148C132.738 82.2831 136.929 84.1314 136.929 84.1314C136.929 84.1314 136.488 88.8272 133.713 91.106C134.016 90.9932 134.313 90.8574 134.597 90.689C137.991 88.6841 138.501 83.2282 138.501 83.2282C138.501 83.2282 133.508 81.0234 130.114 83.0283V83.0292Z" fill="white"/>
</g>
<g opacity="0.3">
<path d="M130.562 82.8044C127.17 84.8084 126.66 90.2648 126.66 90.2648C126.66 90.2648 131.651 92.4691 135.046 90.4642C135.585 90.1465 136.051 89.7425 136.454 89.2867C133.742 89.3918 131.162 88.254 131.162 88.254C131.162 88.254 131.522 84.3891 133.662 81.9699C132.599 82.0114 131.517 82.2394 130.562 82.8044Z" fill="#000072"/>
</g>
<path d="M131.588 91.9857C128.926 91.9857 126.534 90.9494 126.388 90.8849C126.121 90.7675 125.96 90.4917 125.987 90.2006C126.009 89.9641 126.572 84.3751 130.221 82.219C133.138 80.4962 137.034 81.5831 138.573 82.1305C139.244 82.3693 139.644 83.054 139.526 83.759C139.253 85.3766 138.306 89.325 135.388 91.0482C134.205 91.7474 132.865 91.9857 131.588 91.9857ZM127.4 89.8255C128.666 90.2841 132.222 91.3452 134.704 89.8793C137.133 88.4449 137.955 84.9632 138.196 83.5329C138.205 83.4783 138.175 83.4273 138.123 83.4088C136.762 82.9245 133.334 81.9532 130.906 83.388C128.416 84.858 127.615 88.4914 127.4 89.826V89.8255Z" fill="#000072"/>
<path d="M133.642 86.3191L127.329 90.6543C127.021 90.8659 126.6 90.7865 126.389 90.4769C126.179 90.1673 126.258 89.7443 126.566 89.5327C126.591 89.5155 126.619 89.4988 126.646 89.4857L133.485 86.0519C133.562 86.0135 133.655 86.0447 133.693 86.1214C133.728 86.1918 133.704 86.2762 133.642 86.3191Z" fill="#000072"/>
<path d="M55.2496 68.2648C55.2496 72.0624 50.1938 87.8383 54.8655 90.8018C60.5699 94.4203 66.4586 86.1783 66.1571 72.7101" fill="#B5CFDD"/>
<path d="M57.5876 91.7677C56.6577 91.7677 55.7205 91.4771 54.8059 90.8966C51.3454 88.7013 53.0583 79.9334 54.309 73.5315C54.7533 71.2559 55.1374 69.2907 55.1374 68.2643C55.1374 68.202 55.1877 68.1515 55.2497 68.1515C55.3117 68.1515 55.362 68.202 55.362 68.2643C55.362 69.3128 54.9762 71.2879 54.5292 73.5753C53.3607 79.5557 51.5952 88.5934 54.9258 90.7062C56.5656 91.7465 58.2785 91.8151 59.8801 90.9043C63.762 88.6968 66.2395 81.3859 66.0455 72.7123C66.0441 72.6501 66.0931 72.5982 66.1551 72.5968H66.1578C66.2184 72.5968 66.2687 72.6455 66.2701 72.7069C66.4659 81.4612 63.9426 88.8529 59.9906 91.1002C59.2085 91.5452 58.4003 91.7673 57.5876 91.7673V91.7677Z" fill="#000072"/>
<g opacity="0.3">
<path d="M54.8663 90.8019C53.3901 89.8649 52.8861 87.6515 52.8843 84.9411C53.1898 85.6037 53.6044 86.1309 54.1543 86.4798C59.1332 89.6392 64.2546 83.7563 65.2743 73.2485C65.3161 72.8171 65.7586 72.5467 66.158 72.7101C66.4581 86.1783 60.5694 94.4199 54.8663 90.8019Z" fill="#000072"/>
</g>
<path d="M55.9242 68.2648C55.9183 68.8466 55.8469 69.3607 55.7737 69.8802C55.6982 70.396 55.6093 70.9025 55.5172 71.4071C55.3325 72.4149 55.1335 73.4119 54.9399 74.4081C54.5522 76.3989 54.1825 78.3853 53.9134 80.3767C53.6528 82.363 53.4659 84.3702 53.611 86.3105C53.6901 87.2719 53.8563 88.2301 54.2323 89.0263C54.4174 89.4239 54.6609 89.7678 54.9565 90.0251L55.0688 90.1194L55.1883 90.2025C55.2683 90.2589 55.3801 90.3135 55.474 90.3699C55.6672 90.4918 55.8725 90.5757 56.076 90.6656C56.4871 90.8249 56.9103 90.9454 57.3388 90.9616C57.5527 90.9914 57.7661 90.9589 57.9799 90.9567C58.1906 90.9138 58.4058 90.8998 58.6115 90.8258C59.4507 90.6001 60.214 90.0621 60.8748 89.4126C61.5401 88.7604 62.0914 87.967 62.564 87.1261C63.0379 86.2843 63.4373 85.3893 63.7693 84.4654C64.1067 83.5433 64.3964 82.5986 64.6417 81.6377C64.8807 80.675 65.0847 79.7005 65.2531 78.7153C65.5896 76.7442 65.7787 74.7407 65.9324 72.7155V72.7137C65.9418 72.5887 66.0505 72.4953 66.175 72.5047C66.285 72.5133 66.3704 72.5995 66.3821 72.7056C66.6116 74.7439 66.6282 76.8128 66.4346 78.8728L66.3524 79.645C66.3237 79.9023 66.2787 80.1578 66.2428 80.4146C66.1723 80.9282 66.0716 81.4391 65.9701 81.9487C65.7527 82.9665 65.4719 83.9753 65.1179 84.9628C64.7563 85.9472 64.3322 86.9176 63.794 87.837C63.2585 88.7559 62.621 89.6324 61.8339 90.3979C61.05 91.1566 60.1003 91.8219 58.9763 92.1306C58.7023 92.2241 58.4094 92.2529 58.1237 92.3039C57.8326 92.3148 57.5401 92.3486 57.2499 92.3134C56.6654 92.2863 56.1007 92.1293 55.5724 91.9221C55.3119 91.8093 55.05 91.6973 54.8123 91.5502C54.6888 91.4771 54.5724 91.4202 54.4444 91.3322L54.2526 91.1977L54.0729 91.0487C53.6034 90.6398 53.2575 90.1289 53.0144 89.6085C52.5248 88.5587 52.3572 87.4741 52.266 86.4179C52.1101 84.2984 52.3114 82.2326 52.5764 80.1943C52.8518 78.1565 53.2269 76.1453 53.616 74.1476C53.81 73.1488 54.0086 72.1531 54.1901 71.162C54.2804 70.6664 54.3671 70.1717 54.4385 69.6825C54.5086 69.1964 54.572 68.7003 54.5747 68.2648V68.253C54.5773 67.8789 54.8815 67.5774 55.2544 67.5801C55.6268 67.5828 55.9269 67.8884 55.9242 68.2625V68.2643V68.2648Z" fill="#000072"/>
<g opacity="0.3">
<path d="M92.6473 55.071C91.7215 58.2404 86.7803 59.547 83.1418 57.9113C80.1513 56.5672 79.7797 53.1049 79.768 51.5848C79.7645 51.2052 79.4154 50.9254 79.0461 51.0003C79.0156 51.0071 78.9855 51.012 78.9531 51.0188C80.1256 50.6207 81.3889 50.2479 82.6895 49.9428C85.3701 49.3172 88.2192 48.9905 90.8014 49.3786C92.4056 51.175 93.1514 53.3428 92.6469 55.0715L92.6473 55.071Z" fill="#000072"/>
</g>
<path d="M81.0675 50.2339C81.3694 50.1725 81.6533 50.4009 81.656 50.7101C81.6664 51.9486 81.9682 54.7686 84.404 55.8631C87.3681 57.1955 91.3924 56.1303 92.1467 53.549C93.2959 49.6155 86.4908 42.8833 78.6578 47.7754C76.3289 49.2301 75.6133 51.6434 75.6133 51.6434C75.6133 51.6434 77.7993 50.9588 78.7656 50.7313C79.5104 50.5562 80.4597 50.358 81.068 50.2339H81.0675Z" fill="#B5CFDD"/>
<path d="M87.1877 56.5492C86.2074 56.5492 85.2231 56.3551 84.3583 55.966C81.8475 54.8376 81.5537 51.9147 81.5438 50.7105C81.5429 50.5977 81.4922 50.4925 81.405 50.4212C81.3165 50.349 81.2015 50.3206 81.0901 50.344C80.5654 50.451 79.5694 50.6573 78.7913 50.8405C77.8399 51.0644 75.6687 51.7437 75.6467 51.7509C75.6076 51.7631 75.564 51.7527 75.5343 51.7234C75.5047 51.694 75.4939 51.6507 75.5056 51.611C75.5128 51.5862 76.2603 49.1394 78.5986 47.6793C82.339 45.3431 86.4347 45.3707 89.5538 47.7542C91.6733 49.3732 92.7839 51.7694 92.2547 53.5807C91.9631 54.5781 91.1688 55.4217 90.0179 55.9552C89.1639 56.351 88.1778 56.5492 87.1877 56.5492ZM81.1669 50.1112C81.304 50.1112 81.4378 50.1581 81.5465 50.2466C81.6863 50.3603 81.7671 50.5286 81.7685 50.7092C81.7779 51.8696 82.0582 54.6855 84.45 55.7602C86.1315 56.5153 88.2798 56.5121 89.9235 55.7503C91.0147 55.2443 91.7659 54.4513 92.039 53.5175C92.5426 51.7938 91.4649 49.4978 89.4177 47.9343C86.3754 45.6103 82.3749 45.5869 78.7168 47.8716C76.8457 49.0401 76.0254 50.8604 75.7931 51.4697C76.3686 51.2914 77.9585 50.8053 78.7397 50.6216C79.5209 50.4379 80.5196 50.2308 81.0452 50.1238C81.0856 50.1157 81.1261 50.1116 81.1665 50.1116L81.1669 50.1112Z" fill="#000072"/>
<g opacity="0.3">
<path d="M92.2608 52.9302C92.2424 53.1419 92.2051 53.3486 92.1462 53.549C91.3924 56.1303 87.3672 57.1964 84.4036 55.864C81.9678 54.769 81.6659 51.949 81.6556 50.7101C81.6538 50.4 81.369 50.173 81.0671 50.2339C80.4597 50.3576 79.51 50.5557 78.7661 50.7304C77.7993 50.9592 75.6133 51.6439 75.6133 51.6439C75.6133 51.6439 75.8631 50.8035 76.5446 49.8169C77.1079 49.6422 78.7072 49.1525 79.4965 48.9679C80.2423 48.7932 81.1902 48.5951 81.7989 48.4696C82.1008 48.4087 82.3842 48.6375 82.3874 48.9458C82.3977 50.1847 82.6996 53.0047 85.1354 54.0997C87.6134 55.2132 90.8318 54.6521 92.2608 52.9302Z" fill="#000072"/>
</g>
<g opacity="0.6">
<path d="M92.2002 53.3338C91.4679 49.5 85.4476 45.0042 78.6582 49.2459C77.6596 49.8679 76.9597 50.6663 76.4839 51.3763C75.983 51.5288 75.6133 51.6439 75.6133 51.6439C75.6133 51.6439 76.3285 49.2306 78.6582 47.7764C86.3501 42.9718 93.0524 49.3764 92.2002 53.3333V53.3338Z" fill="white"/>
</g>
<path d="M87.1878 57.1219C86.1348 57.1219 85.0773 56.9089 84.1285 56.4824C81.4416 55.2746 81.031 52.2722 80.9861 50.943C80.3868 51.0662 79.5691 51.2386 78.9191 51.3917C77.9874 51.611 75.8351 52.2844 75.8135 52.2912C75.5754 52.3657 75.3162 52.302 75.1387 52.1264C74.9613 51.9504 74.8948 51.6904 74.9662 51.4503C74.9986 51.3416 75.7838 48.7725 78.3014 47.2004C82.248 44.7356 86.5818 44.7749 89.8941 47.3052C92.1951 49.0632 93.3874 51.7094 92.7939 53.7405C92.4561 54.8968 91.5535 55.8658 90.253 56.4688C89.3132 56.9044 88.2525 57.1224 87.1878 57.1224V57.1219ZM81.0557 49.5714C81.3427 49.5714 81.6235 49.6684 81.8526 49.8521C82.1487 50.0891 82.3239 50.4434 82.3329 50.8234C82.363 52.0944 82.7075 54.3588 84.6797 55.2448C86.2193 55.9367 88.1851 55.934 89.6879 55.2376C90.6295 54.8011 91.2728 54.1336 91.4992 53.3586C91.9318 51.8787 90.9129 49.7867 89.0773 48.3843C86.2282 46.2084 82.4663 46.1962 79.0139 48.3518C77.9892 48.9918 77.3054 49.8476 76.8755 50.5517C77.4932 50.3689 78.1698 50.1757 78.6118 50.0719C79.3077 49.9081 80.1846 49.7239 80.7983 49.598C80.8841 49.5804 80.9703 49.5718 81.0557 49.5718V49.5714Z" fill="#000072"/>
<path d="M53.1187 34.2238C53.1187 34.2238 53.4129 16.6348 67.71 17.3168C69.3529 17.3954 77.5681 18.5404 81.0331 24.8918C81.5278 25.7985 81.534 27.1923 80.0471 27.2108C80.0471 27.2108 82.9137 30.6974 82.3786 34.5564C81.8436 38.415 79.5691 36.7076 79.5691 36.7076C79.5691 36.7076 80.0147 42.1567 75.7945 41.8868L53.1187 34.2242V34.2238Z" fill="#B5CFDD"/>
<path d="M76.092 42.0086C75.9923 42.0086 75.8912 42.0055 75.7879 41.9987C75.778 41.9983 75.7685 41.996 75.7591 41.9928L53.0832 34.3303C53.037 34.3145 53.006 34.2708 53.0069 34.2216C53.0082 34.1327 53.2158 25.2542 58.3906 20.3792C60.8174 18.0932 63.9544 17.0262 67.7155 17.2045C70.3574 17.3304 77.9182 18.9476 81.1316 24.8376C81.4061 25.3409 81.606 26.137 81.2646 26.7243C81.1253 26.9644 80.8405 27.2469 80.2654 27.3106C80.8261 28.0648 82.9582 31.1926 82.4896 34.5718C82.2969 35.9615 81.8562 36.81 81.1792 37.0939C80.588 37.3413 79.9887 37.0867 79.6918 36.9193C79.7147 37.6243 79.6774 39.8192 78.4325 41.0933C77.8382 41.7017 77.0516 42.0086 76.0907 42.0086H76.092ZM75.8166 41.7744C76.8422 41.8385 77.6675 41.5546 78.2731 40.9358C79.6671 39.5095 79.46 36.7441 79.4577 36.7166C79.4541 36.6724 79.4766 36.6304 79.5152 36.6087C79.5539 36.5871 79.601 36.5898 79.637 36.6169C79.6446 36.6227 80.4007 37.1788 81.0952 36.8854C81.6927 36.634 82.0876 35.8451 82.2682 34.5407C82.7902 30.7751 79.9892 27.3173 79.9609 27.2826C79.9335 27.2492 79.9276 27.2027 79.9456 27.1634C79.9636 27.1241 80.0026 27.0984 80.0462 27.098C80.5422 27.0916 80.8867 26.9278 81.0709 26.6105C81.3459 26.1375 81.2008 25.4334 80.9348 24.9459C77.7713 19.1466 70.3121 17.5538 67.7047 17.4297C64.0056 17.2518 60.9252 18.3008 58.5451 20.5431C53.7045 25.1026 53.2674 33.2367 53.2337 34.1435L75.8166 41.7744Z" fill="#000072"/>
<g opacity="0.6">
<path d="M79.7562 36.8235C79.638 36.759 79.5689 36.7066 79.5689 36.7066C79.5689 36.7066 80.0159 42.1571 75.7952 41.8858L75.2876 41.7148C78.7409 40.1125 78.8501 35.2271 78.8501 35.2271C78.8501 35.2271 79.2481 36.0779 79.7557 36.8235H79.7562Z" fill="white"/>
</g>
<g opacity="0.6">
<path d="M82.3795 34.556C82.2564 35.4424 82.2973 36.8335 80.742 37.0813C82.9006 32.756 77.5218 26.4737 77.5218 26.4737C79.0097 26.4552 80.9253 27.728 80.4307 26.8213C76.9643 20.4695 68.7491 19.3235 67.1062 19.2454C59.3164 18.8744 55.6829 23.9281 53.9893 28.6054C55.3505 23.5228 58.8271 16.893 67.71 17.3168C69.3528 17.3949 77.5681 18.5404 81.0327 24.8922C81.5268 25.799 81.5336 27.1918 80.0475 27.2108C80.0475 27.2108 82.9136 30.697 82.3786 34.556H82.3795Z" fill="white"/>
</g>
<path d="M76.0961 42.5741C75.9833 42.5741 75.8688 42.5705 75.752 42.5628C75.6931 42.5592 75.6356 42.5475 75.5799 42.529L52.904 34.8665C52.6255 34.7722 52.4395 34.5077 52.4444 34.2125C52.4507 33.8388 52.6592 25.0046 58.006 19.9671C60.5478 17.5723 63.8246 16.4525 67.7424 16.6398C67.8404 16.6443 77.6028 17.1931 81.6253 24.5659C81.9708 25.1987 82.2107 26.2182 81.7511 27.009C81.6505 27.1823 81.4681 27.4197 81.1604 27.6039C82.0202 28.9223 83.4632 31.6543 83.0481 34.6489C82.8261 36.2508 82.2709 37.2487 81.3976 37.6147C80.9883 37.7862 80.5876 37.789 80.2408 37.7217C80.1738 38.7873 79.8872 40.4126 78.836 41.4886C78.1316 42.2094 77.2115 42.5737 76.097 42.5737L76.0961 42.5741ZM75.9227 41.2142C76.7556 41.253 77.3926 41.0296 77.8719 40.539C78.8814 39.5059 78.9541 37.4626 78.8966 36.7626C78.8746 36.4968 79.0103 36.2431 79.2426 36.114C79.4744 35.9845 79.7605 36.0043 79.973 36.1641C79.9739 36.1641 80.4932 36.5283 80.8805 36.3623C81.2632 36.198 81.566 35.5056 81.7107 34.4625C82.1968 30.9547 79.5534 27.6743 79.5265 27.6418C79.3616 27.4405 79.3261 27.1616 79.4357 26.9251C79.5453 26.689 79.7794 26.536 80.0391 26.5328C80.3239 26.5292 80.5072 26.4597 80.5853 26.3257C80.721 26.0923 80.659 25.6161 80.4416 25.2176C77.402 19.6462 70.1975 18.1139 67.6782 17.9938C64.1391 17.8246 61.1983 18.8202 58.9333 20.9515C54.6866 24.9482 53.9435 31.8529 53.8182 33.7444L75.9231 41.2138L75.9227 41.2142Z" fill="#000072"/>
<path d="M40.9227 41.1285C40.9227 41.1285 25.7954 32.2704 18.9701 44.9099C18.1857 46.3623 14.9054 54.0158 18.5177 60.2837C19.0335 61.1782 20.2168 61.9058 21.0029 60.6375C21.0029 60.6375 22.4868 64.9073 26.0488 66.4463C29.6113 67.9854 29.3355 65.146 29.3355 65.146C29.3355 65.146 33.7439 68.3519 35.7003 64.585L40.9227 41.1285Z" fill="#B5CFDD"/>
<path d="M27.8455 67.0168C27.3397 67.0168 26.7242 66.8611 26.0046 66.5501C22.885 65.2024 21.3262 61.7496 20.9749 60.8772C20.6226 61.3384 20.2327 61.4463 19.9582 61.4319C19.2817 61.421 18.7071 60.837 18.4209 60.3405C15.0705 54.5272 17.6105 47.1923 18.8715 44.8566C20.6671 41.5315 23.2017 39.3886 26.4053 38.4877C33.2364 36.5658 40.9027 40.9868 40.9796 41.0315C41.0218 41.0563 41.0433 41.1055 41.0326 41.1538L35.8101 64.6102C35.8079 64.6197 35.8047 64.6292 35.8003 64.6378C35.2904 65.6194 34.5698 66.2265 33.6587 66.4427C31.9287 66.8516 30.041 65.7472 29.4525 65.3626C29.4417 65.7048 29.3483 66.3515 28.8307 66.7311C28.5706 66.9216 28.2418 67.0173 27.8455 67.0173V67.0168ZM21.0027 60.5246C21.0067 60.5246 21.0108 60.5246 21.0153 60.5251C21.058 60.5301 21.0948 60.559 21.1087 60.6C21.1235 60.6425 22.6186 64.8413 26.0931 66.3425C27.2979 66.8629 28.1744 66.9324 28.6978 66.5483C29.3074 66.1006 29.2243 65.1663 29.2234 65.1568C29.2189 65.1126 29.2409 65.0702 29.2791 65.048C29.3173 65.0264 29.3649 65.0286 29.4008 65.0544C29.4233 65.0706 31.6704 66.6815 33.6066 66.222C34.4471 66.0225 35.1156 65.4588 35.5932 64.5457L40.7945 41.1854C40.0051 40.7444 32.8532 36.9066 26.4641 38.7043C23.3217 39.5885 20.8333 41.6945 19.0683 44.9636C17.8234 47.2682 15.3158 54.5037 18.6145 60.2268C18.8917 60.7079 19.4155 61.1972 19.9614 61.2057C19.9663 61.2057 19.9712 61.2057 19.9762 61.2057C20.3356 61.2057 20.6487 60.9945 20.9075 60.577C20.9281 60.5436 20.9641 60.5237 21.0027 60.5237V60.5246Z" fill="#000072"/>
<g opacity="0.6">
<path d="M40.9228 41.128L40.7054 42.1025C36.6317 40.2416 25.8288 36.564 20.3601 46.6936C19.6113 48.0797 16.5919 55.108 19.4527 61.1922C19.0749 61.0107 18.7375 60.6619 18.5183 60.2836C14.905 54.0149 18.1858 46.3628 18.9702 44.9103C25.7951 32.269 40.9228 41.1276 40.9228 41.1276V41.128Z" fill="white"/>
</g>
<path d="M41.0534 47.1124C45.2866 50.6672 42.9888 57.1052 38.1823 59.8264C33.3759 62.5476 26.5978 62.2257 23.6476 56.9662C20.9391 52.1373 22.4481 45.6419 27.4464 43.2958C31.8516 41.2282 37.6693 44.2707 41.053 47.1124H41.0534Z" fill="#FF7878"/>
<path d="M31.8641 61.6291C28.5442 61.6291 25.351 60.2322 23.55 57.0213C22.1237 54.4788 21.8119 51.435 22.6942 48.67C23.4853 46.1908 25.1561 44.2459 27.3991 43.1934C31.737 41.1574 37.5043 43.985 41.1252 47.0258C42.76 48.3988 43.5525 50.3373 43.3562 52.4848C43.0902 55.3946 41.0807 58.3148 38.2371 59.9248C36.2999 61.0211 34.0542 61.6295 31.8637 61.6295L31.8641 61.6291ZM30.6669 42.7276C29.5609 42.7276 28.4881 42.9312 27.4939 43.3978C25.3083 44.4238 23.6798 46.3208 22.9081 48.7391C22.0446 51.4444 22.3501 54.4229 23.7454 56.9107C26.6655 62.117 33.3507 62.432 38.127 59.728C40.9082 58.1533 42.8732 55.3021 43.1329 52.464C43.2668 50.999 43.0022 48.8961 40.9815 47.1991C38.2483 44.904 34.2806 42.7276 30.6673 42.7276H30.6669Z" fill="#000072"/>
<path d="M42.0698 55.9944C41.1758 57.5299 39.8245 58.8957 38.1816 59.8264C33.3756 62.5466 26.598 62.2262 23.6478 56.9657C20.9389 52.1372 22.4483 45.6415 27.4466 43.2958C28.2866 42.9027 29.1757 42.6942 30.0917 42.635C33.9799 42.3809 38.3133 44.8128 41.0527 47.1128C43.8394 49.4517 43.7971 53.0395 42.0698 55.9949V55.9944Z" fill="#FF7878"/>
<path d="M31.8646 61.6291C28.5442 61.6291 25.351 60.2321 23.55 57.0213C22.1237 54.4793 21.8119 51.4354 22.6942 48.6709C23.4853 46.1917 25.1561 44.2464 27.3991 43.1938C28.2176 42.8106 29.1211 42.585 30.0842 42.5227C33.9679 42.269 38.3332 44.6828 41.1248 47.0267C43.6994 49.1872 44.1082 52.7303 42.1666 56.0527C41.2434 57.6383 39.8476 59.0135 38.2366 59.9257C36.2999 61.022 34.0542 61.63 31.8641 61.63L31.8646 61.6291ZM30.6579 42.7294C30.4706 42.7294 30.2841 42.7353 30.0991 42.7474C29.1637 42.8079 28.2873 43.0268 27.4944 43.3978C25.3088 44.4233 23.6803 46.3203 22.9085 48.7391C22.0451 51.4444 22.3505 54.4224 23.7463 56.9102C26.6664 62.1165 33.3511 62.4311 38.1274 59.728C39.7043 58.8352 41.0704 57.4889 41.9738 55.9376C43.8571 52.7154 43.4676 49.2852 40.9815 47.1991C38.357 44.996 34.3305 42.7294 30.6584 42.7294H30.6579Z" fill="#000072"/>
<g opacity="0.3">
<path d="M42.0699 55.9945C37.7667 57.1589 32.9288 56.1199 30.5586 51.8967C28.9292 48.99 28.8263 45.4804 30.0914 42.6346C33.9795 42.3805 38.3129 44.8124 41.0524 47.1124C43.839 49.4513 43.7968 53.039 42.0695 55.9945H42.0699Z" fill="#000072"/>
</g>
<path d="M31.8607 62.1937C28.3548 62.1937 24.9725 60.7092 23.0596 57.2989C21.5569 54.6197 21.2285 51.4119 22.1584 48.4976C22.9981 45.8672 24.7744 43.8018 27.1607 42.6816C31.7385 40.5331 37.7381 43.4457 41.4857 46.5925C43.2665 48.0878 44.1299 50.1992 43.9161 52.5362C43.6339 55.6253 41.5131 58.7188 38.513 60.4167C36.4928 61.5605 34.1505 62.1937 31.8607 62.1937ZM30.6828 43.2877C29.6504 43.2877 28.6535 43.4768 27.7317 43.9097C25.6899 44.8683 24.1665 46.6444 23.4433 48.9115C22.6274 51.4675 22.9163 54.2816 24.2353 56.6331C26.9824 61.532 33.3153 61.8033 37.8509 59.2356C40.4762 57.7497 42.3293 55.071 42.5724 52.4121C42.6941 51.0816 42.4542 49.1724 40.6204 47.6324C37.9695 45.4063 34.1343 43.2882 30.6832 43.2882L30.6828 43.2877Z" fill="#000072"/>
<path d="M57.5663 37.7637C58.4001 43.2431 65.0718 44.6034 69.8777 41.8822C74.6837 39.1611 77.9214 33.1695 74.9717 27.9099C72.2632 23.081 65.9518 21.0129 61.3651 24.0933C57.3228 26.8077 56.8996 33.3838 57.5663 37.7637Z" fill="#FF7878"/>
<path d="M64.7408 43.3554C63.3908 43.3554 62.0827 43.0815 60.9465 42.5259C59.017 41.5821 57.7771 39.8972 57.455 37.7809C56.7421 33.0945 57.3216 26.6732 61.3023 23.9994C63.3603 22.6174 65.8814 22.1895 68.4017 22.7934C71.2126 23.4673 73.643 25.312 75.0689 27.8548C78.0581 33.1848 74.8047 39.2229 69.9322 41.9811C68.324 42.8914 66.4969 43.3554 64.7404 43.3554H64.7408ZM57.677 37.747C58.075 40.3626 59.7282 41.6791 61.0449 42.3232C63.5957 43.5707 67.0409 43.3586 69.8226 41.7847C74.599 39.0807 77.794 33.1726 74.8739 27.9659C73.4786 25.4776 71.1007 23.6727 68.35 23.0132C65.8909 22.4233 63.4326 22.8408 61.4272 24.1877C57.5341 26.8019 56.9739 33.1261 57.677 37.747Z" fill="#000072"/>
<path d="M69.8777 41.8822C68.066 42.9095 65.9878 43.355 64.0583 43.2159C60.87 42.9921 58.0852 41.1772 57.5654 37.7637C56.9917 33.9913 57.2262 28.5901 59.8866 25.4306C60.3134 24.9206 60.8044 24.4697 61.366 24.0933C65.9527 21.0124 72.2632 23.08 74.9721 27.9099C77.9223 33.169 74.6837 39.1615 69.8777 41.8813V41.8822Z" fill="#FF7878"/>
<path d="M64.7559 43.3536C64.5196 43.3536 64.2842 43.345 64.0497 43.3283C60.4639 43.0765 57.9365 40.9511 57.454 37.7808C56.8538 33.8347 57.1552 28.4993 59.8004 25.358C60.2447 24.8272 60.7501 24.3704 61.3031 23.9999C63.361 22.6178 65.8813 22.1886 68.402 22.793C71.2129 23.4664 73.6433 25.3119 75.0696 27.8553C76.4456 30.3083 76.5764 33.1622 75.4366 35.8919C74.4038 38.3658 72.398 40.585 69.9325 41.9806C68.3535 42.8756 66.5394 43.3536 64.7559 43.3536ZM66.1787 22.7519C64.4761 22.7519 62.8399 23.2393 61.428 24.1881C60.8925 24.5464 60.4028 24.9892 59.9724 25.5037C57.3758 28.5878 57.0838 33.85 57.6764 37.747C58.1422 40.8071 60.5906 42.8598 64.0659 43.1035C66.0286 43.2457 68.0722 42.7763 69.8225 41.7843C72.2452 40.4131 74.2161 38.2335 75.23 35.8048C76.0166 33.92 76.5934 31.0305 74.8742 27.9658C73.4784 25.4771 71.1001 23.6713 68.3499 23.0123C67.6225 22.8381 66.8943 22.7514 66.1787 22.7514V22.7519Z" fill="#000072"/>
<g opacity="0.3">
<path d="M64.0578 43.216C60.8695 42.9921 58.0847 41.1772 57.5649 37.7637C56.9912 33.9913 57.2257 28.5901 59.8861 25.4307C62.8516 25.9001 65.645 27.7745 67.2191 30.5828C69.7528 35.0994 67.7249 40.1531 64.0578 43.2155V43.216Z" fill="#000072"/>
</g>
<path d="M64.74 43.9182C63.3051 43.9182 61.912 43.6262 60.7009 43.034C58.6002 42.0068 57.2502 40.1716 56.8994 37.8666C56.1613 33.0159 56.7898 26.3509 60.9902 23.53C63.1798 22.0595 65.8582 21.6028 68.5329 22.2437C71.4957 22.9541 74.0568 24.8976 75.5595 27.5772C78.7217 33.215 75.3223 39.5785 70.2091 42.473C68.5181 43.4303 66.5936 43.9182 64.7395 43.9182H64.74ZM58.2336 37.6612C58.5948 40.0348 60.0962 41.23 61.2916 41.8149C63.6811 42.983 66.9215 42.7781 69.5469 41.2918C74.082 38.7246 77.1314 33.141 74.3843 28.2425C73.0653 25.891 70.8187 24.1849 68.2203 23.562C65.9157 23.0096 63.6146 23.3982 61.7409 24.6566C58.0674 27.1236 57.5557 33.2042 58.2341 37.6607L58.2336 37.6612Z" fill="#000072"/>
<path d="M27.8499 67.5796C27.2605 67.5796 26.5696 67.4095 25.7816 67.0691C23.017 65.8744 21.4384 63.2196 20.7614 61.797C20.4447 61.9662 20.1491 62.0032 19.9487 61.9969C19.0372 61.982 18.2937 61.2477 17.9334 60.6235C13.7397 53.3473 18.3296 44.6738 18.3768 44.5871C20.2474 41.1226 22.8975 38.8875 26.2529 37.9433C33.3118 35.9574 40.9408 40.3549 41.262 40.5431C41.5159 40.692 41.6448 40.9886 41.5805 41.2765L36.3581 64.733C36.3451 64.7907 36.3249 64.8463 36.2979 64.8986C35.709 66.0324 34.8644 66.7365 33.7867 66.992C32.3257 67.3377 30.7943 66.7424 29.8522 66.2481C29.73 66.5812 29.5198 66.9243 29.1617 67.1869C28.8046 67.4492 28.3661 67.5801 27.8495 67.5801L27.8499 67.5796ZM21.0026 59.9595C21.0273 59.9595 21.052 59.9609 21.0772 59.9636C21.3355 59.992 21.5543 60.1676 21.6396 60.414C21.6536 60.4533 23.0763 64.4243 26.3153 65.8234C27.2785 66.2396 28.0242 66.3384 28.363 66.0947C28.7053 65.8478 28.664 65.2128 28.6635 65.2069C28.6424 64.9433 28.7754 64.6883 29.0049 64.5583C29.2345 64.4288 29.518 64.4423 29.7314 64.5971C29.7511 64.6116 31.8006 66.0721 33.4812 65.6718C34.1452 65.5134 34.6631 65.0796 35.0621 64.3471L40.1533 41.4814C38.4781 40.609 32.2139 37.6707 26.6118 39.2504C23.6239 40.0926 21.2528 42.1056 19.5637 45.2335C18.3606 47.4609 15.9329 54.4459 19.1023 59.9442C19.3287 60.3373 19.7025 60.637 19.9712 60.6415C20.1226 60.6451 20.2798 60.5224 20.4303 60.2791C20.5543 60.0791 20.7717 59.9595 21.0031 59.9595H21.0026Z" fill="#000072"/>
<path d="M46.4326 34.7067C58.0756 28.1152 73.7887 34.351 78.9859 43.6176C84.5889 53.6073 77.5322 63.0228 65.9813 69.5619C54.4304 76.101 42.7592 77.2881 37.1562 67.2984C31.959 58.0318 34.7896 41.2977 46.4326 34.7067Z" fill="#B5CFDD"/>
<path d="M49.8325 74.7479C49.6654 74.7479 49.5001 74.7457 49.3357 74.7416C43.8567 74.5958 39.7264 72.1102 37.0588 67.354C34.4654 62.7299 33.8342 56.2319 35.3706 49.9722C37.0494 43.1325 40.9582 37.6761 46.3774 34.6083C58.0173 28.0187 73.7874 34.1182 79.084 43.5621C81.7516 48.3184 81.7282 53.1555 79.0139 57.9393C76.6226 62.1544 72.1351 66.2075 66.0367 69.6599C60.1462 72.9944 54.5572 74.7475 49.8325 74.7475V74.7479ZM57.183 32.0709C53.347 32.0709 49.6955 32.9889 46.4879 34.8051C41.1231 37.8422 37.2524 43.248 35.5885 50.0268C34.0655 56.2319 34.6882 62.6681 37.2542 67.2434C39.8805 71.9256 43.947 74.3724 49.3415 74.5159C54.1264 74.6446 59.8632 72.896 65.9266 69.4636C71.9896 66.0311 76.4478 62.0073 78.8194 57.8278C81.4915 53.118 81.5148 48.3554 78.889 43.6732C76.3229 39.0979 71.1656 35.2289 65.0937 33.3233C62.4266 32.4866 59.7635 32.0713 57.1839 32.0713L57.183 32.0709Z" fill="#000072"/>
<g opacity="0.6">
<path d="M80.4628 54.1999C80.7561 51.4679 80.1946 48.6307 78.5768 45.748C73.3796 36.481 57.6665 30.2461 46.0239 36.8371C40.0895 40.196 36.4443 46.1921 34.9834 52.4898C36.0611 45.4411 39.8316 38.4434 46.4323 34.7067C58.0766 28.1157 73.7897 34.3506 78.987 43.6176C81.0279 47.2582 81.3891 50.822 80.4632 54.1999H80.4628Z" fill="white"/>
</g>
<g opacity="0.3">
<path d="M79.842 56.0012C77.6911 61.17 72.5666 65.8324 65.9811 69.561C54.4312 76.101 42.7599 77.2876 37.156 67.2984C33.3218 60.4601 33.8564 49.556 39.0806 41.6615C35.6848 49.0658 35.7423 57.9853 39.0487 63.8817C44.6525 73.8705 56.3238 72.6843 67.8738 66.1443C72.9731 63.258 77.1969 59.811 79.842 56.0012Z" fill="#000072"/>
</g>
<path d="M68.8229 59.6711C70.4253 62.5282 68.406 65.6244 64.8898 67.6153C61.3736 69.6062 57.6916 69.7375 56.0892 66.8805C54.4867 64.0235 56.728 61.3235 60.2446 59.3326C63.7613 57.3417 67.2204 56.8141 68.8233 59.6711H68.8229Z" fill="white"/>
<path d="M49.8315 75.313C49.6604 75.313 49.4901 75.3107 49.3212 75.3062C43.6311 75.155 39.3404 72.5724 36.569 67.6311C33.9068 62.8847 33.255 56.2328 34.8251 49.8367C36.5412 42.844 40.5462 37.2609 46.1024 34.1154C58.0136 27.3723 74.1534 33.6176 79.5749 43.2841C82.3463 48.2254 82.3224 53.2503 79.5034 58.2187C77.0614 62.5227 72.5002 66.6494 66.3133 70.1518C60.3384 73.5342 54.6541 75.3125 49.8315 75.3125V75.313ZM46.7646 35.2971C41.5363 38.257 37.7613 43.5355 36.1351 50.1612C34.6454 56.2305 35.2469 62.5123 37.7447 66.9653C40.2667 71.4625 44.1738 73.8127 49.3567 73.9508C54.0391 74.0722 59.6762 72.353 65.6507 68.9711C71.6251 65.5887 76.0097 61.639 78.3309 57.548C80.8983 53.0228 80.9213 48.4475 78.3988 43.9503C75.9014 39.4973 70.8645 35.7258 64.9256 33.8622C58.4426 31.8276 51.9924 32.3371 46.7641 35.2971H46.7646Z" fill="#000072"/>
<path d="M70.5793 46.6471C71.051 46.9983 71.3327 47.515 71.5205 48.0418C71.7011 48.5753 71.7725 49.1498 71.7209 49.7284C71.6678 50.3048 71.4899 50.8902 71.1714 51.4025C70.8574 51.9157 70.4149 52.3517 69.9158 52.6626C69.4189 52.9682 68.8489 53.1871 68.2478 53.2489C67.648 53.3121 67.0357 53.2124 66.5007 52.9795C65.4306 52.5078 64.6426 51.5893 64.3443 50.5485C64.3097 50.4271 64.3794 50.3007 64.4998 50.266C64.5945 50.2385 64.6929 50.2759 64.7473 50.3522L64.7527 50.3599C65.3034 51.1339 66.0681 51.7085 66.8789 51.9256C67.6894 52.1522 68.4971 51.982 69.197 51.5248C69.883 51.0694 70.3471 50.3915 70.5326 49.5542C70.6265 49.139 70.6553 48.6931 70.6148 48.2476C70.5766 47.8012 70.4657 47.3575 70.259 46.9644L70.2442 46.9364C70.1858 46.8254 70.228 46.6873 70.3385 46.629C70.4181 46.5866 70.5115 46.597 70.5793 46.6476V46.6471Z" fill="#000072"/>
<path d="M45.0192 61.0563C45.2469 61.4377 45.5677 61.7627 45.9275 62.0267C46.286 62.2921 46.6809 62.4984 47.0825 62.6333C47.8916 62.9073 48.7088 62.8599 49.4523 62.506C50.2039 62.1413 50.7672 61.5356 50.9941 60.7219C51.229 59.9126 51.136 58.958 50.7623 58.0837L50.7587 58.0752C50.7093 57.9592 50.7627 57.8251 50.8777 57.775C50.9685 57.7358 51.0709 57.761 51.1342 57.8301C51.8656 58.6254 52.2398 59.7785 52.0866 60.9426C52.0076 61.523 51.7758 62.1012 51.411 62.5837C51.0466 63.068 50.5651 63.4448 50.0475 63.7134C49.5237 63.9815 48.924 64.1358 48.3238 64.1399C47.7227 64.1485 47.1324 63.9977 46.614 63.745C46.0947 63.4895 45.6427 63.1307 45.282 62.6992C44.9307 62.265 44.6369 61.755 44.5821 61.1682C44.5704 61.0432 44.662 60.9322 44.7865 60.9204C44.8759 60.9119 44.9581 60.9575 45.0016 61.0297L45.0178 61.0572L45.0192 61.0563Z" fill="#000072"/>
<path d="M55.6933 51.796C55.9583 51.5252 56.2984 51.333 56.6663 51.2454C58.9956 50.6902 62.3645 52.729 64.0747 54.7808C65.6511 56.6719 67.3367 60.0358 62.493 62.7777C57.6497 65.5197 55.6587 62.3291 54.8653 59.9943C54.0046 57.4618 54.0135 53.5102 55.6933 51.796Z" fill="#000072"/>
<path d="M40.2385 42.2993C39.3081 39.1416 42.1711 28.2642 46.3495 30.0393C46.9645 30.3007 48.2301 31.3749 47.4569 32.9749C46.7521 34.4346 46.2669 35.9962 46.4169 35.6586C47.142 34.0252 50.8199 28.9588 53.0585 30.9213C54.125 31.856 53.3667 33.9399 52.2 34.9522" fill="#B5CFDD"/>
<path d="M40.2385 42.4121C40.19 42.4121 40.1451 42.3805 40.1307 42.3313C39.4218 39.9252 40.9106 32.9306 43.5642 30.5484C44.4744 29.7306 45.4259 29.5243 46.3931 29.9351C46.7395 30.0826 47.4021 30.534 47.6851 31.2909C47.8909 31.8406 47.8478 32.4238 47.558 33.0241C47.2943 33.5698 47.0652 34.1213 46.8886 34.5817C47.8662 33.0421 49.7242 30.7944 51.4251 30.418C52.0769 30.274 52.6515 30.4144 53.1326 30.8359C53.4934 31.1523 53.6834 31.615 53.6816 32.1746C53.6793 33.1432 53.1003 34.3199 52.2737 35.0371C52.227 35.0782 52.156 35.0727 52.1151 35.0258C52.0747 34.9789 52.0796 34.9071 52.1268 34.8665C52.9076 34.189 53.4547 33.0814 53.457 32.1737C53.4583 31.6813 53.2948 31.2774 52.9848 31.0057C52.5603 30.6333 52.0518 30.5096 51.4731 30.6378C49.3958 31.0977 47.0575 34.4914 46.5193 35.7037C46.4982 35.7511 46.4722 35.8098 46.4016 35.8166C46.3617 35.8224 46.3212 35.8017 46.2979 35.7683C46.1999 35.6265 46.9569 33.7507 47.3558 32.9248C47.6177 32.3823 47.6582 31.8591 47.4749 31.3694C47.2179 30.6829 46.598 30.2663 46.3055 30.1422C45.4259 29.7685 44.5539 29.9617 43.7138 30.7159C41.1118 33.0521 39.6514 39.9085 40.3459 42.2667C40.3634 42.3263 40.3297 42.3891 40.27 42.4071C40.2592 42.4103 40.2484 42.4116 40.2381 42.4116L40.2385 42.4121Z" fill="#000072"/>
<g opacity="0.6">
<path d="M46.4172 35.4329L46.2738 36.1867C46.2294 36.4214 46.3812 36.6479 46.6139 36.6953C47.06 36.7856 47.5066 36.5531 47.6952 36.137C48.2024 35.019 49.4954 32.8106 51.4392 32.1597C51.4392 32.1597 53.017 31.1636 53.295 33.1852L53.5695 31.0756L52.8525 30.2438L51.1477 30.39L49.0812 31.596L48.2339 32.7153L46.4176 35.4334L46.4172 35.4329Z" fill="white"/>
</g>
<g opacity="0.6">
<path d="M47.4726 31.1677C47.4879 31.174 47.505 31.1835 47.5207 31.1907C47.2404 30.5864 46.6932 30.1856 46.3495 30.0393C42.1711 28.2642 39.3081 39.1416 40.2385 42.2993L41.1873 41.7166C41.2533 37.4888 43.8756 29.6395 47.4726 31.1677Z" fill="white"/>
</g>
<path d="M40.2383 42.9777C39.9472 42.9777 39.6785 42.7867 39.5918 42.492C38.829 39.9026 40.3501 32.677 43.1902 30.1274C44.5443 28.9119 45.7985 29.0685 46.613 29.4151C47.1463 29.6417 47.8848 30.2172 48.2123 31.0924C48.2972 31.3198 48.3489 31.5541 48.3668 31.7924C49.2676 30.8662 50.2986 30.089 51.304 29.8665C52.1274 29.6842 52.888 29.8719 53.5026 30.4108C53.9895 30.8378 54.2461 31.4485 54.2443 32.1769C54.2416 33.3148 53.5974 34.6368 52.6414 35.4659C52.3597 35.7105 51.9334 35.6794 51.6899 35.3959C51.4464 35.1125 51.4774 34.6842 51.7595 34.4395C52.4051 33.8794 52.893 32.9054 52.8948 32.1733C52.8956 31.8447 52.8013 31.5956 52.6153 31.4322C52.3247 31.1772 52.0003 31.1009 51.5946 31.1903C49.8264 31.5816 47.5672 34.7325 47.0335 35.9344C46.8758 36.2896 46.6031 36.3659 46.4544 36.3799C46.2114 36.4024 45.9746 36.2919 45.8358 36.0906C45.6103 35.7638 45.7028 35.5137 46.0465 34.5831C46.219 34.1168 46.498 33.4078 46.8502 32.6784C47.0452 32.2749 47.0775 31.912 46.9486 31.5685C46.7738 31.1014 46.3273 30.7651 46.087 30.6631C45.6588 30.4812 44.9859 30.3323 44.0892 31.1375C41.6961 33.2859 40.2302 39.8814 40.8856 42.1066C40.9912 42.4654 40.7877 42.8427 40.4301 42.9492C40.3663 42.9682 40.3016 42.9772 40.2383 42.9772V42.9777Z" fill="#000072"/>
<g opacity="0.7">
<path d="M56.1214 56.2599C55.2741 57.1296 56.0841 59.4599 56.9359 60.396C57.8182 61.3659 58.5266 61.7771 59.0428 61.2838C59.7638 60.595 59.3357 59.5885 58.5635 58.647C58.0176 57.9813 57.1668 55.1861 56.1214 56.2594V56.2599Z" fill="white"/>
<path d="M58.548 61.6065C58.5381 61.6065 58.5282 61.6065 58.5179 61.6065C58.0709 61.5907 57.5417 61.2305 56.8526 60.4727C56.0273 59.5655 55.1172 57.13 56.0408 56.1818C56.2483 55.9687 56.468 55.8771 56.6949 55.9123C57.2861 56.0026 57.7542 56.9211 58.1675 57.7312C58.3454 58.0797 58.5134 58.4092 58.65 58.5762C59.8809 60.0778 59.5849 60.9223 59.1199 61.3668C58.9528 61.5266 58.7605 61.6069 58.548 61.6069V61.6065ZM56.2012 56.3393C55.4289 57.1323 56.1639 59.3814 57.0183 60.3206C57.6554 61.0206 58.1482 61.3673 58.5255 61.3808C58.6909 61.3907 58.8337 61.3285 58.9649 61.203C59.5408 60.6528 59.3764 59.8174 58.4766 58.7197C58.3243 58.5337 58.159 58.2097 57.9676 57.8337C57.5983 57.1097 57.1387 56.2079 56.6612 56.1353C56.5085 56.1114 56.358 56.1786 56.2012 56.3393Z" fill="#000072"/>
</g>
<path d="M80.7539 77.2122C86.3546 77.483 89.9067 74.9487 91.4759 80.4457C91.7316 81.3402 91.7158 82.6139 92.4135 84.6287C94.0308 89.3006 100.929 90.3766 104.403 88.4065C111.008 84.6612 103.03 78.5184 103.03 78.5184C103.03 78.5184 105.449 61.764 89.1021 67.9429" fill="#B5CFDD"/>
<path d="M100.387 89.4613C99.1253 89.4613 97.8189 89.2366 96.6194 88.7812C94.4761 87.9678 92.9446 86.5064 92.3076 84.6662C91.8543 83.3573 91.7016 82.3698 91.5789 81.5763C91.5133 81.1534 91.4572 80.7883 91.3682 80.4773C90.2604 76.598 88.1512 76.8101 84.9598 77.1337C83.719 77.2587 82.3129 77.4018 80.7486 77.3255C80.6866 77.3228 80.639 77.2696 80.6417 77.2073C80.6449 77.145 80.6992 77.0949 80.7594 77.1003C82.307 77.1739 83.7042 77.034 84.9374 76.9094C88.1234 76.5871 90.4248 76.3547 91.5843 80.4155C91.6769 80.74 91.7344 81.1114 91.8009 81.542C91.9221 82.3265 92.0731 83.3027 92.5196 84.5927C93.1346 86.3687 94.6185 87.781 96.6989 88.5704C99.2744 89.548 102.348 89.4428 104.348 88.309C105.949 87.4009 106.808 86.2735 106.899 84.9578C107.117 81.8467 103.003 78.6408 102.961 78.6087C102.929 78.5839 102.912 78.5433 102.918 78.5031C102.929 78.4309 103.912 71.2603 100.054 68.1415C97.6949 66.2351 94.0232 66.2044 89.1413 68.049C89.0834 68.0716 89.0187 68.0413 88.9967 67.9831C88.9747 67.9249 89.0043 67.8599 89.0623 67.8378C94.0241 65.9624 97.7695 66.0058 100.195 67.966C103.953 71.0035 103.24 77.7313 103.149 78.4697C103.655 78.8696 107.338 81.8977 107.124 84.9736C107.026 86.3696 106.129 87.558 104.458 88.5058C103.339 89.14 101.895 89.4618 100.387 89.4618V89.4613Z" fill="#000072"/>
<g opacity="0.6">
<path d="M105.95 87.4614C107.065 80.3338 101.194 81.6346 101.194 81.6346C101.194 81.6346 105.037 65.3558 89.7307 68.536C89.3866 68.6073 89.126 68.2332 89.3259 67.943C105.673 61.7654 103.254 78.5185 103.254 78.5185C103.254 78.5185 110 83.713 105.95 87.4619L105.95 87.4614Z" fill="white"/>
</g>
<g opacity="0.3">
<path d="M104.403 88.407C100.928 90.3762 94.0304 89.3002 92.4127 84.6293C91.7159 82.614 91.7312 81.3398 91.4765 80.4466C89.9059 74.9488 86.3551 77.4826 80.7549 77.2132L83.422 74.2505C88.0456 74.0709 91.0367 72.5607 92.4401 77.479C92.6948 78.374 92.6795 79.6468 93.3781 81.6616C94.9958 86.334 101.893 87.4104 105.367 85.4394C106.057 85.0481 106.588 84.6311 106.984 84.1973C107.181 85.6565 106.596 87.1631 104.403 88.407H104.403Z" fill="#000072"/>
</g>
<path d="M80.7863 76.5352C81.6511 76.5732 82.5213 76.5519 83.4 76.4824C84.2791 76.4184 85.165 76.3073 86.086 76.2337C86.5474 76.1985 87.0186 76.1733 87.5074 76.1877C87.9948 76.2031 88.5047 76.259 89.0155 76.4152C89.5258 76.5664 90.0281 76.8426 90.4333 77.2078C90.8425 77.5711 91.1561 78.0053 91.4036 78.4485C91.6525 78.8935 91.8273 79.3521 91.985 79.8093C92.0546 80.0395 92.1323 80.2598 92.1907 80.5224C92.2473 80.7716 92.286 81.0067 92.3214 81.2338C92.4553 82.1374 92.6031 82.9674 92.8551 83.7974C92.9158 84.0037 92.9841 84.2099 93.0533 84.413C93.1283 84.5981 93.1921 84.7881 93.286 84.965C93.3659 85.1483 93.4746 85.3166 93.5735 85.49C93.688 85.6542 93.7954 85.823 93.9261 85.9761C94.1768 86.2893 94.4616 86.5795 94.7797 86.835C95.0951 87.0927 95.4333 87.3283 95.7968 87.5264C97.2447 88.333 98.9648 88.7008 100.645 88.6602C101.486 88.6408 102.322 88.505 103.098 88.2463C103.486 88.1109 103.847 87.9512 104.195 87.7386C104.551 87.5251 104.892 87.2935 105.185 87.0277L105.406 86.8287L105.597 86.6125C105.737 86.4743 105.823 86.3101 105.937 86.1602C106.12 85.8402 106.251 85.5021 106.311 85.146C106.415 84.4315 106.241 83.6512 105.882 82.9173C105.531 82.1802 105.023 81.4879 104.462 80.8424C104.179 80.5206 103.88 80.2092 103.568 79.9109C103.26 79.6157 102.922 79.3196 102.606 79.0727C102.404 78.9147 102.311 78.6679 102.34 78.43L102.341 78.4174C102.392 77.9949 102.425 77.5196 102.437 77.066C102.448 76.6075 102.451 76.1475 102.428 75.6899C102.392 74.775 102.292 73.8637 102.094 72.9854C101.892 72.1093 101.62 71.2554 101.212 70.4854C100.808 69.7136 100.267 69.0361 99.6072 68.5058C98.9486 67.9737 98.1656 67.5936 97.3157 67.3815C97.1059 67.3215 96.8844 67.2962 96.6688 67.2506C96.5596 67.233 96.4527 67.2032 96.3413 67.1946L96.007 67.1685L95.6723 67.1414C95.5605 67.131 95.4491 67.1188 95.3354 67.1242L94.6548 67.1287C94.4275 67.1206 94.1993 67.1558 93.9711 67.1739L93.2842 67.2353C92.8286 67.3129 92.3691 67.3761 91.9117 67.4654C91.4576 67.5697 90.9975 67.6591 90.5433 67.7764C90.0928 67.9073 89.6386 68.0319 89.1817 68.1537L89.1696 68.1569C89.0496 68.1889 88.9261 68.1172 88.8942 67.9967C88.865 67.8866 88.922 67.7742 89.0231 67.7308C89.4629 67.5413 89.9059 67.3544 90.352 67.1743C90.8012 67.0024 91.2621 66.8579 91.7195 66.6982C92.1822 66.5555 92.6579 66.4508 93.1287 66.3253L93.8525 66.199C94.095 66.1615 94.3349 66.1078 94.5834 66.097L95.3246 66.0374C95.5717 66.013 95.8242 66.0374 96.074 66.0374L96.4504 66.0469C96.5762 66.0496 96.7015 66.0748 96.8273 66.0879C97.0785 66.1249 97.3323 66.1421 97.5825 66.1972C98.5888 66.3854 99.5731 66.8191 100.419 67.4447C101.268 68.0739 101.942 68.9129 102.441 69.8151C102.939 70.721 103.282 71.6909 103.495 72.6731C103.713 73.6557 103.818 74.6482 103.855 75.6371C103.875 76.1322 103.865 76.626 103.847 77.1202C103.825 77.6189 103.789 78.0955 103.719 78.6187L103.454 77.9638C103.844 78.277 104.178 78.5835 104.521 78.9129C104.858 79.2402 105.182 79.5814 105.492 79.9388C106.107 80.6578 106.677 81.4355 107.1 82.3332C107.53 83.2143 107.804 84.2704 107.646 85.3546C107.558 85.8921 107.359 86.4066 107.089 86.8679C106.937 87.0814 106.799 87.3143 106.62 87.4984C106.534 87.5946 106.449 87.6934 106.361 87.7869L106.081 88.0428C105.706 88.3813 105.297 88.658 104.881 88.9071C104.461 89.1639 103.994 89.372 103.532 89.5309C102.6 89.8418 101.639 89.9926 100.682 90.0161C98.7725 90.0585 96.8471 89.6563 95.14 88.7108C94.7132 88.477 94.3075 88.1967 93.9257 87.8843C93.5416 87.5747 93.1898 87.2182 92.8767 86.8277C92.715 86.6368 92.578 86.4256 92.436 86.2184C92.3098 86.0009 92.1759 85.7874 92.0726 85.5568C91.9558 85.3329 91.8727 85.0946 91.7801 84.8603C91.7037 84.636 91.6301 84.413 91.5631 84.186C91.2877 83.2856 91.1197 82.331 90.9899 81.4468C90.9553 81.2274 90.9203 81.0167 90.8762 80.8253C90.8376 80.6461 90.7662 80.4389 90.7051 80.2372C90.569 79.8414 90.4194 79.4527 90.2257 79.1088C89.8394 78.4133 89.3232 77.9146 88.6193 77.7115C87.9148 77.4962 87.0586 77.5196 86.1911 77.5855C85.3182 77.655 84.4175 77.7674 83.5019 77.8342C82.5873 77.9064 81.6551 77.9308 80.722 77.8893C80.3496 77.8726 80.0612 77.5562 80.0778 77.182C80.0945 76.8079 80.4094 76.5181 80.7818 76.5348H80.7867L80.7863 76.5352Z" fill="#000072"/>
<path d="M98.878 82.6975C99.7261 82.1035 100.495 81.4468 101.095 80.721C101.4 80.3604 101.63 79.9664 101.847 79.5863C102.065 79.2018 102.193 78.7996 102.366 78.3894L102.402 78.3045C102.548 77.9606 102.943 77.8004 103.285 77.9466C103.567 78.0666 103.724 78.3569 103.691 78.6471C103.674 78.7951 103.648 78.9432 103.62 79.0912C103.604 79.1648 103.59 79.2392 103.572 79.3119C103.549 79.3832 103.521 79.4532 103.496 79.524C103.443 79.6644 103.396 79.8084 103.328 79.9415C103.257 80.0729 103.187 80.2047 103.109 80.332C102.791 80.8334 102.382 81.2617 101.934 81.607C101.485 81.9536 101.002 82.2308 100.501 82.4465C99.9957 82.6559 99.4813 82.8171 98.94 82.8812C98.886 82.8875 98.8371 82.8487 98.8308 82.7945C98.8263 82.757 98.8434 82.7218 98.8721 82.7015L98.8775 82.6975H98.878Z" fill="#000072"/>
<path d="M65.3367 65.4813C66.148 65.4813 66.8057 64.7409 66.8057 63.8276C66.8057 62.9142 66.148 62.1738 65.3367 62.1738C64.5254 62.1738 63.8677 62.9142 63.8677 63.8276C63.8677 64.7409 64.5254 65.4813 65.3367 65.4813Z" fill="#000072"/>
<path d="M31.6344 25.0371C31.3891 25.0371 31.1635 24.8972 31.0539 24.6743C30.9385 24.4391 30.9749 24.157 31.1465 23.9593L33.4812 21.2702L31.447 21.3988C31.0917 21.4209 30.7826 21.1492 30.7606 20.7904C30.7381 20.432 31.009 20.1229 31.3662 20.1008L34.948 19.8746C35.2054 19.8561 35.4534 20.0006 35.5693 20.2362C35.6852 20.4718 35.6483 20.7534 35.4767 20.9511L33.142 23.6402L35.1762 23.5116C35.5297 23.4872 35.8401 23.7612 35.8626 24.12C35.8851 24.4784 35.6142 24.7875 35.257 24.8097L31.6752 25.0358C31.6618 25.0367 31.6478 25.0371 31.6344 25.0371Z" fill="#B19F8B"/>
<path d="M21.3834 18.985C21.1381 18.985 20.9126 18.8451 20.8029 18.6221C20.6875 18.387 20.7239 18.1049 20.8959 17.9072L25.4773 12.6301L21.0442 12.9099C20.6888 12.9325 20.3798 12.6603 20.3577 12.3015C20.3353 11.9431 20.6062 11.6339 20.9633 11.6118L26.9445 11.2341C27.2024 11.2169 27.4499 11.36 27.5658 11.5956C27.6813 11.8307 27.6449 12.1128 27.4728 12.3105L22.8915 17.5877L27.3246 17.3078C27.6795 17.283 27.9886 17.5574 28.011 17.9162C28.0335 18.2746 27.7626 18.5838 27.4054 18.6059L21.4242 18.9837C21.4108 18.9846 21.3968 18.985 21.3834 18.985Z" fill="#B19F8B"/>
<path d="M31.1377 10.4464C30.8758 10.4464 30.635 10.2975 30.5182 10.0592C30.3951 9.80777 30.4338 9.50672 30.6171 9.29549L37.3925 1.49171L30.6476 1.91778C30.2689 1.94396 29.9387 1.65104 29.9145 1.2683C29.8906 0.885556 30.18 0.556073 30.5609 0.5317L38.9586 0.00181991C39.2362 -0.0171366 39.4986 0.136321 39.6217 0.387721C39.7447 0.639121 39.7061 0.940169 39.5228 1.1514L32.7474 8.95518L39.4923 8.52911C39.8719 8.50609 40.2012 8.79585 40.2254 9.17859C40.2492 9.56133 39.9599 9.89082 39.579 9.91519L31.1813 10.4455C31.1669 10.4464 31.1521 10.4469 31.1377 10.4469V10.4464Z" fill="#B19F8B"/>
</g>
<defs>
<clipPath id="clip0_0_351">
<rect width="139.546" height="96" fill="white"/>
</clipPath>
</defs>
</svg>
